<svg xmlns="http://www.w3.org/2000/svg" version="1.1" xmlns:xlink="http://www.w3.org/1999/xlink" width="512" height="512" x="0" y="0" viewBox="0 0 64 64" style="enable-background:new 0 0 512 512" xml:space="preserve" class=""><g><path fill="#0071bc" d="M64 32q0 .69-.03 1.38c-.03.65-.07 1.31-.15 1.95-.08.82-.19 1.62-.33 2.42A32.007 32.007 0 1 1 3.8 16.85c.09-.17.19-.35.3-.52a32.172 32.172 0 0 1 8.39-9.7c.51-.39 1.03-.77 1.56-1.12.28-.2.58-.39.87-.58.66-.42 1.34-.81 2.03-1.18a30.374 30.374 0 0 1 3.17-1.47A31.821 31.821 0 0 1 31.1.01c.3-.01.6-.01.9-.01q1.23 0 2.43.09l.91.09h.01A31.831 31.831 0 0 1 43.17 2c.81.3 1.6.64 2.38 1a32.357 32.357 0 0 1 6.78 4.28s0 .01.01 0c.84.7 1.63 1.43 2.39 2.2h.01a31.958 31.958 0 0 1 7.55 12.18c0 .02.01.03.01.05a31.139 31.139 0 0 1 1.55 7.27c.06.52.1 1.06.12 1.59.02.48.03.95.03 1.43z" opacity="1" data-original="#0071bc" class=""></path><g fill="#85bf4b"><path d="M34.25 38.89c-2.04 3.57-1 1.58-1.24 4.21a2.043 2.043 0 0 1-.91 1.51c-2.25 1.46-3 3.09-5.97 6.16-1.5 1.5-.5 3.5-.75 5.38s1.25 3.12.25 3.37c-5.83-.75-2.26-16.7-6.12-18.75-1.45-1.7-.84-2.93-.18-4.13a2.013 2.013 0 0 0-1.17-2.87c-2.4-.78-6.1-2.13-7.59-4.13a2.206 2.206 0 0 0-2.29-.75c-2.17.41-2.53-8.35-4.18-12.56a32.172 32.172 0 0 1 8.39-9.7c.51-.39 1.03-.77 1.56-1.12a17.326 17.326 0 0 1 6.65 1.45 2.018 2.018 0 0 1 .3 3.52c-2.17 1.44-4.65 3-1.37 4.29 1 .5 2 2.5 2.88.88s1.12-4.38 1.62-4 1.5 3.62 3.38 2.5c1.81-1.1 3.04 2.86.61 2.76a2.013 2.013 0 0 0-.49.02c-9.67 1.6 4.53 2.34-.5 4.46-3.46 2.1-3.5-3-4.84.86-.03.08-.07.18-.11.27-3.4 6.63-1.72 0-2.93 6.13-.6.16-.8-.09-.82-.48a2.029 2.029 0 0 0-2.69-1.87c-2.51.97-5.1 3.67-1.73 4.59 4.45-3.64.92 2.77 6 2.26 2.91-.97 5.31 1.01 8.74 3.5 2.13 2.37 5.88-.38 5.5 2.24zM31.1.01a2.242 2.242 0 0 0-.6 1.11C30 3.25 26 4 27 4.38S28 6 24 4.5c-2.75-1.03-3.61-1.83-3.88-2.22A31.821 31.821 0 0 1 31.1.01zM45.55 3c-.21 1.87-.98 3.55-1.69 3.35-1.12-.31-1.89.15-4.75 2s.54 4.03-2.07 3.77-1.07-5.94-.09-7.64c.87-1.55-1.25-3.05-2.52-4.39l.91.09h.01A31.831 31.831 0 0 1 43.17 2c.81.3 1.6.64 2.38 1zM58.79 32.71a.1.1 0 0 0 .04.05 1.1 1.1 0 0 0 .91.44c5.84 0 1.55 2.74-.27 5.26a1.018 1.018 0 0 0-.19.56c-.78 10.9-10.28 14.41-9.23.44-.33-6.03-12.77-.03-8.75-9.25.5-3.42 2.76-3.76 4.93-4.55a5.662 5.662 0 0 1 3.83-.04c3.73 1.31 10.88 1.25 4.49-1.03-2.5-.13-5.5-4.88-4.5-3.13s1 3.25.12 3.25c-2.94-6.45-1.11-1.34-5.07.31a1.121 1.121 0 0 1-.36.09c-2.93.28-2.68-1.43-1.94-2.65.75-1.25 2.25.25 1.75-1 .65-3.99 12.5-4.32 8.14-9.36a1.141 1.141 0 0 0-1.91.37 7.613 7.613 0 0 0-.45 2.51 1.13 1.13 0 0 1-.72 1.08c-6.14 2.32-2.15-7.53 2.72-8.78 0 0 0 .01.01 0 .84.7 1.63 1.43 2.39 2.2h.01a31.958 31.958 0 0 1 7.55 12.18c0 .02.01.03.01.05a6.529 6.529 0 0 1-.56 4.92 1.148 1.148 0 0 0 .22 1.47c2.34 1.98 1.42 4.52-1.75 2.92a1.132 1.132 0 0 0-1.42 1.69z" fill="#85bf4b" opacity="1" data-original="#85bf4b" class=""></path></g></g></svg>