<svg xmlns="http://www.w3.org/2000/svg" version="1.1" xmlns:xlink="http://www.w3.org/1999/xlink" width="512" height="512" x="0" y="0" viewBox="0 0 512 512" style="enable-background:new 0 0 512 512" xml:space="preserve" class=""><g><path d="M94.075 397.86c-8.787.019-17.439-.775-25.59-4.421-5.792-2.59-10.219-6.835-14.032-11.788a5.103 5.103 0 0 1-.811-1.605c-.288-.953-.23-1.92.693-2.522.909-.592 1.842-.367 2.585.341 1.458 1.388 2.972 2.74 4.271 4.269 6.151 7.241 14.39 9.692 23.428 10.443 18.676 1.552 36.414-2.437 53.767-8.91 12.976-4.84 24.832-11.773 36.54-19.038 6.441-3.997 12.94-7.934 20.271-10.201 3.169-.98 6.374-1.625 9.707-1.438.667.037 1.34.102 1.993.239.981.206 1.83.672 1.831 1.817.001 1.211-.961 1.549-1.922 1.676-3.894.513-7.582 1.703-11.197 3.196-6.806 2.811-12.947 6.801-19.095 10.765-15.794 10.182-32.525 18.271-50.796 22.953-11.961 3.065-20.736 4.205-31.643 4.224zM377.368 256.685c8.971-.262 18.111 2.125 27.333 3.831 6.341 1.173 12.686 2.299 19.133 2.51 6.897.226 13.496-.975 19.404-4.859 1.231-.809 2.538-1.512 3.85-2.187 1.142-.587 2.396-.782 3.34.282 1.047 1.18.519 2.446-.312 3.482-1.367 1.703-3.319 2.692-5.099 3.885-8.479 5.679-17.946 6.65-27.794 5.879-10.605-.83-20.858-3.785-31.359-5.183-12.489-1.663-24.786-.931-36.529 4.177-5.147 2.239-9.406 5.653-12.848 10.086-.329.423-.653.856-1.026 1.239-.623.641-1.373.854-2.19.402-.771-.426-.861-1.183-.711-1.936.432-2.165 1.648-3.956 2.932-5.676 4.413-5.907 10.411-9.602 17.233-12.052 7.788-2.795 15.856-3.962 24.643-3.88zM25.288 328.8c4.642.168 9.005 2.665 13.286 5.363 4.242 2.673 7.626 6.337 11.206 9.771.802.77 1.051 1.745.545 2.759-.498.998-1.441 1.163-2.426.919-8.211-2.031-16.41-4.112-24.077-7.81-.956-.461-1.849-1.103-2.667-1.787-2.23-1.864-2.982-3.998-2.217-5.989.811-2.115 2.828-3.25 6.35-3.226zM27.869 363.612c-3.723-.111-6.522-.358-9.242-1.197-2.753-.85-4.299-2.568-4.383-4.888-.077-2.127 1.347-4.09 3.954-5.034 3.694-1.338 7.503-1.213 11.329-.589 5.9.962 11.321 3.281 16.667 5.82.942.447 1.46 1.201 1.317 2.263-.132.982-.809 1.495-1.73 1.738-2.355.621-4.787.614-7.185.87-3.866.413-7.741.737-10.727 1.017zM23.981 383.816c-3.51.042-5.469-.946-6.066-2.925-.617-2.045.508-4.099 3.424-5.727 3.696-2.063 7.815-2.724 11.953-3.171 3.125-.338 6.265-.54 9.401-.771.663-.049 1.341-.001 2.004.077 1.077.127 1.951.574 2.12 1.779.153 1.085-.427 1.794-1.341 2.242-1.142.56-2.307 1.072-3.463 1.603-4.257 1.957-8.409 4.147-12.823 5.758-1.773.647-3.545 1.235-5.209 1.135zM486.228 229.272c3.975-.036 6.175 1.238 6.9 3.374.671 1.978-.333 4.226-2.573 6.069-1.854 1.525-4.054 2.34-6.212 3.258-6.388 2.717-13.15 4.216-19.801 6.075-1.103.308-2.2.281-2.826-.863-.596-1.088-.238-2.124.597-2.93 4.392-4.24 8.738-8.527 14.179-11.489 3.391-1.845 6.841-3.42 9.736-3.494zM484.081 264.107c-5.266-.527-11.326-1.118-17.381-1.756-1.142-.12-2.07-.697-2.212-1.97-.128-1.151.513-1.892 1.523-2.344 6.057-2.713 12.116-5.371 18.86-5.971 2.852-.254 5.626-.054 8.353.684 2.682.726 4.461 2.808 4.532 5.03.072 2.279-1.312 3.959-4.161 5.007-2.811 1.035-5.76 1.132-9.514 1.32zM488.316 284.236c-3.633.133-6.761-1.537-9.946-2.914-3.755-1.623-7.427-3.436-11.14-5.156-1.155-.535-2.23-1.2-1.987-2.665.247-1.489 1.518-1.874 2.766-1.79 6.943.47 13.957.478 20.62 2.948 1.472.546 2.795 1.299 3.94 2.362 1.315 1.219 2.117 2.641 1.46 4.481-.645 1.805-2.152 2.481-3.904 2.721-.593.081-1.206.013-1.809.013z" fill="#e2e8f0" opacity="1" data-original="#e2e8f0" class=""></path><path d="M446.206 390.542c-5.218-.712-10.09.874-15.005 2.171-14.661 3.87-28.038 10.724-41.379 17.702-14.622 7.648-27.883 17.418-41.664 26.38a619.547 619.547 0 0 1-25.544 15.746c-10.726 6.258-21.463 12.494-32.422 18.348-22.823 12.19-46.505 22.245-71.517 28.993-17.651 4.762-35.556 8.239-53.765 10.102-10.819 1.106-21.641 1.959-32.527 2.015-15.016.076-29.64-2.317-44.126-6.154-11.641-3.083-22.764-7.298-33.059-13.526-15.758-9.534-27.392-22.719-34.502-39.782-1.182-2.836-2.794-5.545-2.949-8.723-.133-2.719.94-3.725 3.655-3.245 8.739 1.545 17.381.751 25.993-.942 2.894-.569 2.983-.781 1.121-3.165-8.12-10.398-13.133-22.261-16.465-34.908-.685-2.598-1.101-5.265-.925-7.972.098-1.51.43-2.92 2.056-3.629 1.556-.678 2.566.204 3.568 1.126 7.027 6.459 15.015 11.249 24.189 14.003 6.728 2.02 13.662 2.89 20.617 3.459 10.729.878 21.467.455 32.157-.648 11.01-1.136 21.611-4.192 32.053-7.706 14.641-4.927 28.88-10.879 42.95-17.262 13.94-6.324 27.902-12.585 41.533-19.572 16.147-8.277 31.758-17.47 47.172-27.018 15.464-9.58 30.723-19.509 46.748-28.151 21.7-11.702 44.459-20.57 68.781-25.098 10.631-1.979 21.361-3.2 32.152-3.91 10.017-.659 19.966-.385 29.882 1.395 10.537 1.892 17.986 8.309 24.384 16.255 3.214 3.991 5.12 8.674 5.563 13.826.436 5.07-.274 10.031-1.626 14.936-1.195 4.334-2.137 8.737-3.273 13.087-2.411 9.236-.99 17.935 3.389 26.311 3.135 5.997 5.365 12.317 5.798 19.141.586 9.243-2.599 16.878-10.077 22.475-4.256 3.186-9.07 5.484-13.734 8.007-10.807 5.844-21.672 11.597-31.396 19.207-10.155 7.947-19.442 16.735-26.212 27.85-1.882 3.089-3.322 6.444-5.084 9.61-2.317 4.165-5.715 4.216-8.101.096-2.647-4.572-2.654-9.634-2.326-14.693.225-3.478.644-6.943.952-10.417.15-1.699-.676-2.514-2.934-2.766-2.693-.3-5.362-.047-7.995.588-4.116.993-8.128 2.333-12.147 3.65-2.129.698-4.382 1.479-6.098-.738-1.655-2.138-.395-4.094.756-5.927 3.881-6.181 8.996-11.246 15.015-15.245 20.569-13.665 42.011-25.735 65.088-34.719.433-.168.853-.374 1.28-.563z" fill="#e2e8f0" opacity="1" data-original="#e2e8f0" class=""></path><path d="M215.189 413.589c1.82 2.851 3.452 5.514 5.19 8.106 2.203 3.284 4.215 6.744 7.179 9.427 3.885 3.517 7.952 2.734 10.411-1.857.99-1.848 1.639-3.824 2.268-5.807 3.268-10.308 7.103-20.411 10.965-30.505.239-.625.362-1.404 1.105-1.682.533.42.491.916.55 1.371 1.609 12.375 3.026 24.769 4.132 37.201.582 6.546 1.009 13.116 2.216 19.593.335 1.797.797 3.543 2.211 4.859 1.199 1.117 2.626 1.423 4.108.888 1.429-.516 2.251-1.676 2.376-3.218.081-1.002.076-2.012.074-3.018-.017-6.533-1.235-12.951-1.861-19.426-1.389-14.364-3.216-28.671-5.748-42.882-.377-2.116-.889-4.213-1.999-6.094-2.255-3.823-6.309-3.936-8.685-.195a29.496 29.496 0 0 0-2.34 4.446c-5.002 12.026-9.546 24.229-13.953 36.484-.216.602-.219 1.514-.998 1.596-.789.083-.974-.817-1.285-1.368-2.77-4.911-5.457-9.869-8.278-14.75-2.05-3.546-4.252-7.011-7.323-9.801-3.521-3.199-8.133-2.21-10.081 2.126-.528 1.175-.845 2.403-1.005 3.676a115.52 115.52 0 0 0-.876 13.653c-.091 14.978.922 29.904 2.437 44.796.318 3.131.656 6.282 1.704 9.286.398 1.142 1.072 2.032 2.426 2.077 1.324.044 2.112-.75 2.657-1.822.553-1.086.795-2.276.994-3.471 1.179-7.05 1.096-14.17 1.095-21.276-.001-10.068-.145-20.136-.217-30.203-.004-.592-.112-1.214.551-2.21zM406.716 382.516c1.699.141 3.561-.167 5.422-.414 11.207-1.488 18.786-9.917 18.572-20.712-.097-4.887-2.599-8.813-5.371-12.565-3.31-4.48-7.816-7.724-12.034-11.24-4.745-3.955-8.957-8.288-11.509-14.029-2.407-5.416-1.029-11.563 3.591-15.267 2.729-2.189 5.904-3.143 9.239-1.831 3.342 1.315 5.259 3.954 5.845 7.602.45 2.803-.054 5.471-.606 8.167-.142.695-.668 1.57.178 2.002.923.471 1.455-.462 1.922-1.061 5.859-7.517 4.434-20.307-7.267-23.748-13.216-3.887-25.171 8.568-23.552 21.848.753 6.17 3.994 11.187 7.954 15.768 3.31 3.829 7.337 6.877 11.263 10.028 3.93 3.154 7.903 6.253 10.197 10.95 2.194 4.491.895 9.926-3.089 12.966-3.398 2.593-7.323 3.591-11.456 3.919-4.248.337-7.39-1.462-9.409-5.235a22.422 22.422 0 0 1-2.195-6.035 545.219 545.219 0 0 1-1.859-9.481c-.219-1.154-.71-2.07-1.971-2.222-1.274-.153-2.227.479-2.798 1.577-.699 1.342-.879 2.816-.76 4.31.298 3.753.77 7.492 1.904 11.089 2.513 7.968 7.948 13.988 17.789 13.614zM369.452 317.776c-.842-.038-1.795.299-2.759.59-13.524 4.08-26.534 9.485-39.381 15.302-1.826.827-3.503 1.999-4.966 3.394-1.087 1.035-.79 2.139.652 2.523.557.148 1.192.069 1.783.01 6.451-.639 12.657-2.336 18.772-4.404 1.151-.389 2.105-.489 1.908 1.144-.534 4.429.035 8.85.009 13.275-.093 15.636.081 31.268 1.297 46.866.271 3.47.538 6.96 1.452 10.347.248.918.576 1.956 1.707 1.98 1.218.026 1.686-1.012 1.911-2.017.306-1.371.577-2.764.683-4.162.809-10.638 1.472-21.284 1.593-31.957.035-3.087.1-6.175.214-9.261.347-9.388.699-18.777.153-28.167-.079-1.36.288-2.131 1.637-2.538 3.662-1.104 7.301-2.285 10.945-3.45 1.468-.47 2.988-.845 4.371-1.501 2.139-1.015 2.985-2.923 2.449-4.966-.501-1.91-2.024-2.989-4.43-3.008zM292.66 355.405c.2 10.398 1.148 20.748 2.083 31.099 1.159 12.82 2.038 25.67 4.156 38.386.507 3.044.967 6.11 2.097 8.999.596 1.525 1.447 3.023 3.448 2.828 1.867-.182 2.73-1.517 3.155-3.201.115-.455.255-.91.301-1.374.37-3.673.64-7.349.496-11.047-.518-13.266-1.106-26.525-2.359-39.749-.829-8.743-1.484-17.503-2.297-26.248-.241-2.598-.544-5.219-1.596-7.657-.903-2.092-2.727-3.353-4.637-3.281-1.926.072-3.607 1.444-4.325 3.655a9.926 9.926 0 0 0-.457 2.559c-.081 1.674-.05 3.354-.065 5.031zM104.4 457.307c-.022 2.417-.157 4.839-.043 7.25.253 5.36.385 10.767 2.477 15.828 2.093 5.062 5.771 7.924 11.442 7.952 3.433.017 6.836-.261 10.231-.702 2.194-.285 4.411-.497 6.503-1.285 1.602-.603 2.569-1.75 2.472-3.514-.094-1.709-1.256-2.655-2.776-3.054a16.689 16.689 0 0 0-3.774-.53c-3.355-.086-6.713-.04-10.07-.084-3.37-.043-4.184-.727-5.048-3.983-1.199-4.519-1.217-9.168-1.512-13.78-.548-8.568-.972-17.143-1.506-25.711a76.428 76.428 0 0 0-.786-6.997c-.176-1.13-.667-2.268-2.052-2.428-1.4-.161-2.078.789-2.458 1.939-.483 1.463-.995 2.935-1.27 4.445-1.485 8.149-1.747 16.398-1.83 24.654zM164.532 444.742c-.102 11.13-.245 20.521.112 29.909.094 2.49.355 4.965 1.192 7.316.909 2.553 2.742 3.794 4.779 3.449 2.062-.349 3.416-2.08 3.536-4.743.115-2.546.084-5.098.142-7.646.379-16.709-1.216-33.366-1.315-50.063-.014-2.333-.365-4.683-.769-6.989-.443-2.534-2.026-3.882-4.001-3.732-1.901.144-3.144 1.611-3.425 4.082-.242 2.132-.552 4.267-.399 6.418.564 7.911.078 15.827.148 21.999z" style="" fill="#101828" data-original="#101828"></path><path d="M33.319 305.311c-.748 2.434-1.398 4.904-2.268 7.294-1.073 2.946-3.488 4.621-6.051 4.44-2.539-.179-4.819-2.178-5.475-5.181-1.284-5.875-1.3-11.865-1.176-17.837.105-5.029.42-10.054.689-15.079.677-12.664 1.659-25.303 3.01-37.916 2.748-25.658 7.53-50.99 12.107-76.357 1.144-6.34 2.23-12.704 1.828-19.203-.071-1.145-.144-2.276-.565-3.359-.432-1.112-1.101-1.848-2.422-1.611-1.072.193-2.092.105-2.55-1.036-.435-1.083-.098-2.095.634-2.998 3.281-4.05 9.469-3.709 12.641.767 3.041 4.291 3.806 9.263 3.971 14.349.313 9.661-1.506 19.117-2.956 28.599-3.166 20.7-6.99 41.3-9.419 62.112-1.19 10.197-2.259 20.407-2.954 30.652-.089 1.317-.545 2.618-.144 4.455 1.049-3.49 1.915-6.562 2.894-9.598 4.041-12.533 8.14-25.05 15.143-36.345 3.115-5.024 6.829-9.497 12.287-12.157 5.574-2.716 11.701-1.315 15.597 3.48 4.627 5.694 6.223 12.545 7.436 19.53.367 2.113.606 4.253.792 6.39.105 1.2.511 1.343 1.527.845 1.746-.855 3.513-1.681 5.319-2.397 1.241-.492 1.402-1.542 1.616-2.579 1.324-6.402 3.122-12.668 6.017-18.539 3.969-8.049 8.865-15.446 17.023-19.853 11.522-6.224 22.653.76 24.431 12.767 1.633 11.031-2.137 20.799-8.999 29.367-5.659 7.065-12.919 11.42-22.112 12.138-.892.07-1.368.454-1.392 1.357-.21 7.759-.034 15.468 3.358 22.684.566 1.204 1.304 2.357 2.12 3.411 3.816 4.93 8.426 5.57 13.521 1.978 5.005-3.529 8.399-8.436 11.598-13.505 4.721-7.481 8.227-15.56 11.099-23.877 1.051-3.045.961-6.478 1.437-9.727 1.221-8.322 3.362-16.439 5.558-24.539 1.374-5.069 2.623-10.144 2.392-15.458-.085-1.956-.141-3.836-1.843-5.309-1.05-.91-.549-2.334.969-3.016 2.453-1.102 4.619-.259 6.526 1.312 2.085 1.718 3.257 4.084 4.117 6.583 2.138 6.211 2.033 12.57.841 18.904-1.701 9.038-3.722 18.016-5.395 27.059-1.199 6.48-1.926 13.025-.382 19.585.31 1.316.785 2.572 1.458 3.742 1.041 1.809 2.267 2.141 3.993.957 1.952-1.339 3.551-3.08 4.999-4.935 5.637-7.224 9.394-15.487 12.837-23.876 4.897-11.932 8.812-24.222 12.895-36.45 1.658-4.964 3.587-9.839 5.44-14.736.425-1.124.947-2.239 1.598-3.245 1.047-1.62 2.562-2.31 4.512-1.789 2.013.538 2.793 1.93 2.738 3.91-.096 3.442-.75 6.815-1.521 10.141-4.811 20.732-9.028 41.603-14.498 62.18-4.248 15.982-9.194 31.732-16.137 46.779-6.49 14.064-14.597 27.052-25.904 37.824-9.945 9.475-20.952 17.255-34.449 20.81-10.551 2.779-21.157 3.324-31.411-1.1-10.996-4.744-17.302-13.406-18.951-25.158-.871-6.201 1.715-11.611 5.995-16.075 6.428-6.704 14.468-10.296 23.551-11.708 11.749-1.827 23.127.232 34.391 3.372 7.889 2.199 15.782 4.384 23.643 6.68 1.534.448 2.316.093 3.089-1.237 4.499-7.748 8.087-15.914 11.239-24.281 3.932-10.439 7.225-21.085 10.177-31.838.133-.484.481-.969.154-1.692-2.02 3.761-3.975 7.424-6.658 10.624-2.644 3.154-5.542 5.898-9.949 6.204-5.008.348-8.651-2.042-11.389-5.954-2.252-3.217-3.826-6.774-4.572-10.664-.111-.58-.314-1.142-.515-1.855-.871.41-.956 1.179-1.222 1.8-3.504 8.174-7.637 15.998-13.004 23.119-2.027 2.69-4.374 5.124-7.06 7.146-8.245 6.205-17.863 5.396-25.807-2.075-6.236-5.864-9.309-13.366-10.939-21.551-1.211-6.082-1.657-12.232-.939-18.425.154-1.329-.291-1.629-1.429-.941-.287.174-.561.401-.874.497-3.746 1.145-4.468 3.693-4.567 7.458-.38 14.477-3.398 28.375-10.777 41.055-4.615 7.931-10.375 14.739-19.206 18.197-4.335 1.698-8.839 2.435-13.365.651-6.496-2.561-8.867-7.979-9.729-14.378-.079-.59-.011-1.201-.011-1.802l-.221.037zm73.137 58.563c3.566-.289 7.526-.496 11.379-1.485 17.292-4.435 29.572-15.733 40.142-29.364.898-1.158.186-1.391-.849-1.658a1151.608 1151.608 0 0 1-16.149-4.275c-11.487-3.136-23.009-5.958-35.083-4.997-9.011.717-17.023 3.682-23.311 10.41-3.113 3.331-4.448 7.385-3.552 11.885 1.013 5.088 3.738 9.3 7.507 12.822 5.504 5.146 12.34 6.444 19.916 6.662zm-69.237-74.009.319.124c.26-.449.53-.892.778-1.348a52.682 52.682 0 0 1 9.835-12.91c6.716-6.449 14.251-11.778 22.262-16.465 1.213-.71 2.191-1.455 2.167-3.075-.111-7.725-.394-15.426-2.742-22.879-1.705-5.414-3.704-5.93-8.199-2.446-4.114 3.189-6.695 7.48-8.978 11.967-6.03 11.853-9.712 24.54-12.977 37.364-.82 3.223-1.643 6.445-2.465 9.668zm3.642 12.296a10.873 10.873 0 0 0 1.246 5.239c2.012 3.855 3.934 4.596 8.061 3.13 3.973-1.412 6.824-4.322 9.19-7.564 7.82-10.71 11.215-23.018 12.453-36.037.049-.513.226-1.168-.269-1.505-.531-.362-1.018.143-1.448.417-7.715 4.913-15.101 10.273-21.063 17.277-4.648 5.459-7.814 11.684-8.17 19.043zm94.86-77.887c-.036-2.898-.844-5.256-2.426-7.077-2.392-2.754-4.709-2.896-7.441-.437-1.512 1.361-2.593 3.072-3.681 4.757-6.033 9.344-9.196 19.744-11.235 30.564-.343 1.82.455 1.865 1.863 1.608 12.528-2.285 22.633-15.013 22.92-29.415zM426.13 151.534c1.66-6.866 3.243-13.572 4.906-20.258 3.292-13.231 6.426-26.501 8.433-39.993 1.263-8.492 2.174-17.04 1.452-25.663-.153-1.82-.343-3.612-1.644-5.067-.533-.596-.681-1.333-.287-2.059.406-.748 1.161-.854 1.924-.83 2.021.064 3.359 1.217 4.361 2.835 2.495 4.027 3.566 8.521 4.194 13.14 1.452 10.668.62 21.295-.622 31.916-1.867 15.972-5.591 31.586-8.939 47.278-2.354 11.033-4.026 22.162-4.679 33.465-.585 10.129.399 19.976 3.662 29.561 1.238 3.637 3.025 7.017 6.014 9.631 4.088 3.574 8.694 3.792 12.98.401 5.663-4.481 8.64-10.478 9.62-17.54.67-4.835.462-9.626-.721-14.38-.311-1.251-.392-2.618 1.048-3.355 1.382-.707 2.612-.232 3.708.705 1.062.907 1.674 2.135 2.036 3.421 4.152 14.727-1.629 31.6-15.245 38.681-6.356 3.305-12.533 2.387-18.361-1.278-7.537-4.739-11.217-12.255-13.977-20.32-1.299-3.795-2.206-7.708-3.341-11.733-.309.98-.635 1.954-.925 2.94-3.054 10.394-7.323 20.203-14.161 28.713-2.927 3.642-6.62 6.314-11.297 7.271-4.7.962-8.714-.699-12.33-3.58-3.498-2.787-5.995-6.302-7.571-10.484-.208-.551-.328-1.174-.922-1.541-.793.306-.901 1.117-1.222 1.738-2.619 5.068-5.018 10.262-8.426 14.88-1.316 1.783-2.764 3.463-4.463 4.907-6.903 5.865-14.827 4.989-20.338-2.249-3.658-4.805-5.228-10.413-6.002-16.252-1.446-10.912.372-21.541 3.126-32.059 2.281-8.71 5.752-17.056 7.899-25.806.463-1.888.986-3.768 1.027-5.737.037-1.754-.842-2.479-2.514-2.256-2.834.377-5.16 1.815-7.28 3.636-6.095 5.234-9.574 12.203-12.669 19.38-5.361 12.429-8.955 25.444-12.493 38.47-1.83 6.738-3.548 13.506-5.402 20.237-.649 2.357-.633 4.786-1.072 7.16-.307 1.66-.669 3.291-1.56 4.756-2.389 3.93-7.506 4.001-9.959.098-1.403-2.232-1.772-4.784-1.826-7.345-.441-20.612.868-41.069 5.692-61.188 1.173-4.895 2.611-9.726 3.894-14.595.144-.548.645-1.277.101-1.69-.619-.469-1.245.192-1.805.507-4.6 2.592-7.916 6.576-11.359 10.438-4.374 4.908-8.639 9.947-14.26 13.541-1.028.658-1.129 1.525-1.006 2.605 2.142 18.803-1.683 36.6-9.323 53.681-2.144 4.794-5.145 9.089-9.383 12.423-5.44 4.281-11.293 5.111-17.538 2.219-4.973-2.302-9.067-5.736-11.919-10.495-5.943-9.915-7.954-20.785-7.147-32.135.851-11.976 3.948-23.449 9.663-34.058 3.983-7.395 9.384-13.561 17.155-17.298 4.066-1.955 8.349-2.622 12.753-1.85 6.822 1.197 10.534 5.976 13.068 11.936.656 1.543 1.115 3.16 1.444 4.817.41 2.062.68 2.134 2.374.779 3.529-2.826 6.502-6.203 9.465-9.587 3.93-4.488 7.441-9.356 12.124-13.161 2.063-1.676 4.284-2.984 6.834-3.75 5.198-1.562 9.444.954 10.588 6.279.793 3.691.408 7.393-.206 11.017-2.232 13.173-4.338 26.36-5.705 39.655-.074.722-.105 1.448-.008 2.198 1.212-4.672 2.417-9.331 3.742-13.96 3.146-10.99 6.504-21.903 12.022-31.985 3.334-6.092 7.238-11.785 12.823-16.116 1.868-1.449 3.84-2.687 6.068-3.526 8.326-3.138 15.313 1.553 15.557 10.508.187 6.848-1.194 13.502-2.786 20.094-2.097 8.684-4.256 17.351-5.392 26.224-.967 7.554-1.312 15.11.427 22.628.37 1.597.982 3.068 1.806 4.458 1.352 2.279 2.573 2.661 5.049 1.624 2.425-1.015 4.27-2.768 5.885-4.774 4.334-5.384 7.203-11.622 10.276-17.74.284-.566.306-1.154.195-1.766-1.845-10.206-1.054-20.343 1.022-30.401 2.032-9.841 4.975-19.412 10.14-28.108 3.653-6.151 7.964-11.799 14.315-15.526 10.223-5.999 20.845-2.671 25.826 8.113.378.821.589 1.749 1.387 2.53zm-41.539 55.545c.109 5.117.694 9.963 2.017 14.716.717 2.577 1.932 4.844 3.746 6.811 3.012 3.266 6.746 3.688 10.484 1.238 2.283-1.496 4.139-3.399 5.757-5.568 6.283-8.423 10.026-18.01 12.94-27.997 1.374-4.707 2.68-9.361 2.687-14.365.006-4.21.57-8.43 1.054-12.626.766-6.645-.574-12.804-3.905-18.566-3.585-6.202-8.821-7.297-14.413-2.789-4.977 4.013-8.161 9.466-10.723 15.16-6.307 14.022-9.085 28.873-9.644 43.986zm-133.682-28.058c-.999-.077-1.533.498-2.044.956-3.737 3.348-6.818 7.22-8.964 11.771-3.813 8.087-5.938 16.683-7.241 25.473-1.327 8.951-1.514 17.912.848 26.764 1.384 5.186 3.665 9.815 8.335 12.87 2.911 1.905 5.88 2.039 8.893.178 3.699-2.284 6.474-5.453 8.493-9.23 8.066-15.095 11.73-31.165 10.451-48.295-.223-2.983-.267-3.023-3.225-2.57-6.388.978-12.969-2.543-15.567-8.331-1.42-3.163-1.327-6.352.021-9.586zm14.394 11.575c.798-.32 2.779.618 2.348-1.449-.654-3.132-1.663-6.198-4.111-8.54-1.644-1.573-3.573-2.068-5.047-1.141-1.495.94-2.276 3.285-1.718 5.163 1.059 3.568 4.27 5.854 8.528 5.967z" fill="#e2e8f0" opacity="1" data-original="#e2e8f0" class=""></path><path d="M338.007 135.852c1.046 2.368 2.904 3.423 4.52 4.699 1.043.824 2.02 1.647 1.743 3.14-.271 1.463-1.283 2.276-2.616 2.806-3.021 1.201-6.145 1.403-9.313.923-10.72-1.625-17.038-7.935-19.56-19.403-2.179-9.91-1.581-19.853-.756-29.859 1.008-12.234 2.608-24.418 2.912-36.719.143-5.785.306-11.536-.609-17.255-.384-2.403-1.35-4.65-2.964-6.527-1.678-1.952-3.623-2.262-5.927-1.024-2.79 1.5-4.519 3.973-5.912 6.689-3.466 6.754-5.618 13.967-6.72 21.434-1.871 12.677-3.846 25.358-5.054 38.105-.737 7.78-.608 15.691.148 23.535.25 2.594 1.413 4.545 3.591 5.973a118.936 118.936 0 0 1 5.78 4.034c1.468 1.093 2.521 2.478 1.998 4.474-.521 1.992-2.13 2.65-3.927 2.962-.788.137-1.605.134-2.409.147-8.861.149-17.723.249-26.582.456-2.812.066-5.616.439-8.427.612-1.538.095-3.095.2-4.621.057-1.692-.158-3.106-.965-3.609-2.752-.482-1.715.027-3.226 1.346-4.369 1.826-1.582 3.65-3.188 5.626-4.569 5.733-4.009 8.126-9.757 8.972-16.428.778-6.137 1.08-12.311 1.142-18.474.149-14.639.089-29.281.011-43.922-.021-4.019-.3-8.041-.739-12.048-.287-2.623-1.466-4.548-3.817-5.761-2.088-1.077-4.18-2.147-6.094-3.527-2.013-1.451-2.914-3.343-2.402-5.114.521-1.806 2.209-3.036 4.739-3.054 8.461-.059 16.924-.034 25.386.007 2.187.011 3.588 1.145 4.321 3.261.927 2.676.898 5.38.742 8.152-.312 5.546-.486 11.1-.445 16.684.563-2.468 1.043-4.958 1.704-7.399 2.102-7.758 5.793-14.494 12.949-18.716 12.629-7.45 27.796-1.846 32.714 12.027 1.717 4.842 2.586 9.858 2.791 14.992.404 10.146-.41 20.244-1.081 30.354-.906 13.654-2.548 27.271-2.183 40.994.084 3.167.677 6.325 1.879 8.764-.046-2.137 1.253-2.949 2.573-3.733 1.443-.857 2.907-1.68 4.344-2.548 6.036-3.644 9.196-8.974 9.596-16.036.422-7.445.474-14.894.595-22.345.255-15.77.546-31.539.333-47.312-.089-6.576-.408-13.139-1.207-19.682-.766-6.274-3.843-10.745-9.614-13.36-1.406-.637-2.778-1.351-4.159-2.041-1.189-.594-1.997-1.469-1.599-2.886.4-1.422 1.505-1.669 2.861-1.568 14.195 1.053 28.301.557 42.253-2.509.262-.058.528-.112.795-.129 1.557-.099 3.256-.333 3.958 1.527.642 1.704-.51 2.793-1.744 3.693-4.579 3.341-8.552 7.124-10.19 12.828-.879 3.062-1.168 6.2-1.453 9.333-.285 3.137-.376 6.295-.439 9.447-.188 9.396-.33 18.793-.47 28.19-.037 2.474.222 2.72 2.67 2.071 8.78-2.326 14.886-7.504 17.244-16.531 1.705-6.527 2.436-13.186 2.602-19.921.124-5.019-1.822-8.961-5.866-11.941-1.366-1.007-3.208-2.011-2.426-4.15.736-2.014 2.804-1.91 4.491-1.972 2.001-.074 4.018.16 6.021.337 6.997.618 13.937.018 20.862-.925 1.459-.199 2.916-.307 3.615 1.342.69 1.629-.433 2.638-1.474 3.626-1.896 1.8-4.168 3.116-6.039 4.991-2.978 2.984-3.842 6.642-4.223 10.591-.488 5.073-.497 10.199-1.597 15.206-1.614 7.347-4.411 14.076-10.034 19.366-.899.846-2.768 1.271-2.574 2.455.147.896 2.089.783 3.185 1.275 6.4 2.879 8.42 8.386 9.095 14.798.655 6.221-.068 12.491.775 18.7.316 2.329.664 4.647 1.349 6.907 1.129 3.725 3.478 5.966 7.46 6.289.401.033.802.079 1.203.108 1.791.128 3.857-.124 4.564 2.096.731 2.297-1.094 3.448-2.585 4.527-6.596 4.769-17.241 6.552-23.922-1.311-2.615-3.078-4.328-6.628-5.146-10.577-.97-4.68-1.197-9.45-1.594-14.198-.42-5.023-1.028-9.981-3.079-14.702-1.711-3.937-4.862-5.476-8.73-5.744-5.686-.394-5.856-.116-5.863 5.526-.01 8.929-.061 17.859.474 26.777.108 1.807.335 3.607.528 5.408.453 4.227 2.555 7.396 6.12 9.679a97.171 97.171 0 0 1 5.794 4.008c1.227.918 2.226 2.176 1.616 3.798-.577 1.533-2.085 1.723-3.555 1.752-5.032.1-10.063.218-15.096.311-8.12.15-16.23.462-24.326 1.156-2.315.201-4.667.444-7.219-.358zM197.78 181.424c-11.333-.322-23.387 1.065-35.392 3.062-1.248.208-2.542.249-3.809.2-1.628-.063-3.05-.622-3.634-2.35-.612-1.809-.071-3.347 1.345-4.516 1.499-1.238 3.048-2.433 4.671-3.502 8.581-5.652 12.753-13.814 13.967-23.82.907-7.475 1.085-14.984 1.502-22.485.086-1.553-.94-1.397-1.884-1.225-6.213 1.133-12.487 1.817-18.758 2.505-3.333.366-6.681.611-10.024.877-1.196.095-1.825.568-1.809 1.874.073 5.909.223 11.805 1.234 17.654.671 3.879 2.5 6.878 5.981 8.832 1.109.623 2.16 1.361 3.184 2.119 1.118.828 1.588 1.985 1.326 3.367-.265 1.395-1.328 1.956-2.571 2.219-.784.165-1.592.273-2.392.292-6.776.159-13.547.422-20.314.822-5.236.31-10.396 1.2-15.587 1.852-.532.067-1.066.155-1.6.166-1.572.033-2.998-.356-3.686-1.918-.714-1.623-.142-3.011 1.108-4.163 2.22-2.046 4.545-3.968 6.701-6.094 2.685-2.648 3.921-5.831 4.373-9.48.751-6.07 1.07-12.176 1.176-18.271.192-11.011.122-22.028.027-33.041-.031-3.547-.414-7.094-1.069-10.601-.807-4.324-2.966-7.725-6.697-10.088-1.437-.91-2.758-1.936-1.983-3.875.778-1.945 2.499-1.698 4.134-1.472 9.978 1.376 19.926 1.657 29.814-.739 1.3-.315 2.636-.497 3.964-.68 1.096-.151 2.189-.131 2.822 1.017.63 1.143.353 2.186-.394 3.186-1.031 1.38-2.518 2.227-3.868 3.19-2.92 2.084-4.504 4.905-5.158 8.338-.466 2.443-.785 4.911-.77 7.397.044 7.451-.203 14.903.185 22.355.074 1.426.557 1.645 1.799 1.59 8.724-.387 17.353-1.745 26.041-2.499.267-.023.531-.085.798-.111 4.377-.423 4.36-.422 4.419-4.933.158-12.151.182-24.307.547-36.453.281-9.339.013-18.653-.565-27.961-.319-5.131-1.225-10.143-4.801-14.24a20.364 20.364 0 0 0-4.4-3.802c-1.311-.838-2.524-1.801-3.502-3.007-2.035-2.509-.878-5.541 2.296-5.999.989-.143 2.01-.083 3.016-.078 7.787.043 15.571.279 23.357-.308 4.605-.347 8.921-1.883 13.391-2.765 1.184-.234 2.349-.582 3.577-.515 1.529.084 2.707.752 3.419 2.122.71 1.367.296 2.643-.529 3.778-1.073 1.475-2.498 2.615-3.866 3.806-2.021 1.758-4.056 3.477-5.883 5.476-3.821 4.18-5.024 9.192-5.378 14.607-.832 12.747-.132 25.512-.504 38.26-.394 13.498.01 26.988.227 40.474.184 11.462.274 22.944 1.449 34.382.647 6.298 2.991 11.325 8.676 14.548 1.861 1.055 3.563 2.4 5.303 3.66 1.381 1 2.352 2.283 1.893 4.104-.503 1.995-2.058 2.798-3.937 2.835-4.032.079-8.062.025-12.958.025z" fill="#e2e8f0" opacity="1" data-original="#e2e8f0" class=""></path><path d="M97.32 84.25c-.275 13.848.373 28.812.526 43.782.116 11.332.172 22.694 1.504 33.978.582 4.931 1.221 9.891 4.591 13.943 1.801 2.165 4.102 3.641 6.519 4.975 1.822 1.006 3.67 1.964 5.492 2.969 1.361.751 2.112 1.889 1.844 3.48-.268 1.589-1.458 2.223-2.901 2.307-2.141.125-4.306.307-6.433.127-13.817-1.17-27.478.186-41.113 2.282-3.576.55-7.202.801-10.812 1.093-1.492.121-3.017.005-3.731-1.705-.747-1.79.035-3.135 1.335-4.271a36.351 36.351 0 0 1 2.844-2.244c6.049-4.302 9.86-10.123 11.895-17.212 2.591-9.027 3.667-18.274 4.12-27.612.824-16.963 1.047-33.94 1.319-50.918.161-10.063.856-20.121.639-30.187-.142-6.577-.333-13.152-.25-19.729.023-1.815-.636-2.039-2.175-1.46-7.578 2.848-14.337 6.995-20.179 12.607-4.745 4.558-9.449 9.156-13.234 14.589a9.894 9.894 0 0 1-1.604 1.796c-1.205 1.048-2.632 1.401-4.122.744-1.454-.64-1.954-1.96-2.001-3.461-.076-2.442.508-4.81.994-7.166 2.07-10.032 3.282-20.122 2.753-30.397-.191-3.713 1.618-5.197 5.32-4.448 13.689 2.768 27.499 3.78 41.448 3.285 19.544-.693 38.741-3.469 57.471-9.213 1.152-.353 2.328-.709 3.517-.838 2.564-.279 4.029.982 4.002 3.55-.031 2.882-.333 5.759-.424 8.641-.258 8.193-.026 16.375.883 24.524.2 1.791.805 3.535 1.063 5.323.238 1.656.13 3.341-1.809 4.01-1.871.646-3.119-.41-3.997-1.889-2.888-4.864-6.048-9.466-10.297-13.321-7.871-7.142-16.833-11.646-27.57-12.253-1.472-.083-2.942-.201-4.413-.291-1.264-.077-1.819.507-1.822 1.793-.012 5.437-.475 10.855-.746 16.281-.522 10.464-.546 20.937-.446 32.536zM226.976 43.527c6.462.356 13.615-.303 20.775-.805.936-.066 1.879-.049 2.818-.061 1.324-.016 2.359.511 2.958 1.714.604 1.211.337 2.361-.429 3.407-1.128 1.54-2.691 2.637-4.182 3.752-4.599 3.44-6.61 8.083-6.931 13.688-.361 6.303-.431 12.608-.42 18.916.018 10.004-.196 20.015.12 30.009.261 8.234.054 16.505 1.418 24.697.689 4.139 2.145 7.57 5.977 9.699 1.106.614 2.092 1.459 3.085 2.257 1.049.843 1.356 1.98.981 3.259-.395 1.347-1.446 1.969-2.743 1.957-1.739-.016-3.477-.221-5.214-.365-11.534-.958-23.05-1.104-34.525.733a10.13 10.13 0 0 1-1.604.123c-1.337 0-2.617-.279-3.228-1.607-.651-1.416-.346-2.831.726-3.913a34.643 34.643 0 0 1 3.792-3.294c6.601-4.96 9.117-11.726 9.397-19.779.348-9.992.681-19.981.825-29.979.116-8.049.482-16.094.665-24.142.107-4.699-.349-9.377-.697-14.062-.322-4.343-2.256-7.492-6.071-9.531-.414-.221-.808-.479-1.214-.716-1.397-.815-1.901-2.061-1.586-3.594.336-1.638 1.55-2.329 3.095-2.349 3.827-.048 7.654-.014 12.212-.014zM242.61 26.636c.048 5.822-5.413 12.016-10.625 12.052-6.977.048-13.326-5.314-13.415-11.331-.1-6.71 5.477-12.37 12.208-12.389 6.206-.019 11.781 5.479 11.832 11.668zM247.044 317.318c.17-9.796.292-19.592 1.641-29.322.194-1.401.504-2.773 1.114-4.063.492-1.039 1.206-1.823 2.436-1.801 1.316.024 2.112.879 2.484 2.025.412 1.27.745 2.587.923 3.909.88 6.526 1.213 13.093 1.225 19.673.003 1.635.449 2.229 2.109 1.721 1.214-.371 2.471-.673 3.73-.816 1.869-.211 2.529-1.053 2.6-3.007.279-7.641.773-15.275 1.897-22.85.147-.992.387-1.976.658-2.943.227-.81.673-1.509 1.63-1.551.945-.041 1.461.601 1.806 1.369 1.121 2.495 1.365 5.195 1.631 7.856.868 8.686 1.136 17.408 1.172 26.129.014 3.409-.459 6.821-.733 10.229-.043.531-.179 1.059-.314 1.578-.592 2.274-2.006 3.548-3.831 3.473-1.806-.074-3.081-1.453-3.551-3.789-.628-3.124-.418-6.288-.466-9.439-.044-2.901-.026-2.901-2.694-2.031-.511.166-1.021.337-1.537.483-3.732 1.061-3.728 1.059-3.736 5.033-.006 3.154.081 6.309-.409 9.446-.535 3.422-2.218 5.447-4.648 5.469-2.451.023-4.216-1.881-4.785-5.32-.629-3.8-.177-7.641-.352-11.461zM221.764 321.148c.488-8.214.138-15.204.718-22.166.178-2.138.253-4.285.421-6.425.102-1.3-.291-1.724-1.712-1.65-3.348.176-6.71.12-10.066.127-1.353.003-2.502-.505-3.273-1.661-1.237-1.854-.197-4.115 2.258-4.719 2.615-.644 5.314-.823 7.989-.892 4.156-.107 20.71.135 22.068.57 1.051.337 2.148.719 2.159 2.047.011 1.346-.81 2.271-2.016 2.75-1.449.575-2.999.688-4.549.742-5.154.181-5.109.184-5.112 5.278-.009 13.495.698 26.98.508 40.477-.017 1.206.047 2.415-.415 3.577-.761 1.913-2.247 2.887-4.206 2.891-1.974.004-3.433-1.018-4.149-2.936-.354-.949-.618-1.923-.619-2.942-.008-5.439-.004-10.878-.004-15.068zM281.351 302.019c-.016-7.236.11-13.727 1.468-20.137.744-3.51 2.787-5.549 6.328-6.065a612.9 612.9 0 0 1 9.556-1.329c1.027-.133 2.121-.089 2.521 1.113.42 1.262-.376 2.021-1.385 2.576-2.384 1.313-5.063 1.753-7.638 2.472-1.708.478-2.444 1.318-2.302 3.126.231 2.938.342 5.887.425 8.833.038 1.34.596 1.38 1.658.998 1.447-.521 2.919-1.027 4.423-1.318 1.291-.25 2.651-.074 3.159 1.444.511 1.528-.436 2.469-1.684 3.001-1.846.787-3.749 1.449-5.653 2.09-1.007.339-1.596.843-1.59 1.993.012 2.479.06 4.961-.243 7.434-.183 1.496.559 1.73 1.824 1.259 2.01-.748 4.023-1.498 6.069-2.141 1.641-.516 3.254-.468 4.229 1.251.761 1.342.101 3.164-1.59 4.323-3.23 2.214-6.719 3.944-10.512 4.941-4.58 1.204-7.594-.74-8.599-5.361-.808-3.718-.314-7.488-.464-10.503zM195.563 320.712a7.856 7.856 0 0 1 7.695-7.942c3.979-.085 7.434 2.949 7.526 6.608.108 4.312-3.641 8.58-7.628 8.682-3.905.099-7.556-3.434-7.593-7.348zM309.923 291.908c.024-3.693 3.011-6.625 6.666-6.546 3.363.073 6.132 2.737 6.154 5.922.029 4.064-2.911 7.385-6.452 7.29-3.598-.097-6.392-3.021-6.368-6.666z" fill="#e2e8f0" opacity="1" data-original="#e2e8f0" class=""></path></g></svg>