<svg xmlns="http://www.w3.org/2000/svg" version="1.1" xmlns:xlink="http://www.w3.org/1999/xlink" width="512" height="512" x="0" y="0" viewBox="0 0 135.467 135.467" style="enable-background:new 0 0 512 512" xml:space="preserve" class=""><g><path fill="#ffffff" d="M104.42 5.873c-2.618.011-2.875.543-3.902.982-.666.284-1.317.615-1.979.998-.494.04-1.04.134-1.68.38-.795.306-1.521.876-2.107 1.502-3.54.132-4.537 1.562-5.985 2.805-.134.115-.256.247-.387.365-.16-.019-.316-.062-.479-.066-2.394-.057-3.985 1.26-4.808 2.29-.297.373-.518.74-.708 1.105-1.909-.202-2.105.354-2.503.526-.46.2-.76.37-1.063.551-.605.36-1.168.752-1.757 1.21-.815.12-1.785.384-2.575.934-1.435.998-1.874 1.851-2.098 2.453-.097.095-.169.173-.284.274-.148.128-.236.191-.317.252-.806.336-1.547.816-2.067 1.381-.097.105-.162.212-.247.318-2.387.6-4.156 2.187-5.458 4.022a5.942 5.942 0 0 0-3.057 1.292c-1.364 1.132-1.745 1.834-1.864 2.35-.25-.062-.513-.153-.742-.173-2.48-.218-3.787.604-4.992 1.359s-2.236 1.688-3.186 2.818c-1.917 2.278-3.648 4.969-5.04 7.511-2.594-2.33-5.868-3.856-9.185-4.024-.515-.026-.968-.049-1.485-.048-1.54.002-3.649.669-4.822 1.246-2.646 1.303-5.029 3.854-6.28 6.562-.433.936-.77 1.893-1.028 2.864-1.059-.262-2.13-.337-3.115-.36-1.677-.04-3.408.226-5.166 1.052-2.941 1.381-4.876 3.417-6.294 6.215-3.068 6.054-2.493 13.26.08 19.87 2.141 5.503 5.68 10.214 10.758 12.695 1.694.828 4.13 1.37 6.466 1.368 1.127-.003 1.996.011 3.143-.192.737-.13 1.423-.381 2.04-.643.402.301.826.602 1.355.925.936.57 1.862.891 2.798 1.063-.352.19-.644.39-.859.55a5.693 5.693 0 0 0-.763.671c-.687.099-1.202.267-1.58.477-.041-.025-.087-.069-.127-.09-1.939-1.078-2.525-.743-3.06-.744h-.016c-.617 0-1.09.041-1.726.095-1.197.101-1.828-.169-3.953.901-.508.256-1.247.866-1.89 1.683l-2.64.105c-1.37.055-2.849.312-4.389 1.124-2.198 1.16-3.497 2.666-4.631 4.326-.688 1.007-1.316 2.04-1.731 3.321-.949.699-1.783 1.486-2.543 2.684-.827 1.304-1.53 3.82-1.53 5.371 0 1.466.211 2.843.818 4.277a8.63 8.63 0 0 0 1.24 2.097c.283 2.07 1.015 3.819 2.18 5.653.98 1.543 2.866 3.208 4.575 4.145 2.728 1.496 3.66.971 5.019.878 1.359-.092 2.57-.183 4.36-1.088.083-.041.126-.077.202-.116.579.215 1.141.391 1.627.456.654.088 1.653.222 3.005-.147.103-.028.195-.076.295-.11 2.078.536 4.231.468 6.232-.219 2.683-.92 5.234-3.21 6.079-6.383.03-.115.085-.29.121-.392.781-1.391 1.376-2.916 1.69-4.496.578-.313.945-.681 1.194-.918.504-.478.685-.772.834-1.001.3-.458.388-.677.48-.88.186-.409.283-.687.392-.996.216-.619.42-1.286.615-1.974.073-.26.126-.502.194-.758a9.116 9.116 0 0 0 1.768-.5c1.619-.659 2.984-1.617 4.437-2.74 2.648 2.122 5.845 3.43 9.238 3.432 2.107.003 4.072-.408 5.945-1.107.028.348.03.728.075 1.068.227 1.707.976 3.794 2.271 5.18.706.755 1.825 1.685 3.473 2.081 1.649.397 3.466 0 4.608-.587 2.282-1.173 3.076-2.484 4.208-4.02 2.132-2.894 4.537-7.397 6.83-12.023 1.145-2.313 2.5-4.496 3.061-6.593 1.003-3.74 3.243-6.071 4.77-7.632 9.962-10.184 20.491-23.087 27.946-34.268 5.51-8.265 9.142-14.609 9.734-20.792.148-1.552-.326-4.289-.997-5.584-.696-1.343-2.185-3.165-4.056-4.036-1.87-.87-3.444-.944-5.11-1.011a22.817 22.817 0 0 0-.888-.018c-1.782-.003-3.663.215-5.589.539-.23-1.784-1.26-3.029-1.888-3.548-.705-.583-1.138-.74-1.462-.871-.65-.264-.93-.298-1.198-.35-.254-.05-.422-.056-.621-.08.22-.592.42-1.189.572-1.827.46-1.935.003-5.362-1.79-7.155-1.639-1.639-2.366-2.109-5.03-2.092zM54.71 34.127c.008.014-.015.052-.068.093-.136.104-.194.183-.316.282.238-.321.37-.402.385-.375z" opacity="1" data-original="#ffffff" class=""></path><g stroke-width=".24"><path d="M34.11 44.632c-.965.001-1.354.156-2.438.689-1.803.888-2.833 1.978-3.755 3.974-2.168 4.691-.918 11.758 3.144 17.774 1.205 1.786 2.478 3.69 4.549 4.898 1.282-.944 2.24-3.264 2.24-3.264l.015-.088-.02.004c-.247-.014-2.918-3.841-3.844-5.51-3.068-5.533-3.132-12.106-.129-13.36 3.194-1.335 6.65 3.466 8.09 11.237.326 1.761.762 3.679.968 4.26.201.568.339 1.932.313 1.975l4.006-1.025.09-2.664c.143-4.246-1.918-10.914-4.648-14.547-2.227-2.962-4.267-4.154-7.379-4.312a24.378 24.378 0 0 0-1.203-.041zm-15.381 10.31c-.928-.022-1.902.148-2.735.54-1.451.681-2.978 2.206-3.765 3.76-1.888 3.726-1.765 10.162.295 15.456 1.708 4.388 4.876 8.223 8.09 9.794 1.57.767 1.829.82 4.08.817 2.135-.003 2.54-.074 3.618-.641.668-.351 1.56-.962 1.984-1.358l.77-.72.361.698c.506.978 1.78 2.383 2.632 2.902.97.592 2.388.574 3-.039.927-.926.66-1.977-1.647-6.506-1.17-2.296-2.845-6.011-3.721-8.256-2.568-6.576-3.513-7.81-6.117-7.985-1.181-.08-1.5.001-2.465.622-2.043 1.313-3.3 4.875-2.132 6.043.717.717 1.27.593 2.668-.601.726-.62 1.356-.991 1.477-.87.175.174 2.89 7.252 3.408 8.886.131.415-.091.658-1.335 1.462-1.785 1.154-3.037 1.268-4.717.43-1.355-.678-3.393-2.867-4.475-4.809-2.424-4.35-3.131-10.351-1.58-13.393.78-1.526 2.29-2.455 4.847-2.978.882-.18 1.234-.875.86-1.694-.435-.956-1.855-1.524-3.401-1.56zM53.145 57.115c-.147-.276-.333-1.416-.412-2.535-.12-1.701-.198-1.988-.478-1.755-.615.51-.833-.107-.435-1.234.202-.574.478-1.175.612-1.337.134-.162.302-1.576.373-3.141.12-2.663.104-2.816-.264-2.367-.604.736-2.954 4.572-3.537 5.772-.523 1.077-1.202 1.408-1.467.717-.502-1.309 3.098-8.021 6.42-11.973 1.65-1.962 3.678-2.859 4.212-1.862.202.378.1.565-.605 1.102-.466.356-1.43 1.353-2.142 2.216-1.128 1.367-1.25 1.613-.947 1.915.246.247.347.922.347 2.333v1.986l.97-.923c.927-.882 1.517-1.133 1.749-.743.059.099-.583 1.151-1.426 2.338l-1.533 2.159-.029 2.282c-.045 3.732-.268 5.386-.735 5.475-.223.042-.525-.15-.673-.425zm7.968-4.874c-.966-1.028-1.36-3.263-1.366-7.735-.005-3.229.083-4.366.418-5.446.475-1.535.97-2.165 1.531-1.95.296.115.348.364.237 1.13-.532 3.645-.333 10.86.317 11.51.493.493 1.049-4.426 1.344-11.897.11-2.769.253-4.09.462-4.263.486-.403.845.257 1.129 2.075.31 1.986.11 11.234-.277 12.801-.616 2.494-.767 2.893-1.353 3.59-.752.894-1.708.966-2.442.185zm6.549-3.383c-.547-.834-.9-7.694-.644-12.53.2-3.79.217-3.878.961-4.96 1.897-2.756 4.612-2.832 5.335-.148.438 1.627-.129 4-2.098 8.785-.088.213.18.3.922.302.575 0 1.44.11 1.92.244.873.242 1.598.842 1.336 1.105-.077.077-1.55.31-3.275.52l-3.136.38v3.147c0 2.128-.093 3.24-.288 3.435-.414.415-.613.361-1.033-.28zm3.245-13.604c.598-1.773.83-3.577.52-4.033-.182-.268-.336-.262-.912.038-.38.198-.926.613-1.213.922-.501.54-.516.702-.379 4.044l.143 3.48.666-1.47c.367-.81.895-2.15 1.175-2.981zm7.495 6.911c-1.144-1.221-1.686-4.063-1.895-9.933l-.155-4.353-.984.447c-1.204.547-1.449.559-1.917.09-.382-.382-.281-1.072.157-1.072.572 0 2.88-2.016 3.21-2.803.303-.726.43-.814.997-.693.526.111.945-.092 2.203-1.071.854-.665 1.717-1.178 1.917-1.139 1.114.215.029 2.012-2.298 3.807l-1.363 1.051.15 3.844c.183 4.703.752 9.672 1.24 10.842.274.654.297.951.093 1.197-.387.466-.775.405-1.355-.214zm3.938-4.305c-.54-.844-.832-2.202-1.121-5.236-.258-2.697-.138-6.1.236-6.705.103-.167.39-.265.639-.217.38.071.49.429.691 2.263l.24 2.179 1.181-1.406c.65-.773 1.433-1.469 1.74-1.546.555-.14.56-.173.56-3.685 0-1.95.069-3.891.154-4.315.158-.792.676-1.198 1.048-.822.115.117.384 2.498.599 5.291.214 2.793.578 6.442.81 8.109.364 2.62.374 3.068.077 3.314-.778.646-1.725-1.567-2.237-5.23l-.28-2-.959 1.485c-.527.817-1.332 1.917-1.787 2.445l-.83.96.083 2.738c.086 2.882-.13 3.49-.844 2.378zm9.807-5.561c-.715-1.091-1.67-8.243-1.542-11.556.03-.792-.026-1.626-.124-1.852-.431-.99 2.83-3.79 4.414-3.79.891 0 .518.696-1.063 1.98-1.724 1.398-1.73 1.418-1.412 4.458l.153 1.466 1.107-.98c1.176-1.041 2.098-1.571 2.33-1.34.321.322-.28 1.273-1.757 2.78l-1.568 1.598.293 2.302c.161 1.266.369 2.425.461 2.575.099.159.653-.566 1.332-1.741 1.578-2.731 2.484-3.683 2.886-3.032.29.468-2.333 6.32-3.237 7.224-.664.664-1.808.618-2.273-.092zm7.613-4.295c-.332-.406-.689-1.854-.99-4.02-.366-2.639-.783-9.938-.596-10.426.115-.3.339-.385.782-.3.387.073.864-.055 1.265-.34 1.055-.752 3.16-1.652 3.867-1.654.363-.003.889.226 1.168.505.908.909.543 2.448-1.548 6.511-1.74 3.383-1.796 3.544-1.29 3.663.291.068 2.15.15 4.13.182 2.202.035 3.6.151 3.6.298 0 .51-1.84 1.098-4.302 1.374-2.19.244-2.78.233-3.98-.08l-1.407-.366.14 2.476c.12 2.123.089 2.477-.226 2.477a.908.908 0 0 1-.613-.3zm2.008-9.93c1.78-3.319 2.393-4.892 1.904-4.892-.265 0-2.83 1.116-3.692 1.605-.108.061.23 5.836.341 5.836.044 0 .696-1.147 1.447-2.549z" fill="#000000" opacity="1" data-original="#000000" class=""></path><path d="M121.057 26.648c-7.124-.008-18.285 4.099-29.013 10.71C84.025 42.3 75.63 48.662 63.972 58.633c-5.574 4.767-5.62 4.8-6.841 4.868-.676.038-2.85.402-4.83.81-1.98.407-3.927.8-4.326.872 0 0-8.56 1.218-13.685 6.344-.239.461-.325.996-.23 1.427.291 1.328 2.575 2.916 6.101 4.243.858.323 1.646.641 1.753.707.107.066-.562.941-1.487 1.945-1.144 1.242-1.73 2.087-1.835 2.645-.497 2.646 1.096 6.281 3.82 8.718l.96.86-.816.598c-1.689 1.235-3.937 2.779-5.147 3.553-.477.304-2.029 1.438-2.029 2.65 0 1.021 1.362 3.543 2.526 4.675.75.729 1.508 1.196 2.34 1.444 2.244.666 3.808.03 7.703-3.132 1.414-1.148 2.598-2.047 2.63-1.997 2.279 3.48 5.227 5.29 8.618 5.292 2.367.003 5.82-1.308 8.586-3.257a32.646 32.646 0 0 1 1.929-1.255l.848-.493-.097 4.521c-.105 4.874.099 6.402.98 7.344 1.027 1.1 2.04.578 3.968-2.04 3.173-4.307 10.132-18.35 10.783-21.76.105-.548 1.252-1.878 4.368-5.064 9.692-9.908 20.1-22.668 27.31-33.485 5.3-7.948 8.49-14.548 8.85-18.302.122-1.276.06-1.661-.414-2.575-.824-1.59-1.734-2.013-4.573-2.127a17.292 17.292 0 0 0-.678-.014zm-.186 1.784c2.235-.007 2.648.056 3.24.496.57.423.692.705.753 1.754.13 2.215-1.436 6.298-4.378 11.423-.887 1.545-2.13 3.621-2.764 4.613l-1.15 1.803-.176-1.647c-.593-5.577-4.191-10.753-9.58-13.779l-1.412-.793 1.773-.688c4.968-1.93 10.308-3.17 13.694-3.182zm-9.642 3.73c-.105 0-.211.09-.393.272-.216.216-.328.563-.248.772.08.208.369.378.641.378.658 0 .884-.66.393-1.15-.182-.182-.288-.273-.393-.273zm-7.446.873 1.95 1.175c1.072.646 2.636 1.803 3.477 2.57l1.527 1.397-1.854 1.252-1.855 1.252-.898-.75c-1.05-.876-2.32-1.306-3.857-1.306-1.446 0-4.424 1.524-5.999 3.07-2.205 2.164-3.3 5.485-2.814 8.53l.244 1.525-1.559 1.559c-1.826 1.825-1.926 2.32-.926 4.549l.633 1.41-.633.9c-.348.495-1.2 1.494-1.89 2.22l-1.257 1.32-.14-1.68c-.247-2.992-1.743-4.68-4.142-4.68-.974 0-3.42 1.152-4.546 2.14-1.647 1.446-2.075 4.192-.952 6.104l.445.757-1.795 1.68a84.889 84.889 0 0 1-3.976 3.435c-3.763 3.025-3.924 3.455-2.062 5.492.66.722 1.2 1.453 1.2 1.625 0 .172-.351.588-.78.925S70 80.638 69.339 81.274a65.523 65.523 0 0 0-2.561 2.65l-1.356 1.492-1.385-1.431c-1.92-1.985-3.927-4.722-5.35-7.297-1.27-2.296-3.637-7.627-3.609-8.126.036-.64 17.954-15.627 25.067-20.967 7.961-5.977 16.799-11.54 21.948-13.814zm10.51 2.282c-.19-.013-.404.065-.595.256-.21.21-.308.55-.223.77.228.593 1.217.367 1.311-.3.061-.43-.18-.705-.494-.726zm2.038 3.088c-.094.006-.211.052-.402.126-.377.144-.525 1.069-.22 1.374.32.319 1.03.15 1.272-.303.187-.35.155-.556-.129-.84-.269-.27-.363-.368-.52-.357zm-4.572 1.09.457.586c.732.936 1.881 3.377 2.259 4.796.196.736.348 2.391.351 3.781l.004 2.472-2.312 3.169C102.464 68.074 90.41 81.65 80.865 89.948c-1.848 1.607-3.522 2.912-3.72 2.902-.606-.032-1.502-.357-2.792-1.012-1.385-.704-5.785-3.635-7.014-4.675l-.805-.68 1.92-2.284c1.057-1.256 2.445-2.745 3.085-3.307 1.996-1.753 2.056-2.235.532-4.244-.51-.672-.927-1.34-.927-1.482 0-.143 1.107-1.115 2.46-2.16 1.353-1.045 3.325-2.71 4.381-3.7l1.92-1.802.702.428c1.855 1.133 4.011.758 5.709-.994.621-.641 1.439-1.327 1.818-1.522.751-.39 3.283-3.002 4.395-4.536.852-1.176.87-1.833.096-3.497-.33-.706-.598-1.412-.598-1.569 0-.157.527-.805 1.172-1.44l1.174-1.155 1.033 1.12c1.539 1.67 2.822 2.332 4.792 2.473 1.45.104 1.82.039 2.972-.525 3.94-1.928 6.343-8.019 5.076-12.869-.343-1.312-.343-1.313.3-1.835.354-.287 1.221-.874 1.928-1.304zm-9.128 1.066c1.003.03 1.862.37 2.56 1.02 3.376 3.144 1.114 12.146-3.388 13.483-.673.2-1.284.352-1.359.339-4.713-.849-6.877-5.783-4.58-10.446.905-1.84 2.399-3.236 4.172-3.9.947-.354 1.814-.519 2.595-.496zm14.667 1.222c-.214.018-.443.192-.503.505-.055.288.074.418.417.418.344 0 .498-.155.498-.498 0-.308-.199-.444-.412-.425zm-17.585.896c-.314.005-.876.283-1.253.686-1.195 1.277-1.507 2.188-1.51 4.381-.003 1.802.075 2.174.666 3.177.367.626.96 1.296 1.32 1.49.788.429.939.446 1.135.129.083-.135-.126-.574-.464-.976-.846-1.006-1.433-3.13-1.247-4.516.082-.607.472-1.765.868-2.574.396-.808.72-1.537.72-1.62 0-.125-.092-.18-.235-.177zm-15.9 16.617c.61-.006.891.11 1.304.437.678.538 1.144 1.77 1.148 3.028.002 1.05-1.066 3.045-1.89 3.532-2.906 1.716-6.206-2.221-4.363-5.204.749-1.212 1.436-1.604 3.065-1.749.293-.026.533-.042.737-.044zm-2.012 1.845c-.133 0-.307.114-.528.335-.357.357-.378 2.216-.032 2.863.48.895.822.347.895-1.43.05-1.21-.043-1.767-.335-1.768zm20.352 1.247c-.67 0-1.25.573-3.926 3.88-3.67 4.538-5.938 6.946-8.827 9.376-2.742 2.306-4.843 3.711-7.035 4.703-.891.404-1.62.863-1.62 1.022 0 .562 2.447.031 4.44-.963 4.8-2.392 9.924-7.352 14.875-14.398 2.22-3.16 2.486-3.62 2.093-3.62zM55.606 65.57c.129.043-1.048 1.204-2.615 2.58a803.177 803.177 0 0 0-6.128 5.45c-1.802 1.623-3.423 2.947-3.6 2.942-.543-.014-5.381-2.047-6.115-2.57-.379-.27-.878-.7-1.109-.955-.401-.444-.396-.486.12-.95 1.771-1.593 5.007-3.19 8.37-4.13 2.404-.674 10.786-2.464 11.077-2.367zm2.873 3.639a.662.662 0 0 0-.433.153c-.365.303-.459.993-.173 1.278.374.374 1.389.031 1.464-.495.072-.509-.4-.935-.858-.936zm-4.848.684c.077-.004.12.032.144.1 1.272 3.666 3.679 8.445 5.68 11.276 1.955 2.769 5.963 6.762 8.809 8.778 1.254.888 3.429 2.203 4.833 2.922l2.552 1.306-.632.594c-2.094 1.967-6.258 4.758-9.654 6.47-3.93 1.982-5.354 2.378-7.44 2.069-1.928-.286-4.219-1.716-5.699-3.557l-.722-.899 1.84-1.903c4.017-4.157 7.24-9.384 7.24-11.741 0-1.14-.805-1.666-2.191-1.432-1.344.227-6.274 2.723-10.378 5.256l-3.329 2.053-1.649-1.649c-2.067-2.067-3.095-4.076-3.095-6.051-.195-.876.293-1.75 1.32-2.626l1.625-1.575c1.62-1.57 4.699-4.4 6.842-6.29 2.614-2.306 3.57-3.084 3.904-3.101zm7.671 4.857c-.198 0-.394.243-.436.54-.06.415.041.54.436.54.396 0 .496-.125.437-.54-.042-.297-.239-.54-.437-.54zm21.019 2.28c-1.106 0-2.056.386-2.056.834 0 .45 1.36.502 2.27.088.896-.409.777-.922-.214-.922zm-16.305 2.506a.815.815 0 0 0-.544.16c-.342.284-.448 1.216-.169 1.495.252.252 1.235.186 1.409-.094.244-.396-.082-1.357-.517-1.524a.607.607 0 0 0-.179-.037zM43.93 81.674a.05.05 0 0 0-.027 0c-.362.127-.25 1.83.188 2.857.224.523.551.9.783.9.219 0 .35-.135.291-.3a61.81 61.81 0 0 1-.563-1.922c-.235-.836-.527-1.495-.672-1.536zm2.85.637c-.387 0-.444.22-.214.819.187.489.575.25.575-.353 0-.256-.163-.466-.36-.466zm24.27 2.881c-.291-.038-.627.125-.627.439 0 .242.072.512.16.6.462.462 1.096-.08.866-.74-.063-.18-.223-.275-.398-.299zm-12.456.403c.201-.014.308.038.308.159 0 .584-1.493 3.393-2.873 5.408-1.868 2.728-4.331 5.358-7.67 8.191-1.478 1.254-2.8 2.32-2.937 2.368-.4.141-3.62-3.33-4.344-4.684l-.661-1.235 3.963-2.544c6.753-4.337 12.806-7.572 14.214-7.663zm17.55 2.991a.965.965 0 0 0-.703.353c-.275.332-.243.451.223.828.59.478 1.12.405 1.346-.184.227-.591-.309-1.025-.866-.997zm7.433 1.6c.285 0-.136.957-1.087 3.166-1.995 4.634-5.77 11.76-7.744 14.615-1.427 2.064-2.066 2.777-2.24 2.495-.408-.66-.661-4.016-.512-6.789.263-4.892-.02-4.355 3.83-7.259 1.849-1.394 4.425-3.474 5.725-4.623 1.158-1.023 1.807-1.604 2.028-1.605zm-44.161 6.462c.1.012.15.096.198.24.7 2.077 2.305 4.194 3.782 4.989.475.256.864.554.864.663 0 .109-.35.34-.78.514-1.214.492-1.917.582-2.731.353-1.49-.42-3.696-3.288-3.685-4.79.003-.434.312-.786 1.205-1.37.673-.44.98-.62 1.147-.6zM27.632 98.16c-.277 0-.686.026-1.27.075-2.073.175-2.52.4-2.012 1.013.561.675 3.502.027 3.783-.834.057-.175-.04-.253-.501-.254zm5.904.262c-.26-.005-.701.33-1.684 1.19-1.8 1.578-4.22 3.182-5.99 3.973-1.706.762-5.313 2.007-5.83 2.012-.57.005-1.057.39-.872.689.473.764 5.395-.185 8.132-1.57 3.46-1.75 7.103-5.152 6.523-6.091-.079-.127-.16-.2-.279-.203zm-15.897 2.518c-.755.03-1.482.188-2.079.503-1.908 1.006-3.936 3.975-3.942 5.77-.002.429-.12.78-.266.78-.75 0-2.03.914-2.649 1.89-.552.87-.688 1.357-.688 2.47 0 1.657.584 3.038 1.369 3.235.466.117.552.294.552 1.149 0 1.393.624 3.4 1.474 4.739.672 1.059 1.209 1.532 2.606 2.298.785.43 3.225.264 4.332-.295.456-.23 1.13-.7 1.498-1.045.476-.445.76-.558.986-.392 1.26.924 1.676 1.13 2.508 1.243.755.1 1.046.021 1.468-.4.506-.507.56-.512 1.349-.137 2.87 1.361 6.15.236 6.838-2.346.148-.554.365-1.17.484-1.368 1.421-2.378 1.785-4.495 1.087-6.324-.469-1.226-1.406-2.197-1.929-1.997-.313.12-.28.324.226 1.41.597 1.284.76 2.913.446 4.481-.193.964-.356.945-.922-.107-.452-.839-1.24-1.472-1.503-1.209-.073.073.045.764.261 1.536.894 3.186.287 4.6-2.059 4.795-1.623.135-2.838-.237-3.941-1.205-.644-.566-.897-.666-1.118-.445-.222.222-.19.455.142 1.034.635 1.106.204 1.34-1.187.645-.777-.389-1.38-.936-1.875-1.7-.987-1.524-1.44-1.52-1.26.012.137 1.15.128 1.17-.781 1.682-1.238.695-3.097 1.03-4.132.744-1.054-.29-2.19-1.474-2.874-2.991-.413-.917-.563-1.78-.639-3.66-.055-1.354-.19-2.46-.299-2.46-.318 0-.946 1.022-.946 1.54 0 .342-.074.402-.26.215-.144-.143-.315-.894-.381-1.668-.153-1.786.573-3.32 1.915-4.048.561-.305.885-.656.888-.96.006-.918 1.184-3.01 2.358-4.183 1.892-1.892 3.928-2.16 6.403-.845 1.347.716 1.318.715 1.318.029 0-1.444-2.514-2.505-4.778-2.415zm19.164 4.412c-.518.006-1.383.325-2.317.9-1.82 1.122-2.652 1.865-4.636 4.142-2.056 2.36-3.112 3.918-3.112 4.593 0 .435.748-.191 3.66-3.065 2.014-1.986 4.39-4.125 5.281-4.751.891-.627 1.62-1.293 1.62-1.48 0-.233-.185-.342-.496-.339zm1.908 1.674c-.3-.015-.75.382-1.06.982-.428.829-.741 3.089-.511 3.69.08.206.233.376.34.376.239 0 1.596-4.784 1.411-4.97a.266.266 0 0 0-.18-.078zm-21.65 1.3c-.677.032-1.365 1.168-1.365 2.508 0 1.195 1.213 3.057 2.397 3.68 1.517.798 2.175.342.97-.673-1.412-1.187-2.24-3.532-1.596-4.515.309-.472.317-.614.051-.835a.656.656 0 0 0-.458-.165z" fill="#000000" opacity="1" data-original="#000000" class=""></path></g></g></svg>