<svg xmlns="http://www.w3.org/2000/svg" version="1.1" xmlns:xlink="http://www.w3.org/1999/xlink" width="512" height="512" x="0" y="0" viewBox="0 0 512 512" style="enable-background:new 0 0 512 512" xml:space="preserve" class=""><g><path fill="#ffffff" d="M495.65 254.344c-4.868-17.33-20.819-29.369-39.052-29.369-4.265 0-8.486.677-12.501 1.988-9.932-3.784-21.434-3.553-31.577 1.28-5.41-1.497-11.28-2.043-16.756-1.806a80.167 80.167 0 0 0-3.26-5.634c8.421-3.519 15.537-10.257 19.221-17.485 1.297-.136 2.563-.293 3.78-.452 7.396-.943 29.878-3.808 40-23.467 6.026-11.674 5.67-25.159-.964-36.107-4.158-6.861-14.36-18.372-35.959-18.372-2.528 0-5.165.14-7.868.412-6.842.65-9.896 1.485-10.797 1.73l-.106.03c-17.586-20.8-52.32-18.858-66.622 12.382-4.882-17.42-22.128-29.76-44.847-27.157l-1.776.205c-.819.097-1.766.208-2.713.306-.329.036-.653.073-.975.113-13.626-6.226-28.769-2.722-38.546 5.333-5.504-1.34-11.518-1.376-16.792-.314a37.983 37.983 0 0 0-23.692-1.885c-10.886-7.787-24.49-8.865-35.894-4.032-16.107-4.421-34.862 2.28-43.207 19.918-30.752-.825-48.012 17.822-47.78 40.095C11.166 196.01-12.048 314.62 55.277 342.348l-.041 2.132 12.044 12.04c7.67 7.672 17.69 11.894 28.214 11.894 10.477 0 20.432-4.183 28.038-11.786 6.318-6.317 9.174-12.78 10.586-18.674 7.084-.922 13.915-3.448 20.164-7.475 11.386 3.903 23.01 3.45 33.853-.442 11.588 7.123 26.21 8.646 40.304 2.712 20.078 7.916 37.935 1.727 48.298-10.75 6.403 9.008 16.348 15.262 27.745 16.642.97.61 1.957 1.181 2.957 1.713 9.521 5.065 16.55 5.467 24.748 5.467 7.408 0 13.524-.572 20.99-3.374a70.875 70.875 0 0 0 8.401-3.762 53.262 53.262 0 0 0-.168 4.187c0 8.851 2.493 19.435 6.513 27.664 5.394 11.128 14.858 20.503 26.661 26.405l.348.172c9.122 4.434 14.709 5.336 23.774 5.68a99.64 99.64 0 0 0 3.775.075c10.82 0 19.659-2.092 29.4-6.922 15.54-7.603 35.604-23.99 42.954-58.907 1.725-8.232 1.842-13.72 2.174-41.438.452-34.427.108-36.251-1.358-41.257z" opacity="1" data-original="#ffffff"></path><path fill="#cccccc" d="M418.99 395.293c-1.866-.074-4.1.238-4.008-1.282.085-1.44 1.734-.948 4.089-.863 2.768.106 4.481-.3 4.481 1.141 0 .593-2.139 1.095-4.562 1.004zm6.772-1.07c-.108-1.645 1.432-.833 7.254-1.915 1.393-.267 1.787 1.851.392 2.107-2.112.394-4.24.658-6.505.806a1.073 1.073 0 0 1-1.141-.999zm-16.294.146c-2.139-.417-4.155-1.001-6.345-1.843a1.074 1.074 0 0 1-.617-1.387c.62-1.611 1.71.027 7.37 1.123a1.073 1.073 0 0 1-.408 2.107zm28.956-2.252c-.485-1.524 1.07-1.141 6.588-3.604 1.295-.579 2.17 1.383.874 1.96a58.466 58.466 0 0 1-6.115 2.342 1.073 1.073 0 0 1-1.347-.698zm-41.27-2.289a54.846 54.846 0 0 1-5.63-3.366 1.073 1.073 0 0 1-.28-1.491c.909-1.331 1.527.167 6.898 2.953a1.072 1.072 0 1 1-.988 1.904zm53.114-2.683c-.762-1.368.724-1.302 5.792-4.798 1.164-.812 2.388.96 1.219 1.763a67.478 67.478 0 0 1-5.553 3.452 1.075 1.075 0 0 1-1.458-.417zm-63.928-4.71a51.404 51.404 0 0 1-4.64-4.646 1.074 1.074 0 0 1 .098-1.514c1.23-1.075 1.468.593 5.96 4.551a1.071 1.071 0 1 1-1.418 1.609zm74.617-2.426c-1.016-1.203.479-1.426 4.75-5.827.988-1.019 2.527.477 1.539 1.496a66.738 66.738 0 0 1-4.778 4.459 1.071 1.071 0 0 1-1.51-.128zm-83.252-7.442c-1.373-2.072-2.3-3.8-3.233-5.73-.612-1.28 1.323-2.206 1.935-.926.872 1.813 1.78 3.5 3.086 5.47a1.073 1.073 0 0 1-1.788 1.186zm92.356-1.62c-1.216-.977.162-1.476 3.56-6.628.78-1.184 2.571-.002 1.79 1.182a70.658 70.658 0 0 1-3.842 5.278c-.37.46-1.04.538-1.508.167zm-98.023-10.207a64.007 64.007 0 0 1-1.744-6.309 1.073 1.073 0 0 1 .814-1.28c1.56-.328 1.036 1.12 2.965 6.91a1.074 1.074 0 0 1-.679 1.357 1.074 1.074 0 0 1-1.356-.678zm-276.275-.888c-.076-1.738 1.706-.614 7.147-2.044 1.353-.376 1.931 1.708.545 2.073a31.445 31.445 0 0 1-6.574.997c-.803.036-1.103-.674-1.118-1.026zm-5.518.616a31.624 31.624 0 0 1-6.4-1.795 1.073 1.073 0 0 1-.6-1.393c.644-1.631 1.766.126 7.358 1.072a1.072 1.072 0 0 1-.358 2.116zm387.062-.134c-1.37-.738-.118-1.532 2.352-7.151.57-1.3 2.535-.437 1.964.863a79.876 79.876 0 0 1-2.863 5.856c-.28.517-.93.716-1.453.432zm-369.076-3.278c-.783-1.554 1.186-1.21 5.705-4.786 1.116-.877 2.442.802 1.33 1.684a33.07 33.07 0 0 1-5.595 3.575 1.072 1.072 0 0 1-1.44-.473zM77.958 355.6a34.196 34.196 0 0 1-5.155-4.174 1.072 1.072 0 0 1-.012-1.517c1.216-1.231 1.59.77 6.346 3.898.495.327.632.99.307 1.487a1.075 1.075 0 0 1-1.486.306zm40.576-6.126c-1.337-1.157.756-1.687 3.453-6.583.686-1.243 2.563-.21 1.879 1.034a31.15 31.15 0 0 1-3.82 5.44 1.071 1.071 0 0 1-1.512.109zm250.677-1.5c-.272-2.47-.338-4.568-.27-6.579.046-1.376 2.192-1.37 2.143.071-.064 1.933-.001 3.909.26 6.273a1.072 1.072 0 1 1-2.133.235zm113.436.672c-1.443-.508-.406-1.46 1.247-7.435.38-1.372 2.444-.79 2.067.574a95.302 95.302 0 0 1-1.946 6.206c-.2.569-.823.85-1.368.655zm-414.4-1.774c-4.504-4.501-5.568-5.049-4.552-6.065 1-1.002 1.548.031 6.067 4.549a1.072 1.072 0 1 1-1.516 1.516zm56.826-8.37c-1.24-.36-.628-1.6-.342-2.795 1.102-4.602 1.083-5.865 2.426-5.526 1.251.3.867.983-.34 6.024-.127.53-.265 1.051-.415 1.567-.17.583-.779.892-1.329.73zm202.384-.274c-1.46-.067-1.27-2.265.1-2.14 2.195.1 4.437.083 6.365.067 1.344-.1 1.512 2.124.031 2.145 0 0-4.264.034-6.496-.072zm11.832-1.258c-.203-1.668 1.398-.818 7.07-2.426 1.347-.405 1.965 1.671.587 2.061a41.747 41.747 0 0 1-6.462 1.299 1.071 1.071 0 0 1-1.195-.934zm-18.382.483a34.066 34.066 0 0 1-6.319-1.991 1.073 1.073 0 0 1-.571-1.406c.674-1.604 1.787.135 7.33 1.299a1.072 1.072 0 1 1-.44 2.098zm-258.532-.301c-4.257-1.752-4.756-1.943-5.972-2.497-1.292-.587-.405-2.538.887-1.952 1.377.623 2.078.894 5.901 2.467a1.071 1.071 0 1 1-.816 1.982zm423.849-.853c-1.558-.326-.481-1.46.163-7.502.15-1.41 2.283-1.184 2.132.226a61.862 61.862 0 0 1-1.025 6.447 1.074 1.074 0 0 1-1.27.83zm-115.836-.215c-1.419-.111-.981-1.198-.479-7.568.117-1.477 2.247-1.204 2.139.168l-.506 6.415c-.051.646-.658 1.057-1.154.985zm-18.67-2.258c-.602-1.425 1.008-1.382 5.362-3.68l.919-.484a1.077 1.077 0 0 1 1.448.448 1.073 1.073 0 0 1-.449 1.45l-.918.483a64.936 64.936 0 0 1-4.957 2.352 1.075 1.075 0 0 1-1.405-.57zm-44.666-2.434c-1.666-.203-2.62-.297-4.024-.58-1.392-.281-.969-2.387.422-2.103 1.387.277 2.291.364 4.097.582.321.039.269.047 2.301 1.322.507.308.668.967.36 1.474-.663 1.088-1.635.259-3.156-.695zm-256.47.274a50.345 50.345 0 0 1-5.421-3.709 1.073 1.073 0 0 1-.182-1.506c1.022-1.305 1.62.371 6.694 3.368a1.074 1.074 0 0 1-1.09 1.847zm80.85-2.015a1.074 1.074 0 0 1 .925-1.202l.515-.067c5.29-.688 6.493-2.023 6.952-.44a1.073 1.073 0 0 1-.731 1.328 40.043 40.043 0 0 1-5.944 1.24l-.516.067a1.073 1.073 0 0 1-1.202-.926zm165.25-.808a32.826 32.826 0 0 1-5.802-3.228 1.073 1.073 0 0 1-.266-1.493c.993-1.418 1.724.526 6.914 2.748a1.074 1.074 0 0 1-.845 1.973zm-91.64-.381c-1.388-.224-1.078-2.331.339-2.12 5.763.93 7.268-.296 7.313 1.454a1.074 1.074 0 0 1-1.044 1.1 35.849 35.849 0 0 1-6.608-.434zm37.313.211c-1.4-.154-1.19-2.266.232-2.132 5.653.616 7.212-.696 7.375 1.016a1.073 1.073 0 0 1-.966 1.169 32.985 32.985 0 0 1-6.641-.053zm120.888-.559c-.662-1.26.489-1.47 6.142-4.449 1.256-.66 2.255 1.235 1 1.898l-5.693 3a1.073 1.073 0 0 1-1.449-.449zm-146.289-.825c-.347-1.658 1.374-.924 6.815-3.06 1.31-.519 2.11 1.473.782 1.998a39.56 39.56 0 0 1-6.328 1.893 1.072 1.072 0 0 1-1.269-.831zm37.212-.58c-.493-1.59 1.238-1.043 6.063-3.557 1.834-.96 2.808.949.975 1.91a34.68 34.68 0 0 1-5.696 2.352 1.074 1.074 0 0 1-1.342-.705zm-24.448-1.525c-1.33-.526-.517-2.524.787-1.994 1.905.741 3.54 1.414 5.968 2.117.569.166.896.763.73 1.33-.463 1.593-2.694.411-7.485-1.453zm-85.884 1.238c-.677-1.43.978-1.323 5.219-4.055l.756-.488a1.072 1.072 0 1 1 1.162 1.801l-.756.488a44.08 44.08 0 0 1-4.953 2.763 1.075 1.075 0 0 1-1.428-.51zm54.793.383a35.712 35.712 0 0 1-5.995-2.82 1.072 1.072 0 0 1-.379-1.467c.88-1.486 1.691.32 7.102 2.268.557.201.845.817.645 1.374-.195.537-.79.848-1.373.645zm-29.976-1.156c-1.342-.057-1.416-2.085.088-2.145 5.817.247 7.25-.97 7.445.716a1.073 1.073 0 0 1-.944 1.188c-2.3.26-4.456.326-6.589.24zm-6.55-.79c-2.824-.575-4.566-1.2-6.317-1.801-1.342-.462-.643-2.493.698-2.028 1.799.619 3.325 1.176 6.045 1.726a1.073 1.073 0 0 1-.426 2.103zm18.298-1.437c-.369-1.394 1.087-1.253 4.474-2.469l2.308-.83a1.074 1.074 0 0 1 1.372.648c.458 1.272-1.003 1.5-2.954 2.201-1.289.463-2.597.87-3.888 1.213a1.073 1.073 0 0 1-1.312-.763zm-140.125.153a54.146 54.146 0 0 1-4.295-4.949 1.072 1.072 0 0 1 .198-1.504c1.302-.994 1.452.7 5.627 4.95a1.072 1.072 0 0 1-1.53 1.503zm447.585-.006c-1.455-.062-.965-1.235-.814-7.517.034-1.418 2.18-1.368 2.144.05-.059 2.478-.128 4.593-.21 6.445-.028.595-.58 1.092-1.12 1.022zm-206.091-7.448c-.821-1.156.926-2.4 1.748-1.244 1.284 1.807 2.162 3.116 3.885 4.926.407.43.39 1.108-.039 1.517-1.211 1.15-2.635-1.035-5.594-5.199zm-16.166 4.857c-1.042-1.229.687-1.505 3.709-5.146l.726-.873a1.072 1.072 0 1 1 1.65 1.37l-.726.873a31.58 31.58 0 0 1-3.847 3.898c-.45.382-1.128.33-1.512-.122zm-233.308-7.77a63.637 63.637 0 0 1-3.073-5.775 1.073 1.073 0 0 1 .516-1.426c1.443-.674 1.253.874 4.395 6.095a1.074 1.074 0 0 1-1.838 1.106zm241.994-1.69c-1.055-.878.027-1.711 2.152-4.27.428-.512 1.273-.532 1.698.064 1.62 2.28 2.453 3.065 1.398 3.816a1.074 1.074 0 0 1-1.496-.252l-.842-1.185-1.4 1.686a1.072 1.072 0 0 1-1.51.14zm213.936-.792c-1.406-.025-1.055-1.113-.963-7.515.016-1.155 1.327-1.055 1.087-1.058 1.415.02 1.057 1.128.966 7.517-.01.586-1.305 1.056-1.09 1.056zM26.74 301.39a74.761 74.761 0 0 1-1.917-6.237 1.072 1.072 0 0 1 .767-1.307c1.53-.435 1.16 1.19 3.17 6.824a1.072 1.072 0 0 1-2.02.72zm461.66-3.525c-1.415-.015-1.058-1.13-.98-7.519.014-1.152 1.323-1.057 1.086-1.06 1.415.015 1.06 1.13.98 7.52-.007.588-1.311 1.06-1.085 1.06zm-464.964-9.081c-1.125-6.391-1.202-7.497.076-7.624 1.518-.208.97 1.203 2.036 7.25a1.072 1.072 0 0 1-2.112.373zm465.116-3.785c-1.442-.015-1.044-1.186-1.019-7.51.006-1.151 1.31-1.068 1.077-1.069 1.544.005 1.077 1.656 1.024 7.517-.005.589-1.31 1.062-1.082 1.062zm-466.414-9.163a97.788 97.788 0 0 1 .03-6.504c.053-1.42 2.196-1.337 2.143.08a95.438 95.438 0 0 0-.03 6.36 1.073 1.073 0 0 1-1.04 1.105c-.703.02-1.09-.568-1.103-1.041zm465.394-4.772c-.039-6.38-.513-7.449.916-7.504 1.409-.07 1.19 1.192 1.229 7.492a1.072 1.072 0 0 1-1.066 1.079c-.232.001-1.074-.18-1.08-1.067zm-463.955-7.041a1.071 1.071 0 0 1-.958-1.175c.216-2.13.502-4.296.852-6.439.226-1.41 2.344-1.051 2.116.344-.342 2.1-.622 4.224-.834 6.313a1.072 1.072 0 0 1-1.176.957zm461.199-11.396c-.59-1.292 1.364-2.18 1.952-.888a36.023 36.023 0 0 1 2.142 6.27 1.072 1.072 0 0 1-.797 1.29c-1.674.424-.983-1.593-3.297-6.672zm-459.26-1.316a1.074 1.074 0 0 1-.812-1.282c.467-2.09 1.006-4.207 1.598-6.293.387-1.366 2.451-.779 2.063.586a113.044 113.044 0 0 0-1.568 6.177c-.126.563-.682.94-1.28.812zm456.122-4.032c-3.376-4.596-5.408-4.82-4.234-6.12a1.076 1.076 0 0 1 1.514-.075 32.968 32.968 0 0 1 4.448 4.926 1.073 1.073 0 1 1-1.728 1.27zm-9.156-8.287c-4.924-2.928-6.864-2.343-6.287-3.99.195-.56.805-.857 1.366-.658a33.295 33.295 0 0 1 6.016 2.804 1.073 1.073 0 1 1-1.095 1.844zm-443.567-.084a1.072 1.072 0 0 1-.664-1.364c.705-2.04 1.473-4.082 2.286-6.074.537-1.323 2.52-.497 1.986.809a117.021 117.021 0 0 0-2.244 5.965 1.073 1.073 0 0 1-1.364.664zm375.765-2.436c-1.383-.188-1.138-2.299.293-2.124 2.595.36 4.238.769 6.425 1.372.571.157.907.748.75 1.32-.448 1.624-1.644.239-7.468-.568zm37.05-.084c-1.327-.502-.561-2.51.763-2.002l1.412.536c3.714-1.212 4.962-1.886 5.337-.524.34 1.23-.567 1.225-5.032 2.681-.219.072-.596.027-2.48-.69zm-25.093-1.776a32.664 32.664 0 0 1 6.322-2.036c1.403-.283 1.823 1.805.447 2.099a30.453 30.453 0 0 0-5.906 1.902c-1.306.565-2.158-1.395-.863-1.965zm-25.727.622c-.059-1.354 1.141-1.123 5.179-1.299 1.483-.06 3.315-.327 3.315 1.029 0 1.391-1.334 1.035-3.224 1.116l-4.152.18c-.79 0-1.1-.614-1.118-1.026zm63.702-.545c-1.352.169-1.606-2.046-.138-2.14a33.215 33.215 0 0 1 6.633.24c.587.08.997.623.917 1.21-.238 1.724-1.944.346-7.412.69zm-25.045-.69c-1.418 0-1.418-2.145 0-2.145 2.255 0 4.338.17 6.604.62.581.113.96.678.844 1.258-.329 1.666-1.541.266-7.447.266zm-45.214-8.029c-1.011-1.584.784-2.766 1.811-1.15a73.732 73.732 0 0 1 3.09 5.366 1.071 1.071 0 0 1-.453 1.448c-1.377.727-1.372-.81-4.448-5.664zm-350.695.982a1.07 1.07 0 0 1-.514-1.426l.673-1.407c1.895-3.891 2.474-5.493 3.71-4.822 1.296.7.179 1.736-1.781 5.76l-.661 1.382c-.25.528-.881.769-1.427.513zm347.072-6.696c-1.912-3.016-2.135-3.149-1.939-3.77.188-.596.382-.57 3.406-1.835 1.311-.542 2.137 1.43.827 1.978l-1.623.678c.76 1.2 2.01 2.521.81 3.28-.178.113-1.165.168-1.48-.33zm-341.05-4.668a1.071 1.071 0 0 1-.344-1.477 106.332 106.332 0 0 1 3.597-5.412c.819-1.158 2.572.084 1.749 1.24a104.743 104.743 0 0 0-3.525 5.303 1.073 1.073 0 0 1-1.477.346zm348.455-3.42c5.564-2.318 6.056-3.984 6.99-2.591.33.492.197 1.158-.295 1.487a30.6 30.6 0 0 1-5.22 2.813l-.65.272c-1.323.535-2.128-1.437-.825-1.982zm10.284-5.34c-1.257-1.255 1.033-1.76 3.838-6.342.74-1.211 2.571-.092 1.83 1.119-1.125 1.839-2.483 3.546-4.151 5.22a1.073 1.073 0 0 1-1.517.004zM47.023 205.03a1.072 1.072 0 0 1-.156-1.508 94.98 94.98 0 0 1 4.274-4.905c.97-1.036 2.535.429 1.567 1.466a92.5 92.5 0 0 0-4.177 4.792c-.375.46-1.048.53-1.508.155zm359.062-10.822c4.934-.52 5.182-.542 6.296-.674 1.397-.182 1.675 1.956.257 2.128-.792.097-.143.026-6.14.66-1.498.504-1.986-1.95-.413-2.114zm-350.39 1.328a1.074 1.074 0 0 1 .059-1.516 81.818 81.818 0 0 1 4.956-4.233c1.114-.878 2.442.81 1.326 1.684a79.871 79.871 0 0 0-4.825 4.124 1.074 1.074 0 0 1-1.516-.059zm362.129-1.667c-.276-1.587 1.248-1.01 7.054-2.61 1.378-.366 1.93 1.695.57 2.07a68.26 68.26 0 0 1-6.384 1.411c-.539.11-1.134-.261-1.24-.871zm12.435-3.242c-.665-1.59 1.269-1.2 6.13-4.271 1.197-.762 2.344 1.056 1.144 1.814a39.732 39.732 0 0 1-5.87 3.03 1.072 1.072 0 0 1-1.404-.573zm-364.565-3.171a1.072 1.072 0 0 1 .308-1.485 70.215 70.215 0 0 1 5.619-3.33c1.25-.67 2.26 1.23 1.005 1.893a68.278 68.278 0 0 0-5.447 3.23 1.073 1.073 0 0 1-1.485-.308zm375.564-3.396c-1.218-1.27.87-1.557 4.006-6.252.784-1.176 2.573.008 1.783 1.19a30.607 30.607 0 0 1-4.273 5.096 1.073 1.073 0 0 1-1.516-.034zm-364.301-2.792c-.53-1.308 1.21-1.66 2.58-2.157 3.741-1.361 4.97-2.176 5.455-.844.483 1.333-.986 1.5-4.723 2.859-.642.233-1.28.478-1.917.735a1.074 1.074 0 0 1-1.396-.593zm7.53-7.92c-.019-2.088-.069-3.783.39-6.599.231-1.416 2.344-1.047 2.117.344-.44 2.704-.378 4.451-.361 6.233.006.59-.47 1.077-1.062 1.083-.231.002-1.074-.176-1.083-1.062zm364.25.361c-1.63-.645.158-1.825 1.041-7.355.221-1.39 2.344-1.069 2.118.339a30.453 30.453 0 0 1-1.766 6.415c-.224.563-.86.816-1.393.601zm-117.463-9.44c-1.294-.593-.51-1.463 2.15-7.274.587-1.285 2.542-.4 1.95.893l-2.679 5.852a1.074 1.074 0 0 1-1.42.53zM87.24 161.727a1.072 1.072 0 0 1-.61-1.389 31.143 31.143 0 0 1 3.057-5.906c.779-1.176 2.575-.004 1.788 1.185a29.004 29.004 0 0 0-2.846 5.5c-.22.56-.85.822-1.39.61zm362.817-1.546c-.388-5.583-2.13-6.872-.435-7.406a1.072 1.072 0 0 1 1.343.704 28.665 28.665 0 0 1 1.232 6.556 1.073 1.073 0 1 1-2.14.146zm-121.272-.657c-1.722-6.148-2.368-7.134-.993-7.518 1.346-.39 1.324.75 3.059 6.94a1.072 1.072 0 1 1-2.066.578zm7.846-6.956c-1.286-.59-.51-1.462 2.15-7.272.59-1.291 2.541-.398 1.95.892l-2.678 5.85a1.074 1.074 0 0 1-1.422.53zm-242.712-1.732a1.073 1.073 0 0 1 .027-1.517 31.944 31.944 0 0 1 5.244-4.078c1.201-.755 2.341 1.07 1.136 1.818a29.692 29.692 0 0 0-4.89 3.806c-.43.41-1.108.398-1.517-.03zm352.488-2.342.798-.754-.917.555c-2.825-4.664-4.844-5.047-3.586-6.248a1.074 1.074 0 0 1 1.516.034 29.54 29.54 0 0 1 3.904 5.104l-.798.754-.917.555zm-122.841-7.509c-.437-1.348 1.602-2.01 2.04-.662.263.812.259.83 1.772 6.231.16.57-.172 1.163-.743 1.322-1.619.455-1.397-1.727-3.069-6.89zm-219.059 2.692a1.07 1.07 0 0 1 .611-1.387 40.718 40.718 0 0 1 4.493-1.445c.423-.107.836-.216 1.837-.425 1.377-.298 1.836 1.806.44 2.098-.832.175-1.267.285-1.746.405-1.463.38-2.894.84-4.247 1.365a1.072 1.072 0 0 1-1.388-.611zm12.465-2.968a1.072 1.072 0 0 1 1-1.14c2.019-.132 4.12-.16 6.529-.104 1.393.034 1.397 2.154-.054 2.144-2.336-.056-4.376-.025-6.335.1-.553.05-1.1-.385-1.14-1zm13.02.23c-1.22-.578-.48-1.493 1.542-5.766.556-1.18 1.066-2.574 2.21-1.946 1.14.608.29 1.68-.272 2.863l-2.052 4.338c-.25.53-.883.765-1.428.511zm211.6-1.508a43.666 43.666 0 0 1 3.542-5.559c.857-1.13 2.566.162 1.712 1.295a41.424 41.424 0 0 0-3.367 5.282c-.672 1.25-2.562.23-1.887-1.018zm96.321.201c-4.632-3.003-6.775-2.513-6.158-4.155a1.066 1.066 0 0 1 1.381-.627c2.119.796 4.118 1.8 5.943 2.98a1.072 1.072 0 0 1-1.166 1.802zm-43.258-3.688c-.916-1.083.717-2.466 1.637-1.387l.867 1.024 3.601-.97c1.38-.362 1.922 1.705.559 2.07l-4.26 1.148c-.83.226-1.106-.352-2.404-1.885zm-73.65-.574c-2.861-4.728-5.024-5.157-3.765-6.39a1.07 1.07 0 0 1 1.516.016 28.877 28.877 0 0 1 4.083 5.264 1.072 1.072 0 1 1-1.835 1.11zm85.273-.865c-.207-1.478 1.642-1.37 5.148-1.699 1.514-.151 3.28-.63 3.384.798.115 1.608-1.538 1.006-7.322 1.814a1.07 1.07 0 0 1-1.21-.913zm20.095.722c-5.753-1.03-7.329-.045-7.276-1.736a1.071 1.071 0 0 1 1.104-1.039c2.277.071 4.48.296 6.549.664a1.073 1.073 0 0 1-.377 2.111zm-35.908-4.027c-4.05-3.948-6.145-3.805-5.213-5.3a1.071 1.071 0 0 1 1.477-.34 31.14 31.14 0 0 1 5.232 4.102 1.073 1.073 0 0 1-1.496 1.538zm-40.842-2.214c1.634-1.413 3.27-2.644 5.402-3.869a1.072 1.072 0 0 1 1.463.396c.824 1.434-.996 1.322-4.942 4.646l-.502.431c-1.055.944-2.487-.663-1.421-1.604zm-213.475.695a1.073 1.073 0 0 1-.116-1.512 27.68 27.68 0 0 1 4.918-4.51c1.151-.83 2.403.92 1.248 1.743a25.67 25.67 0 0 0-4.538 4.162c-.386.45-1.06.502-1.512.117zm109.946-3.131 3.012-2.482c1.083-.891 2.333-2.147 3.141-1.001.783 1.108-.634 1.716-1.778 2.656l-3.311 2.729c-1.326 1.09-2.737-1.45-1.064-1.902zm-25.149-.714c-1.36-.407-.74-2.469.617-2.053 1.923.575 3.203 1.152 5.203 1.99l.306-.063c1.39-.282 1.817 1.822.427 2.103l-.63.128c-.674.14-2.645-1.12-5.923-2.105zm18.947 1.386c-5.662-.888-7.236.431-7.321-1.34a1.07 1.07 0 0 1 1.02-1.123c2.265-.115 4.501.01 6.632.344a1.073 1.073 0 0 1-.33 2.12zm72.538-.626c-4.697-3.025-6.777-2.546-6.156-4.176.21-.555.83-.832 1.385-.618a32.31 32.31 0 0 1 5.931 2.989 1.073 1.073 0 0 1-1.16 1.805zm-116.055-3.891c-1.216-.733-.106-2.572 1.107-1.835 1.354.813 2.073 1.364 5.026 3.475.327.119.599.374.683.714.143.576-.114 1.135-.689 1.277-1.343.333-1.701-.952-6.127-3.631zm11.989.13c1.487-.22 2.94-.42 4.504-.33 1.42 0 3.239-.196 3.14 1.222-.125 1.747-2.05.452-7.33 1.227-.567.09-1.726-1.913-.314-2.12zm171.656 1.849c-5.305-1.887-7.168-.875-6.952-2.622a1.069 1.069 0 0 1 1.196-.933c2.2.273 4.379.788 6.476 1.536a1.07 1.07 0 1 1-.72 2.019zm-18.923-2.26a31.052 31.052 0 0 1 6.51-1.372c1.45-.103 1.591 2.002.21 2.134a28.857 28.857 0 0 0-6.058 1.278c-1.35.437-2.011-1.599-.662-2.04zm-80.286-.584c-.163-1.348 1.234-1.23 3.838-1.546 1.035-.108 2.174-.242 3.496-.396 1.424-.147 1.642 1.973.244 2.132-1.346.154-4.79.55-6.385.744a1.072 1.072 0 0 1-1.193-.934zm-134.6.006a1.074 1.074 0 0 1 .59-1.397 30.982 30.982 0 0 1 6.407-1.808c1.409-.228 1.751 1.876.36 2.116-2.07.352-4.076.917-5.961 1.682a1.074 1.074 0 0 1-1.397-.593zm154.685.31c-5.687-1.007-7.292.095-7.286-1.626.004-1.15 1.309-1.067 1.076-1.068 2.238.009 4.453.206 6.584.583a1.072 1.072 0 1 1-.374 2.11zm-44.033-2.606c1.026-.41 3.185-1.273 6.113-1.818a1.066 1.066 0 0 1 1.25.857c.31 1.651-1.324.84-6.791 3.043-.573.23-2.347-1.378-.572-2.082zm-97.124.853c-1.418-.086-1.28-2.232.13-2.14 2.468.149 4.4.554 6.543 1.14.571.156.908.746.752 1.318-.475 1.74-1.803.025-7.425-.318zm12.045-1.812a29.17 29.17 0 0 1 6.452-1.67c1.425-.177 1.688 1.93.296 2.124a26.992 26.992 0 0 0-5.977 1.548c-1.327.505-2.095-1.49-.771-2.002zm103.808 1.891c-5.334-1.608-7.177-.399-7.084-2.182.03-.59.534-1.091 1.127-1.014 2.233.117 4.445.5 6.576 1.144a1.072 1.072 0 1 1-.619 2.052zm-84.834-.352c-5.258-1.725-7.177-.642-7.023-2.4.051-.59.581-1.014 1.162-.974 2.224.195 4.421.645 6.53 1.339a1.072 1.072 0 1 1-.669 2.035z" opacity="1" data-original="#cccccc"></path><path fill="#ee476f" d="M364.036 154.562c-1.413 3.385-11.74 31.574-9.437 35.174.643.965 1.394 1.394 2.413 1.394 2.52 0 3.27-1.019 4.397-5.737l.643-2.788c6.977-1.062 4.777-.611 11.69-2.038l.589 3.164c.965 4.88 3.378 6.81 5.898 4.826 1.662-1.395 1.609-2.145-1.072-17.266-2.735-15.281-4.022-20.429-5.738-22.252-2.173-2.39-6.063-2.278-9.383 5.523zm7.56 13.19c.644 3.486 1.073 6.381.965 6.488-.426.214-7.956.874-8.364.912l1.287-4.236c.697-2.306 1.93-5.952 2.734-8.15 1.716-4.665 1.662-4.719 3.378 4.986z" opacity="1" data-original="#ee476f"></path><path fill="#4cbc96" d="M184.466 144.482c1.34 1.34 1.394 4.557.268 23.056-1.113 18.78.06 24.226-3.485 24.718-5.158.59-4.385-4.395-3.754-18.391-3.937.844-7.502.897-17.694 1.34v6.327c0 5.684-.107 6.488-1.072 7.453-2.199 2.199-4.987.698-5.684-3.056-.482-2.68.161-24.718 1.019-32.118.75-6.81 1.662-8.793 4.075-8.793.804 0 1.93.482 2.466 1.072.912 1.019.912 1.555.322 9.008-.626 8.46-.983 10.976-1.233 12.976 10.258-.09 11.852.016 18.07-1.34l.375-5.63c.925-13.42.9-15.484 2.091-16.676 1.34-1.34 2.895-1.287 4.236.054zm82.251 0c-2.09.804-4.557 7.453-8.257 21.93-3.7 14.691-3.11 13.673-5.952 10.027-2.841-3.54-7.828-11.421-11.742-18.553-3.164-5.79-3.914-6.541-6.166-6.327-2.306.215-3.271 2.36-2.199 4.933 2.306 5.523 12.44 21.716 16.408 26.22 3.753 4.236 7.024 5.201 9.92 2.95 4.16-3.202 5.811-18.92 10.67-32.28 1.072-2.895 1.93-5.737 1.93-6.22 0-.536-.644-1.5-1.394-2.09-1.555-1.234-1.609-1.234-3.218-.59zm20.805 2.466c-4.987.536-5.309 1.073-6.542 12.01-1.394 11.904-1.448 19.947-.268 22.95 1.93 4.772 6.542 7.077 12.279 6.059 4.88-.858 6.434-3.11 3.807-5.738-2.764-2.763-5.844.716-8.847-1.715-1.287-1.073-1.34-1.287-1.234-7.346.054-3.485.215-6.38.322-6.488s1.609-.322 3.378-.483c6.005-.643 7.185-1.287 7.185-4.021 0-4.198-5.522-3.077-9.759-2.627.029-.216.696-5.629.912-5.845.107-.107 2.198-.322 4.665-.482 5.2-.322 6.863-1.126 6.863-3.325 0-5.054-8.246-3.416-12.761-2.949zm-71.153 4.129c2.896 2.895 4.397 9.92 5.684 26.434.75 9.651.536 11.26-1.502 12.064-2.359.858-4.075-.804-4.664-4.557l-.43-3.003c-3.454 0-3.9-.066-10.991.643-1.697 5.537-1.897 6.56-3.54 7.132-1.769.59-3.002 0-3.967-1.984-.59-1.18-.429-2.306 1.126-7.99 1.64-5.941 6.96-25.037 11.582-29.115 2.36-1.983 4.504-1.823 6.702.376zm-3.86 7.078c-1.857 4.283-6.06 17.08-6.06 17.318 0 .215 8.204-.482 8.472-.697.108-.053-.214-3.11-.697-6.756-.831-7.07-1.333-8.43-1.715-9.865z" opacity="1" data-original="#4cbc96"></path><g fill="#1988af"><path d="M425 163.677c-1.232 2.413-5.844 4.129-13.833 5.148-5.308.697-7.346.75-9.008.321-2.734-.75-3.7-2.412-2.68-4.772.714-1.754 1.203-1.951 9.383-4.182.59-.16 2.841-.483 5.093-.697 9.062-.912 12.923.59 11.046 4.182zm-313.67 8.58c.59 3.27 1.769 3.86 8.364 3.86 10.027 0 14.102-1.662 13.727-5.737-.269-3.057-1.77-3.754-8.472-4.075-5.859-.248-14.653.212-13.62 5.951zM243.715 198.315c-3.164 1.394-4.397 3.753-7.4 14.263-11.58 40.22-6.064 40.2-11.42 38.337-11.494-4.128-16.82 6.4-27.936 11.957l-2.198 1.18c-3.625-17.088-20.747-20.7-29.437-12.01-1.287 1.286-2.627 2.359-3.056 2.359-1.216 0-10.074 6.434-12.28 6.434-.375 0-1.286-1.394-1.983-3.056-4.022-9.759-13.78-12.708-20.322-6.113-9.061 9.115-12.922 18.391-12.976 31.153-.053 9.437 1.555 14.477 5.845 18.337 4.397 3.968 10.885 3.807 16.354-.375 5.308-4.075 10.348-13.297 12.225-22.413 1.173-5.745.734-4.731 2.788-5.63l1.448-.643c0 6.507-.227 11.021 2.68 16.997 8.975 18.186 32.034 8.564 37.588-9.973.59-1.984 1.018-2.466 3.056-3.324 1.287-.59 2.413-1.02 2.466-1.02.872 0-1.826 13.62 3.218 22.146 4.451 7.368 13.826 8.365 23.485-6.435l2.252-3.485c2.802 6.242 4.929 10.808 13.35 13.995 3.7 1.34 5.256 1.394 7.4.268 2.199-1.126 3.271-3.754 2.574-6.274-2.227-8.1-13.454 1.331-13.566-24.236-.112-13.14 5.528-16.022 12.547-56.246 2.038-12.01 1.287-15.228-4.021-16.622-.59-.16-1.77.054-2.681.43zm-60.59 67.185c.376 1.77.322 1.77-1.715 1.77-3.271 0-5.899-.966-7.346-2.735-1.662-1.984-1.716-2.842-.322-4.236 1.93-1.93 7.73-1.828 9.383 5.2zm-46.166-4.022c1.126 1.555 1.073 2.038-.16 2.038-1.287 0-2.306-1.233-1.877-2.36.429-1.179 1.072-1.072 2.037.322zm87.721 4.558c0 1.019-5.63 13.351-7.614 16.622-2.198 3.7-5.04 6.97-5.523 6.488-.75-.75-.911-9.866-.268-13.78.751-4.45 3.646-10.724 5.738-12.386 4.244-3.351 7.667 2.543 7.667 3.056zm-86.863 9.759c0 .214-.375 1.715-.858 3.324-1.983 6.81-7.292 14.263-9.061 12.815-1.877-1.555-2.306-10.188-.804-16.997l.59-2.735 2.627 1.34c4.357 2.26 7.506 1.445 7.506 2.253zm40.375 2.734c1.287 0 2.467.161 2.681.322.644.643-2.841 4.933-5.308 6.595-11.249 7.319-11.31-12.279-10.08-12.279.16 0 5.603 5.362 12.707 5.362zM57.925 235.848c-15.696 32.259-10.546 74.824 16.944 75.818 13.07.493 17.217-6.816 16.621-3.54-1.401 6.371-1.61 19.767-1.662 22.414l1.716 1.716c2.413 2.412 5.362 2.466 7.721.107 1.609-1.609 1.662-1.93 2.145-8.043 2.105-26.877 9.003-49.56 6.166-59.303-2.413-8.31-10.08-12.976-21.34-13.03-4.719 0-5.255.108-6.542 1.288-2.895 2.734-2.144 7.882 1.394 9.383.966.429 3.11 1.394 4.772 2.091 19.087 8.29 6.049 33.392-8.418 35.55-6.97 1.018-12.654-4.558-15.603-15.39-1.34-4.878-1.34-18.283 0-24.61 6.277-29.29 26.014-47.834 37.05-45.898 2.146.429 4.076 2.52 4.076 4.45 0 .697.322 2.091.75 3.057 2.145 5.093 9.062 4.61 10.51-.644.643-2.52-.054-7.238-1.501-10.134-7.584-14.397-36.74-12.399-54.8 24.718z" fill="#1988af" opacity="1" data-original="#1988af"></path></g><path fill="#ffcf68" d="M324.143 217.993c-6.595.912-6.648.965-10.134 4.397-1.876 1.823-3.646 3.86-4.021 4.504-1.019 1.93-.697 4.236.804 6.005l1.394 1.663c-.77 5.125-8.686 58.517-8.686 63.699 0 5.737 6.327 8.525 9.866 4.343.75-.911 1.394-2.037 1.448-2.52 0-1.883 1.171 5.945 8.74 9.973 2.52 1.34 3.27 1.448 8.632 1.448 4.772 0 6.488-.268 9.062-1.233 13.643-5.06 26.21-18.251 29.544-38.928l.322-2.037c4.835.617 5.254.748 10.563 1.77-3.079 6.228-6.864 13.122-6.864 21.125 0 9.569 7.748 14.61 19.464 3.968l3.593-3.27c0 3.289-.166 6.927 2.949 9.704 2.466 2.145 4.986 2.574 8.096 1.394 2.627-1.018 7.56-5.254 10.134-8.793 1.716-2.306 2.413-2.735 2.413-1.394s3.7 4.986 5.737 5.683c2.199.697 5.898.322 8.15-.804 2.896-1.555 7.668-5.844 11.582-10.51l3.914-4.718c.394 10.455 1.312 29.86-.697 42.198-2.305 14.21-8.472 23.968-18.016 28.687-10.027 4.933-19.25 3.27-23.002-4.236-1.126-2.306-1.34-3.378-1.287-7.507.053-5.416 1.019-8.365 3.968-11.689 6.131-7.065 10.653 1.894 15.87-3.324 1.556-1.555 1.77-5.255.43-7.132-1.18-1.662-5.47-3.753-8.633-4.182-5.415-.697-12.547 2.306-16.568 6.97-3.968 4.612-7.185 13.405-7.185 19.625 0 9.333 4.451 18.5 14.209 23.378 3.86 1.877 4.45 2.038 10.08 2.252 7.024.268 10.939-.483 16.783-3.378 12.708-6.22 20.804-17.802 24.45-35.12.965-4.612 1.126-8.043 1.448-34.853.215-16.354.215-30.51-.054-31.42-.965-3.7-5.63-5.63-9.008-3.647-2.476 1.486-9.117 12.516-13.565 18.177-2.896 3.539-7.453 8.311-8.043 8.311-.912 0 .268-7.721 2.895-19.303 1.845-8.238-5.15-10.368-8.74-7.346-.857.697-2.305 3.11-3.378 5.738-2.734 6.434-10.187 19.731-10.777 19.195-.295-.295 2.467-8.107 2.467-10.295 0-2.252-3.593-8.686-5.899-10.509-1.126-.911-3.11-1.984-4.396-2.466-2.789-1.073-7.99-1.18-10.724-.268-1.77.59-2.467.482-6.166-.644-4.17-1.317-9.778-2.451-16.515-2.788l-.912-3.539c-2.466-9.544-6.327-16.515-12.707-23.217-9.759-10.08-21.609-14.852-33.03-13.137zm12.065 12.6c7.292 2.414 15.388 10.028 19.303 18.178 1.983 4.128 3.592 9.169 3.11 9.651-.108.161-2.52.858-5.309 1.555-15.442 4.021-28.31 12.869-34.96 23.968-1.608 2.627-1.983 3.056-1.769 1.823 1.011-5.729 7.096-54.064 8.847-55.925 1.02-1.019 6.595-.643 10.778.75zm2.895 67.883c-11.954 5.603-17.68-2.093-6.541-13.888 10.062-10.464 25.48-14.179 26.22-13.78.214.107-2.357 19.522-19.679 27.668zm61.233-25.577c.215.75-11.903 13.512-12.386 13.03-.396-.397 2.891-9.535 8.043-12.869 1.662-1.019 4.075-1.126 4.343-.16z" opacity="1" data-original="#ffcf68"></path></g></svg>