<svg xmlns="http://www.w3.org/2000/svg" version="1.1" xmlns:xlink="http://www.w3.org/1999/xlink" width="512" height="512" x="0" y="0" viewBox="0 0 135.467 135.467" style="enable-background:new 0 0 512 512" xml:space="preserve" class=""><g><path fill="#ffffff" d="M51.254 5.837c-.755.016-1.58.141-2.526.424-.408.122-1.147.417-1.971.965-1.17-.77-2.398-1.13-3.115-1.13-3.479 0-4.24 1.688-5.036 2.648-.794.96-1.369 1.935-1.9 2.99-1.062 2.11-1.984 4.215-1.984 7.15 0 1.015.481 2.322 1.101 3.494-.413.126-1.485.318-.816.237-1.775.216-3.059 1.384-3.97 2.525-2.335-1.81-5.306-2.866-8.282-2.82-1.542.024-2.646-.194-4.691.676-.16.068-.255.236-.414.324-1.521-.753-3.154-.853-4.356-.551-2.63.66-3.333 2.101-3.965 3.106-.632 1.004-1.072 2.01-1.533 3.207-.921 2.394-1.838 5.528-2.889 9.667-1.013 3.991-1.664 7.145-1.931 9.766-.134 1.31-.184 2.485-.045 3.725.139 1.24.373 2.714 1.771 4.26.884.976 2.235 1.935 4.104 2.097 1.08.094 2.17-.253 3.156-.766 1.417.763 2.786.923 4.025.7a6.344 6.344 0 0 0 2.26-.887c-.84 1.314-1.328 2.76-1.554 4.285-.515.126-1.015.222-1.592.479-1.712.761-3.827 3.53-3.827 5.732 0 1.87 1.078 3.889 2.395 4.944 1.317 1.054 2.672 1.428 3.932 1.591h.002c.296.039 2.05.286 3.635.516 2.684.39 5.314.475 12.558.48 1.077.001 1.336-.023 2.207-.027-.056.02-.122.011-.178.033-2.685 1.057-4.221 3.34-4.921 5.75-.515 1.772-.522 3.137-.493 4.627.015.746.063 1.473.172 2.22.079.539.327 1.239.604 1.966-.421-.217-.839-.443-1.309-.56-2.619-.644-6.011.968-7.205 3.47-.326.684-.665 1.84-.695 2.818-.031.978.107 1.675.242 2.348.026.129.067.24.096.365a8.216 8.216 0 0 0-1.932-.25c-1.137 0-2.671.071-4.322 1.33-1.652 1.258-2.371 3.57-2.371 4.96 0 .718.085 1.296.258 1.939.172.643.106 1.284 1.498 2.676.963.963 2.945 2.433 5.793 1.458.28-.096.483-.306.738-.449 1.035.053 2.214-.079 3.318-.77-.074.527-1.851 2.803-2.578 3.356-1.435 1.092-2.844 2.421-3.467 4.902-.127.508-.329.993-.193 2.282.008.076.049.199.06.285-.186.241-.415.316-.587.613-.382.658-.643 1.599-.733 2.625a5 5 0 0 0 .266 2.539c.194.511.558 1.58 1.978 2.565 1.42.984 3.396.999 4.325.765 1.856-.466 2.05-.902 2.71-1.344.277-.184 1.618-.653.276-.24.554-.17 1.183-.384 2.005-1.029.542-.424 1.13-1.312 1.555-2.373.421.726 1.586 2.521 4.366 2.521 2.448 0 2.445-.617 2.75-.812.305-.196.443-.315.57-.42.253-.21.405-.355.566-.514.323-.316.635-.652.967-1.03-.124.141.682-.524.953-.657.18-.09.289-.154.356-.205.078.018.193.034.373.044 1.048.06 1.38.485 1.312.38.2.312.435.6.7.86.259.35.434.681.884 1.09.402.367.893.854 2.116 1.24.954.303 2.62.024 3.997-.654.46.116 1.02.196 1.754.196 2.434 0 3.879-1.584 4.442-2.45.362-.554.423-.921.553-1.331.072.368.113.717.275 1.139.148.385.289.982 1.201 1.945.912.962 3.288 1.817 4.75 1.545.89-.166 1.133-.385 1.564-.59.97.48 2.576 1.05 4.628.05.723-.352 1.231-.839 1.656-1.355 1.578.434 2.953.02 3.646-.299 1.412-.651 1.618-1.046 2.114-1.494.678-.613 1.023-.58 1.09-.574.066.006.1-.09.42.412.002.005 0 0 .003.004v.002c.32.506-.054.852 2.004 2.228 1.03.688 4.07 1.042 5.582.1.58-.362.834-.65 1.094-.934a5.418 5.418 0 0 0 2.889-1.27c1.065-.19 1.537-.51 1.818-.677.364-.218.588-.377.861-.562-.49.333-.113.074.25.038.364-.035.783.15.235-.085 1.015.434 3.452.984 5.53-.752 2.076-1.737 1.962-3.859 1.807-4.89-.31-2.065-1.07-2.928-2.148-3.94-.533-.5-1.736-1.343-2.91-1.658-1.175-.316-1.938-.273-2.69-.264-.149.002-.277.029-.421.035.354-.853.667-1.785.695-3.033.036-1.624-.72-3.465-1.54-4.506-.888-1.13-2.743-2.117-4.538-2.405 2.728-3.87 4.615-7.005 5.634-10.163.31-.961.59-2.232.714-3.692s.183-3.306.275-6.523c.055-1.913.139-3.879.228-5.467.018-.318.024-.296.045-.592.19.015.35.02.537.037 3.065.273 5.594.272 12.116.025 9.06-.343 12.281-.566 15.285-1.25 1.156-.262 2.215-.425 3.69-1.46 1.476-1.036 2.636-3.67 2.636-5.123 0-1.363-.642-2.927-1.483-3.868-.79-.884-1.593-1.29-2.302-1.597.07-.57.246-1.088.254-1.69.025-1.887-.58-4.385-1.37-5.787-1.059-1.878-2.95-3.512-5.078-4.463 1.51-.781 2.14-1.468 2.987-2.3.108.016.175.063.289.078 3.425.448 6.652-1.956 8.078-4.358 1.426-2.402 2.084-5.107 2.473-8.314.27-2.228.228-4.028-.14-6.233-.386-2.301-.9-4.222-2.062-6.09-.58-.933-1.318-1.995-2.994-2.787s-4.508-.502-5.988.58c-.341.25-.882.882-1.36 1.635a10.26 10.26 0 0 0-1.07-.195c-.285-.028-.787-.117-1.726.035-.94.152-2.215.773-2.924 1.43-.54.5-.76.838-.993 1.182-.44-.25-.868-.51-1.42-.684-2.741-.87-3.306-.166-4.302.14-.439.135-.879.437-1.304.624-.28-1.58-1.057-2.706-2.03-3.632.198-.558.29-1.05.326-1.628.376-.446.776-.843 1.088-1.412 1.003-1.827 1.15-4.665.22-6.624-1.54-3.245-4.638-4.546-7.378-4.652-1.47-.057-3.14.312-4.623 1.16-.748-.223-1.9-.374-3.492.348-1.463-.746-2.356-.618-2.413-.618-1.425 0-2.349.36-3.066.813a6.61 6.61 0 0 0-2.621-.62c-.264-.008-.605.193-.924.237-.613-.532-1.294-1.042-2.11-1.238-1.906-.458-3.162.106-3.952.492-.564.275-.94.56-1.342.848-.703-.33-1.442-.653-2.1-.653-.485 0-1.42.012-2.582.624-1.16.611-2.073 1.829-2.42 2.638-.067.158-.05.2-.102.338-.285-.609-.574-1.254-.92-1.587-.951-.922-1.638-1.165-2.235-1.414-1.819-.76-2.938-.776-4.313-.87-1.058-.071-1.946-.167-3.381.17a11.753 11.753 0 0 0-1.117-.41c-.88-.276-1.735-.507-2.687-.574a7.956 7.956 0 0 0-.734-.018zm48.773 88c-1.938 0-3.132.635-4.23 1.465-1.096.83-2.58 1.923-2.58 4.904 0 .534.022 1.405.618 2.526.046.087.149.153.203.238.137 1.5 1.516 4.022 3.367 4.68 1.946.69 3.013.216 3.744-.05 1.464-.53 2.147-1.162 2.924-1.939 1.002-1.001 2.285-3.803 2.285-5.3 0-1.06-.02-2.757-1.529-4.481-1.508-1.724-3.662-2.043-4.802-2.043z" opacity="1" data-original="#ffffff" class=""></path><path fill="#f51a31" d="M56.795 61.171s-2.974 7.317-3.475 9.555c-.5 2.239-.835 8.82-3.007 11.66-2.171 2.84-7.316 7.517-8.419 10.858-1.102 3.34-1.603 5.111-6.113 8.552-4.51 3.441-4.562 10.392-5.145 11.894-.584 1.502.467 3.24.467 3.24l2.506 2.807s1.838-.1 1.871-2.072c.033-1.97 1.07-10.991 5.078-12.428 4.01-1.436 7.951-2.639 8.42-6.581.467-3.942 2.906-8.72 5.478-10.992 2.573-2.271 4.41-5.78 4.677-11.292s1.838-11.192 2.907-12.628 1.67-2.74 1.67-2.74z" paint-order="stroke fill markers" opacity="1" data-original="#f51a31"></path><path fill="#ffcc00" d="M63.71 61.004s7.283-1.837 9.355-1.87c2.071-.034 2.505-.034 2.505-.034s-5.412 5.412-5.679 11.626c-.267 6.214-1.604 12.462-4.577 15.235-2.973 2.772-6.916 7.116-7.216 11.158-.301 4.043-.167 7.016-4.043 9.689-3.875 2.672-7.25 3.641-9.12 5.712-1.871 2.072-2.907 4.711-3.04 4.711-.134 0-4.711 1.637-4.945 1.938s-1.437-1.203-1.437-1.203.535-6.949 2.807-9.99 7.784-3.774 9.621-5.445 1.136-7.016 3.408-10.19c2.272-3.173 7.083-8.017 7.751-11.024.668-3.007.267-10.624 2.038-13.998 1.77-3.375 2.572-6.315 2.572-6.315z" paint-order="stroke fill markers" opacity="1" data-original="#ffcc00"></path><path fill="#bad42a" d="m75.57 59.1 7.45.501s-4.777 3.508-5.579 9.588c-.801 6.08-.701 12.996-1.67 15.87-.969 2.873-9.755 8.218-10.457 14.131-.702 5.914-1.804 11.26-5.312 13.33-3.508 2.072-5.58 4.778-5.813 6.214-.234 1.437-2.773-.1-2.773-.1s-1.77-.5-2.94.3c-1.17.803-1.437 1.037-1.437 1.037s-4.009-2.807-4.343-2.773c-.334.033.167-2.773 3.274-5.179 3.107-2.405 5.88-2.639 7.985-4.31 2.105-1.67 3.976-4.576 4.31-9.42.334-4.845 5.947-10.658 8.552-13.297 2.606-2.64 2.64-9.02 3.107-12.027.468-3.007.735-6.716 2.84-9.923S75.57 59.1 75.57 59.1z" paint-order="stroke fill markers" opacity="1" data-original="#bad42a"></path><path fill="#00ceff" d="m83.02 59.601 4.778.969s-4.443 7.316-5.011 9.421c-.568 2.105 1.436 9.589-1.203 16.203-2.64 6.615-5.713 8.219-5.713 8.219s-4.577 4.911-5.646 8.118c-1.069 3.208-.768 7.283-.768 7.751s-.034 4.143-.401 5.48c-.368 1.335-1.036 3.54-6.114 3.04-5.078-.502-8.386 1.302-7.65-1.003.734-2.305 5.01-5.078 7.082-6.916 2.071-1.837 2.439-7.517 3.14-10.557.702-3.04 1.637-6.347 5.814-9.655 4.176-3.307 5.88-7.25 5.646-11.192-.234-3.942.367-11.492 1.937-14.533 1.57-3.04 4.11-5.345 4.11-5.345z" paint-order="stroke fill markers" opacity="1" data-original="#00ceff"></path><path fill="#b800c4" d="M87.798 60.57s-3.575 6.481-3.675 7.15c-.1.668 5.546-2.44 7.985-1.972 2.439.468-1.103-.1-.702-2.271.401-2.172-3.608-2.907-3.608-2.907z" paint-order="stroke fill markers" opacity="1" data-original="#b800c4"></path><path fill="#c3e2ff" d="M56.795 61.171s-1.871-.801-5.145 1.37-2.873 3.642-2.873 3.642 5.479.735 5.913.735c.434 0 2.105-5.747 2.105-5.747z" paint-order="stroke fill markers" opacity="1" data-original="#c3e2ff"></path><path fill="#b800c4" d="M83.722 68.087s-.668 2.272-.4 5.145c.267 2.873.267 12.227-3.81 17.573-4.075 5.345-7.683 7.417-9.621 11.225-1.938 3.809.535 9.355 0 11.225-.535 1.871-1.002 4.61-1.002 4.61s5.211.803 6.147-2.739c.935-3.541 1.069-8.419 4.744-13.296 3.675-4.878 8.486-10.691 8.486-17.373s1.102-16.036 1.102-16.036z" paint-order="stroke fill markers" opacity="1" data-original="#b800c4"></path><path fill="#c3e2ff" d="M92.241 65.681c-8.519 2.406-6.247 1.57-5.345 1.972.902.4 6.08 1.236 7.884 1.202 1.805-.033 14.4.067 20.547-.4 6.147-.468 6.247-1.103 4.21-2.172-2.039-1.07-2.607-1.337-1.103-3.508s.5-7.317-1.838-8.018-5.612 1.002-6.28 2.272c-.669 1.27-1.871 2.138-2.74 1.303-.869-.836-.568-3.241-1.804-4.845-1.236-1.603-4.243-4.91-7.35-.167-3.107 4.744-2.973 6.816-2.973 6.816s-2.473.1-3.542 1.403.334 4.142.334 4.142zM17.573 68.388s.635 1.169 11.292 1.37c10.657.2 21.415-.836 23.854-1.504s2.171-1.704.768-1.938-4.71-.133-4.71-.133 1.102-2.573-.769-2.573-1.704.334-.969-2.572c.735-2.907 1.27-8.185-3.574-9.221-4.845-1.036-9.054 5.68-9.054 5.68l-.501 1.102s-1.136-1.07-2.54-.702c-1.402.368-1.67.902-1.67.902s-5.011-1.303-6.648 2.573c-1.637 3.875.1 5.646.1 5.646s-6.448.601-5.579 1.37z" paint-order="stroke fill markers" opacity="1" data-original="#c3e2ff"></path><g stroke-width=".242"><path d="M22.737 124.4c-.43-1.133 1.775-2.598 3.148-2.09.693.257.692.62-.003.834-.299.093-1.011.48-1.583.863-1.157.773-1.394.833-1.562.392zm39.778-2.274c-.198-.517.348-1.471 1.207-2.109 1.424-1.058 3.663-.367 4.134 1.275.354 1.233-.155 1.48-1.057.515-.65-.696-.848-.775-1.62-.65-.483.078-1.167.418-1.519.756-.75.72-.937.754-1.145.213zm-15.18-.998c-.998-1.556-2.93-2.542-5.24-2.672-1.49-.085-1.837-.013-3.218.667-.92.453-1.933 1.2-2.498 1.84-.522.594-1.017 1.08-1.1 1.08-.083 0-.15-.278-.15-.617 0-1.637 2.156-3.758 4.549-4.475.555-.166 1.01-.37 1.01-.454 0-.365 4.796-5.87 5.56-6.38.464-.311 1.77-.916 2.9-1.344 4.564-1.73 6.866-4.204 7.472-8.03l.516-3.291c.311-1.996 1.59-4.816 3.07-6.77.528-.697 2.07-2.484 3.429-3.971 3.61-3.954 4.102-5.175 4.612-11.44.598-7.353 1.565-10.384 4.542-14.237l1.101-1.425-.95.165c-2.845.492-8.478 1.983-8.73 2.312-.599.778-2.526 4.623-2.994 5.975-.606 1.747-1.188 5.47-1.19 7.615-.002 2.205-.43 5.128-.985 6.709-.693 1.977-1.812 3.663-4.065 6.128-3.336 3.65-4.392 5.675-4.877 9.358-.554 4.196-1.709 5.572-5.786 6.889-2.919.943-4.68 2.138-5.691 3.865-.853 1.454-2.284 5.828-2.291 7-.006 1.038-.337 2.732-.581 2.976-.08.08-.265.028-.41-.117-.315-.316-.32-5.56-.005-5.96.117-.15.404-.87.637-1.6 1.383-4.337 3.288-6.147 8.26-7.853 3.055-1.047 3.785-1.955 4.225-5.258.543-4.068 1.917-6.7 5.648-10.82 3.346-3.694 3.96-5.445 4.441-12.69.325-4.887 1.482-8.74 3.47-11.555.264-.374.44-.712.392-.752-.047-.04-1.1-.142-2.339-.227l-2.252-.153-.877 1.872c-.624 1.332-.88 2.218-.89 3.07-.012 1.095-.087 1.249-.86 1.768-.464.312-.92.806-1.01 1.097-.09.291-.345 2.1-.566 4.02C52.862 79.98 52 81.796 46.79 87.8c-3.066 3.534-4.04 5.112-4.933 7.986-.876 2.82-1.588 3.725-4.692 5.965-1.088.786-2.334 1.834-2.768 2.328-1.7 1.936-2.737 5.143-3.045 9.42l-.16 2.211.748.387c1.108.573 2.02 1.908 2.162 3.167.154 1.369-.38 1.49-1.11.254-.79-1.34-2.324-2.31-3.64-2.304-1.398.007-3.023.73-4.19 1.865-.966.94-1.302.931-1.06-.028.367-1.466 2.45-3.052 4.689-3.568l1.261-.291.003-2.195c.002-3.774 1.133-7.367 3.066-9.75.459-.565 1.9-1.784 3.204-2.708 2.873-2.037 3.487-2.735 3.994-4.538 1.007-3.583 2.107-5.386 5.94-9.732 4.082-4.632 4.96-6.41 5.924-12.014.33-1.922.761-3.878.957-4.347.321-.767.318-.837-.025-.705-.21.08-1.323.207-2.476.282-1.152.075-3.4.374-4.995.665-2.649.482-3.676.527-11.844.521-7.206-.005-9.507-.088-11.844-.427a409.57 409.57 0 0 0-3.712-.527c-1.242-.16-1.969-.743-1.969-1.577 0-1.044 1.053-1.513 3.7-1.646 1.85-.093 2.108-.158 1.965-.5-1.082-2.567-.024-6.025 2.345-7.667 1.23-.851 3.57-1.097 4.731-.496.7.361.755.352 1.289-.216.645-.687 1.997-.797 2.753-.226.436.33.513.27 1.158-.914.977-1.791 3.176-3.935 4.922-4.797 2.931-1.449 5.635-1.188 7.617.734 2.18 2.115 2.504 5.72.831 9.262l-.542 1.148h.636c.35 0 .883.173 1.184.384.524.367.593.341 1.597-.584 2.137-1.97 3.153-2.226 9.686-2.445 5.009-.168 5.493-.226 8.34-1.002 2.952-.806 3.126-.825 7.613-.816 2.526.005 5.572.147 6.768.315 3.133.44 6.904 1.41 7.665 1.972.36.266.705.484.767.484s.435-.323.83-.718c.443-.443 1.08-.776 1.66-.869.932-.149.944-.164 1.217-1.601.502-2.64 2.469-5.827 4.365-7.074 3.876-2.547 8.03.314 8.03 5.53 0 1.528.004 1.535.741 1.644.657.096.793.005 1.207-.805 1.1-2.157 3.55-3.721 5.827-3.721 1.769 0 3.098.887 4.165 2.78.676 1.197.747 1.521.724 3.263-.027 2.007-.707 4.36-1.433 4.963-.622.516-.391.643 1.46.8 2.394.202 3.505.664 3.505 1.459 0 .898-.542 1.278-2.436 1.71-2.465.56-5.349.786-14.366 1.128-6.479.245-8.638.244-11.482-.01-1.926-.172-3.937-.274-4.468-.226l-.966.086-.307 1.934c-.169 1.064-.399 5.143-.51 9.064-.183 6.408-.26 7.303-.75 8.823-1.138 3.53-2.803 6.296-7.435 12.361-2.739 3.586-3.502 5.24-4.39 9.514-.867 4.183-1.159 5.077-1.655 5.077-.322 0-.354-.315-.226-2.236.213-3.215.993-6.531 2.06-8.763.545-1.139 2.176-3.594 3.97-5.974 1.675-2.222 3.488-4.785 4.029-5.694 2.212-3.724 3.1-7.707 2.821-12.662-.183-3.265.173-7.72.796-9.968l.434-1.564-2.2-.08c-1.209-.043-2.307.01-2.44.118-.153.125-.212 2.22-.162 5.683.07 4.85.02 5.778-.436 8.006-1.108 5.414-2.664 8.115-7.714 13.397-3.542 3.704-4.809 5.48-5.442 7.634-.48 1.631-.485 2.717-.024 5.334.2 1.13.362 2.528.362 3.105 0 1.19-1.366 5.839-1.716 5.839-.39 0-.748-1.286-.606-2.175.074-.466.294-1.415.488-2.11.322-1.15.31-1.542-.132-4.35-.946-6.015.068-8.45 6.142-14.746 4.073-4.223 5.13-5.74 6.26-8.997 1.11-3.197 1.258-4.458 1.273-10.89l.015-6.163.903-1.892c.497-1.04 1.509-2.82 2.249-3.956.74-1.135 1.312-2.086 1.272-2.113-.214-.146-2.741-.62-3.303-.62-1.462 0-4.464 4.795-5.221 8.34-.2.93-.475 3.65-.612 6.042-.455 7.913-.884 10.162-2.408 12.631-.39.63-2.21 2.623-4.046 4.427-2.366 2.325-3.532 3.665-4.005 4.602-.742 1.468-1.415 4.159-1.968 7.867-.673 4.513-1.929 6.951-4.542 8.82-3.086 2.206-3.483 2.556-4.342 3.833-1.018 1.515-1.278 1.67-1.647.98-.385-.719.083-2.241 1.015-3.303.418-.477 1.529-1.389 2.468-2.027 3.28-2.232 4.397-3.955 5.088-7.857 1.647-9.303 1.555-9.105 6.546-14.087 5.15-5.14 5.518-5.998 5.918-13.831.436-8.528 1.415-12.112 4.278-15.665.462-.572.8-1.074.752-1.115-.048-.041-1.076-.147-2.283-.234l-2.196-.16-1.203 1.275c-1.55 1.642-3.042 4.181-3.802 6.472-.656 1.98-.971 4.016-1.364 8.822-.483 5.906-1.288 7.737-5.299 12.064-4.27 4.604-5.412 6.693-5.96 10.887-.19 1.47-.468 3.052-.614 3.517-.487 1.547-1.629 3.282-3.055 4.642-1.53 1.459-2.714 2.138-5.813 3.333-1.943.75-2.075.851-4.107 3.186-1.155 1.327-2.128 2.49-2.163 2.585-.035.094.408.298.984.452.577.155 1.628.67 2.336 1.147l1.288.867.536-.504c1.58-1.485 4.322-.736 4.919 1.343.212.74-.028 1.803-.407 1.803-.118 0-.381-.427-.586-.949-.307-.782-.546-1-1.354-1.243-1.313-.393-2.573.058-2.344.84.679 2.312.218 2.754-.958.92zm1.07-52.843c1.786-.216 3.69-.518 4.23-.672l.985-.281-.967-.186a14.261 14.261 0 0 0-2.082-.2c-1.89-.025-3.357-.3-3.357-.632 0-.17.27-.509.6-.753.92-.68.447-1.18-1.059-1.118-1.506.063-1.597-.205-.794-2.346.416-1.11.625-2.259.71-3.908.108-2.063.06-2.465-.41-3.435-1.858-3.84-7.544-2.356-10.932 2.852-.513.788-1.056 1.848-1.209 2.357-.435 1.454-1.153 1.021-1.164-.702-.004-.646-.92-.963-1.653-.57l-.486.26.5 1.183c.461 1.092.467 1.976.012 1.954-.104-.005-.483-.435-.842-.954-.793-1.147-1.556-1.673-2.692-1.857-1.142-.186-1.9.029-2.81.796-1.339 1.126-1.774 2.32-1.646 4.523.082 1.419.216 2 .512 2.216.767.562.397.803-1.473.964-1.03.088-2.363.249-2.961.356l-1.088.195 1.209.056c.664.03 2.296.14 3.625.242 4.29.332 21.6.099 25.243-.34zm-18.05-3.348c.151-.457.906-.522.906-.078 0 .224-.207.38-.504.38-.295 0-.462-.125-.403-.302zm4.048-1.244c0-.424 1.587-1.838 2.063-1.838.6 0 .393.717-.425 1.464-.824.753-1.638.939-1.638.374zm70.702 4.21c8.9-.438 13.398-.74 13.921-.933.415-.153.237-.264-.965-.598-1.745-.485-1.831-.777-.857-2.905 1.42-3.104 1.313-5.708-.303-7.325-.696-.696-.98-.813-1.967-.813-2.332 0-5.357 2.265-5.357 4.012 0 .43-.066.955-.147 1.165-.217.566-.775.463-.863-.16-.107-.748-1.169-1.229-2.01-.909-.908.346-1.195.078-.71-.662.888-1.355-.494-5.894-2.039-6.693-1.774-.917-3.752-.035-5.685 2.537-1.335 1.775-1.675 2.389-2.082 3.754-.28.937-.262 1.023.349 1.633.845.845.62 1.127-.779.977-1.953-.21-3.438 1.252-3.438 3.386 0 .773.07.87.62.87.749 0 1.618.429 1.444.711-.07.113-1.188.394-2.485.627-5.527.991-5.514.963-.545 1.177 2.46.106 5.07.28 5.8.386.732.106 1.71.153 2.176.104.466-.05 3.13-.203 5.922-.34zm1.33-1.73c0-.331.725-.915 1.148-.926.44-.011.37.492-.12.864-.525.398-1.028.428-1.028.061zm-3.384-.79c0-.375 1.198-.869 2.11-.869.363 0 .55.116.49.302-.25.754-2.6 1.267-2.6.568zm-15.712.339a37.443 37.443 0 0 1 2.496-.367c1.116-.123 1.38-.23 1.269-.518-.076-.2-.14-.765-.14-1.258 0-.835-.087-.942-1.314-1.606-.723-.391-1.355-.66-1.404-.596-.05.064-.564.931-1.143 1.928-.58.997-1.225 2.08-1.435 2.406-.364.565-.36.584.1.408.265-.102.972-.28 1.57-.397zM55.21 64.21c.21-.83.473-1.716.583-1.967.183-.419.12-.443-.746-.29-1.452.258-3.261 1.224-4.318 2.307l-.955.978 1.197.014c.659.008 1.632.104 2.164.214 1.686.349 1.665.361 2.075-1.257zm27.936 56.682c-2.08-3.293-6.005-3.674-9.094-.884-.817.738-1.054.848-1.23.568-.777-1.239 2.067-3.692 4.887-4.217 1.34-.249 3.307.42 4.611 1.569 1.207 1.062 1.392 1.145 1.392.622 0-.461.937-1.101 1.614-1.101 1.32 0 2.451 1.173 2.124 2.203-.184.581-.511.582-.821.003-.395-.737-1.621-.798-2.857-.14-.034.018.056.37.2.784.171.491.182.895.03 1.167-.2.358-.319.28-.856-.572zm6.126-2.552c0-.587.91-1.581 1.934-2.112.332-.173 1.275-.322 2.095-.332 1.26-.015 1.588.073 2.115.568.732.687.873 1.627.2 1.34-1.404-.602-3.992-.352-5.257.507-1.063.722-1.087.722-1.087.03zm-3.142-7.024c0-.183.163-.795.362-1.36.357-1.01.49-2.417.23-2.417-.361 0-1.693.847-2.551 1.622-.668.603-1.04.793-1.215.619-.35-.35.246-1.42 1.401-2.515 1.693-1.604 2.849-1.849 3.689-.781.647.823.63 1.614-.07 3.117-.78 1.675-1.846 2.665-1.846 1.715zm-67.15-5.518c-.16-.16-.29-.645-.29-1.079 0-.903.508-1.29 1.692-1.29 1.011 0 1.612.352 2.052 1.202.433.838.08 1.227-.575.635-.235-.212-.772-.386-1.193-.386-.657 0-.767.086-.767.604 0 .644-.439.794-.919.314zm79.96-3.095c0-.133.214-.64.474-1.126.572-1.066.463-1.32-.483-1.13-.552.11-.716.055-.716-.241 0-.619.992-1.37 1.81-1.37.997 0 1.333.385 1.333 1.524 0 .75-.168 1.11-.822 1.764-.792.792-1.595 1.084-1.595.58zm-71.27-3.7c-.154-.187-.4-.94-.548-1.673-.214-1.063-.2-1.476.063-2.029.646-1.353 2.45-.909 2.68.66.121.827-.159 1.116-.67.692-.39-.324-.428-.198-.457 1.574-.018 1.033-.539 1.412-1.067.775zm8.147-10.379c-.492-.91-.558-4.273-.113-5.802.754-2.596 2.962-3.465 4.462-1.757.71.81 1.235 2.394.902 2.726-.088.088-.566-.31-1.061-.885-.617-.717-1.052-1.018-1.38-.957-.994.184-1.974 3.552-1.73 5.95.115 1.13.079 1.27-.328 1.27-.252 0-.59-.246-.752-.545z" fill="#000000" opacity="1" data-original="#000000"></path><path fill="#00ceff" d="M93.73 20.668c-.257-1.023.701-6.074 1.506-7.935.952-2.202 4.931-2.048 6.014.233.65 1.371-.112 2.759-2.303 4.194l-.588.385.654.428c1.494.98.012 1.494-2.117.736-.527-.188-.97-.319-.987-.292-.015.028-.238.648-.494 1.38-.353 1.007-.595 1.347-1 1.405-.399.057-.57-.077-.685-.534zm5.393-5.936c.299-.283.544-.67.544-.862 0-.47-.973-1.076-1.992-1.24l-.835-.136-.156 1.415c-.086.779-.226 1.67-.312 1.98l-.157.566 1.182-.604c.65-.333 1.427-.836 1.726-1.119zm-58.809 5.68c-.425-.426-.593-.858-.593-1.528 0-2.69 2.567-7.79 3.92-7.79.826 0 .74.739-.362 3.095-1.041 2.226-1.62 3.872-1.623 4.615 0 .267.298.305 1.455.184.801-.084 1.698-.21 1.994-.279.296-.07.697-.023.89.103.547.355-.28 1.12-1.844 1.704-1.815.68-3.088.644-3.837-.104zm45.937-.276c-.346-.374-.65-1.082-.752-1.753-.325-2.142 1.236-6.322 2.361-6.322.566 0 .568-.05-.165 3.384-.469 2.193-.368 3.385.285 3.385.744 0 1.951-1.66 2.978-4.093.566-1.342 1.13-2.502 1.254-2.578.123-.077.395.003.603.175.767.636.016 3.777-1.445 6.042-1.442 2.237-3.895 3.08-5.119 1.76zm-14.38-.215c-.27-.709-.284-2.104-.03-3.01.104-.377.004-.915-.28-1.487-.306-.619-.42-1.3-.37-2.19.063-1.105.144-1.293.554-1.293.365 0 .593.32.947 1.329.257.731.501 1.373.543 1.426.042.053.947-.736 2.011-1.752 1.896-1.811 2.773-2.24 3.06-1.493.075.196-.087.718-.36 1.16-.658 1.065-3.403 3.687-4.086 3.904-.443.14-.543.355-.554 1.183-.016 1.21-.474 2.628-.891 2.765-.166.054-.41-.19-.544-.542zm7.081.311c-.804-.388-1.363-1.764-1.18-2.906.223-1.396.908-2.57 2.282-3.912.959-.936 1.374-1.18 1.977-1.164 2.305.066 3.225 3.752 1.536 6.156-1.222 1.738-3.188 2.516-4.615 1.826zm2.475-2.452c.444-.444.88-1.097.97-1.452.217-.868-.084-2.39-.45-2.269-.492.162-1.828 2.08-2.077 2.982-.467 1.691.26 2.036 1.557.74zm-33.023 1.793c-.588-.588-.705-.901-.7-1.873.003-.642.285-1.928.625-2.859.34-.93.675-2.099.744-2.596.112-.808.228-.935 1.09-1.193 1.736-.52 4.926.483 4.115 1.294-.159.159-1.071.35-2.028.425-1.627.128-1.75.178-1.91.774-.167.629-.15.64 1.257.741 2.689.194 2.422 1.23-.394 1.531l-1.525.163-.108.881c-.06.484-.062 1.006-.007 1.16.123.336.885.559 1.927.563 1.32.006 1.333.98.02 1.437-1.34.467-2.335.323-3.106-.448zm8.482-.135c-.389-.469-.145-2.887.477-4.715.248-.73.432-1.335.409-1.345-.024-.01-.477-.12-1.008-.245-1.207-.282-1.429-.952-.443-1.337.9-.351 4.06-.137 5.238.355.65.272.897.51.839.812-.066.344-.372.442-1.57.5l-1.49.07-.167 1.017c-.26 1.582-1.289 4.676-1.653 4.98-.25.206-.403.184-.632-.092z" opacity="1" data-original="#00ceff"></path><path fill="#ffcc00" d="M77.726 55.892c-.17-.068-.49-.467-.711-.887-.829-1.568-.299-5.665 1.324-10.239.611-1.722.658-2.027.356-2.328-.429-.43-.138-1.087 1.034-2.337.69-.737 5.542-9.884 5.346-10.08-.253-.253-7.738 5.344-9.078 6.789-.676.729-1.038.788-1.489.245-.573-.69.741-2.7 3.517-5.373 5.364-5.167 13.231-9.227 17.878-9.227 3.034 0 5.456 1.232 5.456 2.776 0 1.003-.42 1.178-1.718.72-1.746-.616-4.999-.299-8.011.78l-1.148.412-2.205 4.34c-1.65 3.247-2.092 4.301-1.753 4.19.249-.08 1.214-.42 2.145-.754 2.39-.857 3.988-.812 3.988.114 0 .314-.836.9-2.888 2.03-6.163 3.389-5.62 2.923-6.855 5.876-1.81 4.325-3.552 9.921-3.552 11.415 0 1.155-.775 1.885-1.636 1.538zM8.41 53.144c-1.054-1.165-.618-5.437 1.344-13.164 2.052-8.084 3.585-12.068 4.756-12.362.816-.205 1.382.163 1.478.96.041.348-.573 3.11-1.365 6.139-1.85 7.068-2.81 11.004-3.66 14.999-.376 1.765-.817 3.37-.98 3.565-.412.498-1.048.443-1.573-.137zm5.785.308c-.936-.626-1.19-2.695-.716-5.848.708-4.705 3.762-15.22 5.406-18.607.747-1.54.965-1.633 3.948-1.679 3.35-.052 5.736 1.232 6.887 3.705 1.964 4.217-1.063 12.032-6.887 17.783-2.432 2.402-4.699 3.864-5.99 3.864-.432 0-.808.182-.996.483-.301.483-1.147.635-1.652.299zm6.618-7.16c5.804-6.046 8.218-13.398 5.041-15.355-.567-.35-4.457-1.333-4.513-1.14-.175.599-1.958 7.437-2.75 10.545-1.046 4.107-2.075 8.867-2.075 9.597 0 .485 1.78-1.026 4.297-3.647zm11.009 2.12c-1.752-.863-1.95-3.154-.697-8.071 1.25-4.906 3.002-10.889 3.468-11.843.283-.578.605-.87 1.019-.92.332-.04 1.124-.24 1.76-.444a13.682 13.682 0 0 1 5.697-.545c2.171.243 2.996.706 2.89 1.621-.09.777-.464.863-5.755 1.322-3.463.3-3.505.31-3.565.904-.068.665-.515 3.033-.691 3.66-.1.355.138.397 2.033.363 2.28-.041 2.948.205 2.948 1.085 0 .537-.455.743-3.618 1.63l-2.29.641-.798 3.258c-.44 1.792-.769 3.557-.732 3.922l.066.664 2.78-.991c5.314-1.896 6.387-2.026 6.24-.76-.187 1.6-6.36 4.907-9.124 4.889-.475-.003-1.209-.176-1.631-.385zm25.302-.275c-.627-.313-.866-.603-.925-1.121-.096-.84.254-1.105 1.46-1.11 1.235-.005 3.4-.856 4.288-1.685 1.062-.992.977-1.87-.525-5.391-1.254-2.94-1.263-2.977-1.263-5.497 0-2.968.4-4.114 2.08-5.936 1.611-1.748 3.4-2.482 5.002-2.05 1.22.328 2.03 1.209 1.927 2.099-.07.617-.18.696-1.045.754-1.57.105-1.998.263-2.935 1.085-2.334 2.05-2.354 4.329-.084 9.598 1.424 3.305 1.211 5.711-.675 7.622-1.895 1.92-5.235 2.666-7.305 1.632zm34.176.187c-2.398-.97-1.995-4.58 1.322-11.83 2.333-5.1 4.59-8.48 5.66-8.48.551 0 1.143.672 1.143 1.296 0 .295-.867 2.303-1.927 4.463-2.694 5.488-4.802 10.92-4.239 10.92.218 0 2.085-1.094 4.134-2.423 2.033-1.319 3.098-1.792 3.599-1.6.728.28.335 1.091-1.386 2.864-2.164 2.228-4.038 3.714-5.62 4.456-1.277.598-1.854.67-2.686.334zm-38.49-1.472c-.608-.653-.762-1.5-.762-4.209v-2.23l-1.631-.153c-.898-.084-1.664-.058-1.703.058-.04.116-.583 1.23-1.209 2.474-.99 1.972-1.225 2.274-1.816 2.342-1.015.116-1.45-.365-1.281-1.418.368-2.301 4.7-11.446 7.094-14.974 1.48-2.181 2.615-3.144 3.705-3.144.998 0 1.414.226 1.806.984.505.978.44 2.604-.257 6.295-.818 4.344-1.784 10.08-2.04 12.113-.291 2.323-.912 2.93-1.906 1.862zm.474-12.553c.366-1.794.672-3.372.678-3.504.016-.349-1.155 1.567-2.61 4.272-1.234 2.291-1.248 2.34-.705 2.45.306.061.874.097 1.263.078l.707-.032zm50.543 11.082c-1.194-.335-1.741-1.411-1.742-3.427-.003-3.984 3.007-11.346 5.292-12.948.858-.601 2.339-1.057 2.879-.885 1.61.511 2.669 3.402 2.245 6.132-.803 5.178-4.331 10.623-7.275 11.227-.332.069-.962.024-1.399-.099zm3.932-7.016c1.232-2.46 1.627-4.11 1.528-6.396l-.073-1.658-.685 1.145c-1.48 2.47-3.011 6.78-3.414 9.61l-.155 1.087.874-.845c.48-.465 1.347-1.79 1.925-2.943zm5.103 6.31c-1.136-1.35-.843-3.167 1.786-11.105.783-2.363 1.762-4.967 2.175-5.786.709-1.404.797-1.486 1.527-1.415.748.072.777.117.845 1.283.052.896-.238 2.242-1.12 5.197-1.783 5.977-2.255 7.732-2.156 8.026.122.369 1.658-1.786 2.574-3.61.817-1.63 1.468-2.024 2.655-1.606.511.18.698.497 1.022 1.735.218.833.457 1.575.53 1.65.238.237.826-1.186 1.23-2.98.454-2.014.539-8.932.13-10.702-.21-.915-.187-1.126.151-1.373 1.174-.858 2.533 1.327 3.162 5.085.343 2.05.358 2.732.107 4.806-.674 5.563-2.498 8.635-4.938 8.315-.552-.072-1.203-.38-1.596-.757l-.663-.635-.439.67c-.799 1.22-2.627 3.017-3.544 3.485-.496.253-1.332.46-1.857.46-.77 0-1.077-.144-1.581-.743z" opacity="1" data-original="#ffcc00"></path></g></g></svg>