<svg xmlns="http://www.w3.org/2000/svg" version="1.1" xmlns:xlink="http://www.w3.org/1999/xlink" width="512" height="512" x="0" y="0" viewBox="0 0 128 128" style="enable-background:new 0 0 512 512" xml:space="preserve" class=""><g><path fill="#f2eecc" d="M125.98 55.9c.453-12.807-14.659-19.985-22.19-9.72-1.484-6.261-11.029-6.534-12.89-.37-1.576-5.36-8.887-4.325-13.17-4.35a6.764 6.764 0 0 0-6.45 4.76c-5.824-6.852-9.961-4.164-16.88-4.759-5.139.326-16.282-2.043-17.07 5.7a6.229 6.229 0 0 0-6.34-1.61c-2.163-2.181-2.794-6.085-7.141-5.819-3.242-.376-4.349 2.79-6.689 3.61a6.244 6.244 0 0 0-7.26.039c-3.133 1.8-1.968 5.381-2.9 7.92a6.191 6.191 0 0 0-5.12 5.059c-1.02 3.532 2.384 5.289 3.531 7.75a6.272 6.272 0 0 0 1.919 9.01c-1.273 4.456-.617 10.016 4.33 11.68 3.909 5.2 11.062 2.958 15.82.46 2.828-1.778 3.133-5.062 3.62-8.04 10-7.091 2.034 9.131 12.89 9.14 2.147-.3 11.564.659 13.39-.71 4.877 1.975 10.314-.052 13.86-4.21a6.749 6.749 0 0 0 6.49 4.92c2.668-.186 8.516.7 10.7-1.2a6.772 6.772 0 0 0 8.87-1.06 6.776 6.776 0 0 0 9.74.32c13.17 8.7 25-12.238 15.56-22.67a6.753 6.753 0 0 0 3.38-5.85z" opacity="1" data-original="#f2eecc" class=""></path><path fill="#f9c732" d="M23.514 74.712 15.25 73.4a17.308 17.308 0 0 0-2.634-8.217 10.641 10.641 0 1 1 15.971 2.527 17.541 17.541 0 0 0-5.073 7.002z" opacity="1" data-original="#f9c732"></path><path d="M23.514 74.962h-.04l-8.264-1.319a.251.251 0 0 1-.21-.235 17.142 17.142 0 0 0-2.6-8.1A10.89 10.89 0 1 1 28.749 67.9a17.378 17.378 0 0 0-5 6.905.25.25 0 0 1-.235.157zm-8.025-1.782 7.865 1.254a17.954 17.954 0 0 1 5.07-6.918 10.39 10.39 0 1 0-15.595-2.468 17.713 17.713 0 0 1 2.66 8.132z" fill="#ff69b4" opacity="1" data-original="#ff69b4" class=""></path><path fill="#956e51" d="M13.374 74.813a1.427 1.427 0 0 0 1.2 1.4l8.7 1.392a1.428 1.428 0 0 0 1.626-1.179 1.635 1.635 0 0 0 .02-.22 1.437 1.437 0 0 0-1.2-1.4l-8.705-1.382a1.422 1.422 0 0 0-1.623 1.172 1.635 1.635 0 0 0-.018.217z" opacity="1" data-original="#956e51"></path><path d="M23.5 77.875a1.558 1.558 0 0 1-.253-.02l-8.706-1.392a1.684 1.684 0 0 1-1.413-1.65 1.994 1.994 0 0 1 .022-.256 1.683 1.683 0 0 1 1.909-1.383l8.706 1.382a1.68 1.68 0 0 1 1.413 1.65 1.979 1.979 0 0 1-.022.254 1.693 1.693 0 0 1-1.656 1.415zm-8.7-4.221a1.179 1.179 0 0 0-1.158.981 1.264 1.264 0 0 0-.017.178 1.18 1.18 0 0 0 .991 1.156l8.706 1.392a1.177 1.177 0 0 0 1.337-.976 1.418 1.418 0 0 0 .016-.179 1.18 1.18 0 0 0-.994-1.156l-8.7-1.382a1.231 1.231 0 0 0-.181-.014z" fill="#ff69b4" opacity="1" data-original="#ff69b4" class=""></path><path fill="#956e51" d="M12.933 77.608a1.411 1.411 0 0 0 1.192 1.4l8.7 1.392a1.423 1.423 0 0 0 1.623-1.182 1.635 1.635 0 0 0 .02-.22 1.41 1.41 0 0 0-1.192-1.393l-8.7-1.392a1.418 1.418 0 0 0-1.623 1.172 1.635 1.635 0 0 0-.02.223z" opacity="1" data-original="#956e51"></path><path d="M23.051 80.67a1.614 1.614 0 0 1-.259-.02l-8.706-1.392a1.658 1.658 0 0 1-1.4-1.65 1.816 1.816 0 0 1 .023-.254 1.634 1.634 0 0 1 .669-1.089 1.662 1.662 0 0 1 1.24-.3l8.706 1.392a1.653 1.653 0 0 1 1.4 1.64 2.026 2.026 0 0 1-.022.256 1.674 1.674 0 0 1-1.65 1.413zm-8.7-4.222a1.174 1.174 0 0 0-.686.222 1.144 1.144 0 0 0-.467.757 1.308 1.308 0 0 0-.017.181 1.161 1.161 0 0 0 .981 1.156l8.706 1.392a1.174 1.174 0 0 0 1.336-.973 1.368 1.368 0 0 0 .019-.183 1.156 1.156 0 0 0-.981-1.146l-8.7-1.392a1.142 1.142 0 0 0-.189-.014z" fill="#ff69b4" opacity="1" data-original="#ff69b4" class=""></path><path fill="#f4f6f8" d="M21.015 80.11a2.612 2.612 0 0 1-5.069-.807z" opacity="1" data-original="#f4f6f8"></path><path d="M18.558 82.088A2.864 2.864 0 0 1 15.7 79.31a.249.249 0 0 1 .085-.2.255.255 0 0 1 .2-.059l5.069.807a.25.25 0 0 1 .2.332 2.865 2.865 0 0 1-2.696 1.898zM16.224 79.6a2.363 2.363 0 0 0 4.433.707z" fill="#ff69b4" opacity="1" data-original="#ff69b4" class=""></path><path fill="#956e51" d="m20.252 74.255 1.471-9.233" opacity="1" data-original="#956e51"></path><path d="M20.252 74.505h-.04a.25.25 0 0 1-.207-.287l1.471-9.233a.247.247 0 0 1 .287-.207.25.25 0 0 1 .207.287l-1.47 9.229a.251.251 0 0 1-.248.211z" fill="#ff69b4" opacity="1" data-original="#ff69b4" class=""></path><path d="M23.528 65.538a1.751 1.751 0 0 1-.3-.025l-1.551-.24a.249.249 0 0 1-.208-.287l.25-1.552a1.853 1.853 0 0 1 2.072-1.511 1.828 1.828 0 0 1 1.54 1.8 2.069 2.069 0 0 1-.02.26 1.829 1.829 0 0 1-.74 1.215 1.789 1.789 0 0 1-1.043.34zm-1.523-.72 1.3.2a1.287 1.287 0 0 0 .972-.227 1.324 1.324 0 0 0 .536-.869 1.684 1.684 0 0 0 .016-.2 1.325 1.325 0 0 0-1.113-1.306 1.716 1.716 0 0 0-.2-.017 1.327 1.327 0 0 0-1.306 1.114z" fill="#ff69b4" opacity="1" data-original="#ff69b4" class=""></path><path fill="#956e51" d="m18.491 73.974 1.471-9.233" opacity="1" data-original="#956e51"></path><path d="M18.491 74.224h-.04a.25.25 0 0 1-.207-.286l1.471-9.238a.25.25 0 1 1 .494.079l-1.471 9.233a.25.25 0 0 1-.247.212z" fill="#ff69b4" opacity="1" data-original="#ff69b4" class=""></path><path d="M19.965 65h-.04l-1.552-.251a1.815 1.815 0 0 1-1.5-2.08 1.812 1.812 0 0 1 3.6.281 2.093 2.093 0 0 1-.018.242l-.246 1.6a.248.248 0 0 1-.1.164.251.251 0 0 1-.144.044zm-1.512-.747 1.3.21.2-1.3a2.009 2.009 0 0 0 .017-.212 1.321 1.321 0 0 0-1.114-1.3 1.337 1.337 0 0 0-1.494 1.095 1.315 1.315 0 0 0 1.091 1.503z" fill="#ff69b4" opacity="1" data-original="#ff69b4" class=""></path><path d="M21.724 65.272a.26.26 0 0 1-.04 0l-1.762-.281a.25.25 0 0 1 .078-.497l1.762.281a.25.25 0 0 1-.039.5zM23.708 47.153a.283.283 0 0 1-.041 0 .25.25 0 0 1-.207-.287l.147-.921a.25.25 0 1 1 .494.079l-.147.921a.251.251 0 0 1-.246.208zM32.111 52.313a.25.25 0 0 1-.146-.452l.755-.548a.25.25 0 0 1 .293.406l-.755.547a.247.247 0 0 1-.147.047zM10.493 67.99a.25.25 0 0 1-.147-.452l.755-.548a.25.25 0 0 1 .294.4l-.755.548a.253.253 0 0 1-.147.052zM35.326 62.052h-.04l-.921-.147a.25.25 0 1 1 .079-.494l.921.147a.25.25 0 0 1-.039.5zM8.955 57.85h-.039l-.922-.15a.25.25 0 1 1 .078-.494l.922.146a.25.25 0 0 1-.039.5zM29.791 71.065a.252.252 0 0 1-.2-.1l-.547-.755a.25.25 0 0 1 .405-.293l.548.755a.252.252 0 0 1-.056.35.257.257 0 0 1-.15.043zM14.115 49.446a.247.247 0 0 1-.2-.1l-.548-.755a.25.25 0 0 1 .4-.294l.547.755a.25.25 0 0 1-.055.349.242.242 0 0 1-.144.045zM84.789 64.66a.75.75 0 1 0 0-1.5H78.48v-14.2h6.12a.75.75 0 0 0 0-1.5h-6.87a.75.75 0 0 0-.75.75v31.404a.75.75 0 0 0 .75.75h6.87a.75.75 0 0 0 0-1.5h-6.12V64.66zM61.336 47.242h-.969a.75.75 0 0 0-.75.75v31.622a.75.75 0 0 0 .75.75h.969c2.622 0 5.053-1.782 6.845-5.019A24.28 24.28 0 0 0 70.839 63.8c0-9.284-4.174-16.558-9.503-16.558zm5.532 27.376c-1.515 2.738-3.48 4.246-5.532 4.246h-.219V48.742h.219c4.338 0 8 6.9 8 15.061a22.766 22.766 0 0 1-2.468 10.815zM97.292 47.242a.75.75 0 0 0-.741.632L91.514 79.5a.751.751 0 0 0 .623.859.8.8 0 0 0 .119.009.751.751 0 0 0 .74-.632l1.7-10.673h5.191l1.7 10.673a.75.75 0 1 0 1.481-.236l-5.036-31.626a.75.75 0 0 0-.74-.632zm-2.357 20.317 2.357-14.8 2.356 14.8zM54.4 48.955a.75.75 0 1 0 0-1.5H43.989a.75.75 0 1 0 0 1.5h4.457v29.909h-4.457a.75.75 0 0 0 0 1.5H54.4a.75.75 0 0 0 0-1.5h-4.454V48.955zM113.323 63.053c-2.843 0-5.155-3.21-5.155-7.156s2.312-7.155 5.155-7.155 5.155 3.21 5.155 7.155a.75.75 0 1 0 1.5 0c0-4.772-2.985-8.655-6.655-8.655s-6.655 3.883-6.655 8.655 2.985 8.656 6.655 8.656c2.843 0 5.155 3.21 5.155 7.155s-2.312 7.156-5.155 7.156-5.155-3.21-5.155-7.156a.75.75 0 0 0-1.5 0c0 4.773 2.985 8.656 6.655 8.656s6.655-3.883 6.655-8.656-2.985-8.655-6.655-8.655z" fill="#ff69b4" opacity="1" data-original="#ff69b4" class=""></path></g></svg>