<svg xmlns="http://www.w3.org/2000/svg" version="1.1" xmlns:xlink="http://www.w3.org/1999/xlink" width="512" height="512" x="0" y="0" viewBox="0 0 135.467 135.467" style="enable-background:new 0 0 512 512" xml:space="preserve" class=""><g><path fill="#ffffff" d="M59.804 2.85c-4.907 0-9.383 1.591-14.04 4.78-1.93 1.322-4.012 2.303-4.51 2.48-.12.018-.788.163-1.418.265-.841.137-1.903.293-2.936.43-5.04.666-9.268 1.866-12.767 4.133-3.5 2.267-6.03 5.706-7.336 9.615-.658 1.968-.92 3.886-.926 7.115-.008 3.207.205 5.043.87 7.62 1 3.864 2.78 8.202 4.749 11.841-1.767 1.134-3.164 2.91-3.395 5.144-.256 2.484 1.254 5.343 3.528 6.556.118.063.3.075.43.132-2.544 4.747-3.783 8.376-3.778 12.537.006 5.4 1.968 10.37 5.682 14.047a18.895 18.895 0 0 0 11.656 5.424c-.751 1.74-.953 3.869-.613 5.13.404 1.503 1.085 2.601 1.967 3.59.324.365.73.717 1.144 1.063-2.337 2.457-4.23 5.447-5.734 8.703-1.677 3.63-2.926 7.293-2.987 11.041-.013.851-.077 1.376.133 2.52.105.572.239 1.465 1.203 2.611.964 1.146 2.944 1.861 4.016 1.861 1.535 0 3.11-1.074 3.93-1.927a5 5 0 0 0 2.097 1.804c1.118.663 2.417 1.1 3.682.915h.002c-.34.05-.316-.096.578-.096 7.488 0 43.418.658 45.564.351a5.679 5.679 0 0 0 2.528-1.011c.989-.721 6.03-.318 7.228.119 1.199.437 3.793.537 5.524-1.194 1.436-1.435 1.305-2.159 1.4-2.617.095-.458.107-.72.12-.957.024-.475.008-.813-.013-1.187a37.842 37.842 0 0 0-.248-2.543 125.357 125.357 0 0 0-1.103-6.995c-.962-5.212-2.133-9.329-5.023-12.638-2.89-3.31-1.712-5.14-.96-4.776.377.182.7.335.967.46.269.124-.043.078 1.02.417.966.309 1.018.23 1.281.258.263.029.504.047.766.063.524.032 1.11.05 1.72.057 1.82.016 3.948-.393 5.465-1.098 3.055-1.419 5.079-3.726 6.506-6.271 1.427-2.546 2.856-5.68.78-9.536-1.258-2.335-3.791-3.782-6.05-4.13s-4.383.05-6.476.823c-5.007 1.851-7.053-1.277-5.355-3.019 2.346-2.407 4.28-4.319 5.693-6.441 2.088-3.136 3.359-6.962 2.766-10.792-.346-2.23-1.263-4.311-2.44-6.398.981-.253 1.947-.642 2.803-1.338 2.16-1.756 2.885-4.423 2.883-6.658-.002-2.732-1.394-5.628-3.686-7.197-1.102-.755-2.32-1.182-3.564-1.4 1.245-2.98 2.026-5.703 2.023-8.557-.002-2.467-.413-4.665-1.14-6.22-1.946-4.163-6.037-7.07-10.784-8.323-2.112-.558-4.296-.735-8.808-.91-1.522-.06-3.04-.144-4.211-.229-.923-.067-2.023-.258-1.96-.216-.987-.297-2.164-.944-5.384-3.327-2.883-2.133-5.059-3.617-7.514-4.617S62.371 2.85 59.804 2.85z" opacity="1" data-original="#ffffff" class=""></path><path d="M59.898 7.861c-4.084 0-7.003 1.018-11.232 3.914-2.323 1.591-4.603 2.792-6.084 3.205-.562.157-2.797.52-4.968.807-9.227 1.22-14.013 4.32-16.042 10.392-.582 1.743-.662 2.399-.669 5.55-.007 3.111.085 3.935.714 6.366.922 3.568 2.8 8.19 4.661 11.477a187.584 187.584 0 0 1 2.565 4.695c1.69 3.243 1.552 4.147-1.404 9.172-3.474 5.906-4.132 7.848-4.127 12.173.005 4.5 1.234 7.573 4.206 10.516 3.19 3.159 7.103 4.532 11.362 3.988 2.966-.379 4.375-.88 8.67-3.083 3.122-1.6 3.942-1.913 5.289-2.021 1.357-.11 1.796-.03 2.947.533 1.907.933 2.924 2.072 3.134 3.508l.17 1.166-1.107.324c-1.564.458-3.119 1.41-3.445 2.11-.153.327-.942 2.204-1.754 4.17-1.714 4.147-2.44 5.014-6.501 7.772-1.334.906-3.104 2.284-3.934 3.063-3.872 3.637-7.826 12.196-7.905 17.116-.025 1.545.043 1.914.352 1.914.15 0 3.969-.114 8.082.23-.179-.445-.289-1.518-.292-2.91-.005-2.011-.08-2.482-.453-2.76-.246-.184-.63-.686-.852-1.116-.355-.687-.36-.828-.03-1.157.328-.329.437-.306.896.186l.523.562.18-1.24c.218-1.5.519-2.133 1.017-2.133.268 0 .377.307.384 1.085.06 6.473.092 8.766-.023 9.596 5.02.4 11.342.791 16.911.791h37.006s4.227-.58 4.356-.708c.268-.268-.304-4.863-1.229-9.87-1.821-9.866-4.09-12.464-13.283-15.208-1.949-.582-4.37-1.398-5.38-1.814l-1.835-.755-.511-1.577a54.167 54.167 0 0 1-.939-3.365c-.235-.983-.615-2-.844-2.261-.554-.63-1.865-1.277-3.735-1.844-.842-.255-1.571-.49-1.62-.523-.049-.032.432-1.158 1.069-2.502 1.027-2.168 1.232-2.443 1.824-2.443.753 0 1.711-.454 3.59-1.701.956-.635 2.217-1.09 4.851-1.754 4.434-1.117 5.224-1.426 7.134-2.791 2.044-1.462 9.434-9.043 10.771-11.052 3.37-5.06 2.764-8.969-2.485-16.045-2.718-3.664-3.428-5.06-3.425-6.732.003-1.503.157-1.877 3.145-7.592 2.19-4.188 2.716-5.98 2.713-9.257-.002-2.356-.084-2.854-.673-4.115-1.343-2.873-3.642-4.585-7.541-5.614-1.543-.407-3.295-.577-7.738-.749-3.159-.122-6.248-.346-6.864-.497-1.975-.485-3.777-1.51-7.494-4.26-5.569-4.12-7.558-4.932-12.104-4.932zm.17 1.695c4.224.02 5.809.713 11.464 5.009 3.063 2.326 5.338 3.566 7.593 4.14.88.225 3.796.48 7.107.624 6.064.264 7.63.541 10.26 1.82 1.736.845 2.929 2.127 3.509 3.771 1.247 3.536.45 7.029-2.996 13.119-2.129 3.762-2.606 5.055-2.585 7.006.022 2.032.864 3.758 3.837 7.871 1.218 1.685 2.629 3.925 3.136 4.978.809 1.682.92 2.147.915 3.829-.009 2.926-.818 4.233-6.073 9.811-3.423 3.634-5.84 5.746-7.48 6.54-.59.286-2.49.863-4.223 1.282-4.071.984-4.22 1.046-7.234 2.99-2.54 1.639-3.417 2.537-4.79 4.904-.977 1.687-1.975 4.883-1.975 6.33 0 1.259-.001 1.26-.957 1.419-.985.163-6.117.192-6.573.037-.14-.047-.686-.159-1.212-.247l-.958-.16v-1.503c0-1.884-.605-4.817-1.259-6.098-1.335-2.617-4.81-4.246-7.726-3.62-.73.156-3.17 1.198-5.424 2.315-2.31 1.145-4.822 2.198-5.757 2.413-4.422 1.018-8.363.035-11.514-2.872-2.544-2.347-3.853-5.042-4.18-8.608-.348-3.778.776-7.21 4.294-13.12.786-1.318 1.616-2.965 1.847-3.66.62-1.864.41-4.091-.561-5.968-.428-.826-1.77-3.404-2.982-5.729-4.219-8.088-5.759-14.73-4.642-20.024 1.327-6.296 5.893-9.5 15.25-10.704 5.284-.68 6.932-1.28 10.912-3.968 4.555-3.077 6.986-3.947 10.977-3.927zm.151 3.531c-2.147-.02-4.491.34-4.491.925 0 .12 1.522.252 3.382.296 1.86.044 3.756.104 4.212.135.456.03.83-.056.83-.193s-.374-.446-.83-.688c-.597-.316-1.815-.463-3.103-.475zm8.375 4.73c-.472 0-.454.515.042 1.224.22.314.5.51.623.434.333-.206-.25-1.658-.665-1.658zm17.25 4.34c-.528 0-.53.736-.007 1.762.581 1.14 1.29 1.4 1.287.471 0-.675-.894-2.234-1.28-2.234zm-34.963.061c-.156.012-.34.158-.675.463-1.972 1.804-6.638 10.504-9.37 17.472-2.107 5.373-2.75 7.758-2.907 10.78-.157 3.014.106 3.956 1.314 4.693.432.263.933.48 1.113.48 1.543.004 4.48-2.615 7.543-6.726l2.064-2.771.268.795c.396 1.173 1.613 2.58 2.585 2.986.47.196 1.435.356 2.146.356 2.278 0 4.157-1.126 5.758-3.45l.95-1.38.637.5c1.136.894 3.216.535 4.021-.694.555-.846.297-1.078-.855-.77-.544.145-1.18.19-1.414.1-1.414-.543-1.132-5.309.585-9.898l.526-1.406 1.632-.28c1.807-.31 3.107-.837 3.025-1.229-.03-.14-.92-.312-1.981-.382l-1.928-.128.79-1.245c.83-1.305.845-1.946.047-1.946-.577 0-2.102 1.479-2.732 2.649-.411.764-.63.882-2.138 1.16-1.939.357-2.481.677-2.045 1.203.175.21.798.349 1.564.349 1.093 0 1.257.064 1.147.446-.07.246-.429 1.467-.797 2.714-.367 1.246-.74 3.085-.826 4.084-.187 2.145-1.076 3.933-2.886 5.8-2.656 2.742-5.585 1.945-5.84-1.587-.11-1.505-.096-1.546.413-1.273 2.704 1.447 7.197-2.904 7.197-6.969 0-3.37-3.661-3.486-6.656-.21a13.092 13.092 0 0 0-3.032 5.474c-.317 1.136-.857 2.007-2.443 3.94-2.7 3.29-6.66 7.31-7.07 7.176-.77-.253-.491-3.676.607-7.47 1.323-4.57 6.337-15.964 9.37-21.294.966-1.697 1.038-1.934.69-2.283-.131-.13-.229-.209-.332-.226a.265.265 0 0 0-.065-.003zm-20.117.297c-.187-.007-.496.083-.922.285-1.61.764-3.3 3.46-4.134 6.59-.366 1.375-.48 4.044-.187 4.338.268.268.332.109.871-2.16.665-2.796 2.457-6.47 3.783-7.758.82-.797 1-1.28.589-1.295zm61.649 1.08c-1.096-.049-1.12.452-.051 1.083 2.518 1.486 2.78 6.501.621 11.934-.414 1.042-.752 2.007-.752 2.144 0 .453.466.258.997-.417.792-1.008 1.985-3.67 2.46-5.494.636-2.443.431-5.64-.46-7.16-.786-1.342-1.73-2.043-2.815-2.09zm-53.586 1.603c-.693.035-2.193 2.443-1.887 3.234.185.479.198.478.575-.022.66-.876 1.663-2.978 1.498-3.143a.235.235 0 0 0-.186-.07zm42.463 3.294c-2.282.031-4.815 2.034-6.087 4.813-1.101 2.404-.611 4.156 1.975 7.07.838.944 1.524 1.893 1.524 2.107 0 .215-.336.726-.746 1.136-.993.993-2.55 1.047-3.478.12-.64-.64-.741-1.075-.64-2.756.07-1.165-.454-1.29-1.237-.293-1.532 1.947-.288 5.454 2.144 6.045 1.821.443 3.537-.077 4.89-1.48 1.973-2.05 1.83-3.646-.569-6.309-2.112-2.345-2.43-3.288-1.652-4.895.85-1.754 3.408-3.731 4.028-3.112.193.194-.69 2.095-1.74 3.75-.9 1.414-.93 1.763-.153 1.763.923 0 2.61-1.633 3.475-3.364.977-1.956.992-2.775.067-3.81-.595-.667-.896-.798-1.8-.785zm-7.7.557c-.899 0-3.144 4.344-2.654 5.137.436.705 1.316-.183 2.503-2.525.826-1.63.883-2.612.152-2.612zm-16.136 7.658c.512 0 .265 1.224-.613 3.024-.482.99-.986 1.57-1.833 2.106-1.338.85-2.345.976-2.34.294.002-.486 1.223-2.662 1.994-3.556.645-.746 2.321-1.868 2.792-1.868zm45.862 4.711c-.359.01-.734.052-1.122.126-3.737.72-2.663 5.937 1.413 6.867 2.476.565 3.942-.627 3.939-3.204-.002-2.385-1.72-3.859-4.23-3.789zm-74.14.905c-.582 0-.525.649.105 1.19.724.623 1.3.76 1.544.365.147-.238-1.251-1.555-1.65-1.555zm61.263.51c-.363 0-1.087 1.746-.912 2.2.236.616.675.383 1.073-.57.396-.948.329-1.63-.161-1.63zm12.096.076c.271.005.6.055.991.146.725.167 1.523.49 1.775.719.533.482.634 2.356.152 2.837-.995.996-4.033-.84-4.033-2.437 0-.897.302-1.282 1.115-1.265zm-10.822 6.653c-.598-.004-1.365.278-2.04.845-1.37 1.153-1.614 2.651-1.636 10.04-.02 7.199.09 7.842 1.493 8.721 1.451.91 3.13.216 4.542-1.875 1.547-2.29 2.527-6.33 1.62-6.678-.54-.207-1.144.417-2.941 3.034l-1.394 2.03-.187-1.02c-.102-.562-.193-2.117-.201-3.455-.015-2.431-.014-2.435.74-2.88 1-.591 1.853-1.825 1.752-2.537-.095-.668-1.278-.936-1.89-.428-.49.406-.574.293-.839-1.123-.22-1.177-.208-1.205.894-2.307.613-.613 1.115-1.289 1.115-1.5 0-.573-.43-.863-1.028-.867zm-22.684.418c-1.187 0-1.427.104-2.458 1.054-1.989 1.833-3.374 5.478-4.452 11.716-1.39 8.043-.764 15.353 1.464 17.106.767.603 2.03.65 2.81.103 1.028-.72 1.706-2.59 2.494-6.877.206-1.123.683-3.263 1.06-4.755.661-2.617.67-2.738.24-3.394-.866-1.32-2.612-1.379-3.951-.13-.745.693-.695 1.202.167 1.696l.72.414-.465 1.675c-.255.921-.47 2.252-.477 2.957-.008.705-.281 1.971-.608 2.813l-.594 1.532-.217-1.02c-.12-.562-.206-2.63-.193-4.596.046-6.758 2.003-15.11 3.955-16.877.437-.395.482-.377.752.315.275.704.238 1.895-.179 5.9-.14 1.348-.1 1.615.262 1.754 1.227.47 3.21-3.482 3.212-6.407.002-1.839-.407-3.05-1.376-4.077-.76-.805-.99-.902-2.166-.902zm11.776.289c-.085-.001-.174.004-.268.015-.631.073-.732.253-1.259 2.25-.796 3.016-3.325 14.333-3.776 16.898-.474 2.688-.474 4.574-.004 5.7.48 1.148 1.48 1.239 2.017.184.197-.386.918-3.724 1.602-7.416 1.37-7.39 1.274-7.308 1.877-1.63.664 6.251 1.799 8.845 3.664 8.377 1.092-.274 1.462-1.16 1.744-4.166.395-4.218.165-14.774-.348-15.938-.224-.51-.53-1.001-.678-1.093-.527-.326-1.05 1.051-1.35 3.56-.169 1.399-.377 2.628-.464 2.731-.086.104-.305-1.217-.485-2.935-.537-5.133-.988-6.525-2.272-6.537zm-4.683 2.566a1.53 1.53 0 0 0-.497.085c-2.089.663-5.523 16.79-4.339 20.378.17.516.48 1.109.69 1.318.559.559 1.341.465 1.613-.193.13-.316.596-2.93 1.034-5.808.44-2.878 1.135-6.995 1.545-9.148.937-4.908.964-6.603-.046-6.632zM58.749 54.42c-1.492-.012-3.108 2.371-4.523 6.703-1.878 5.747-3.163 14.865-2.318 16.444.622 1.163 1.509.28 2.134-2.125.463-1.78.52-1.879 1.171-2.049.472-.123.515-.012.515 1.335 0 2.166.383 3.078 1.295 3.078 1.319 0 1.741-1.375 2.524-8.217.278-2.43.695-6.055.925-8.055.58-5.03.244-6.703-1.426-7.08a1.396 1.396 0 0 0-.297-.034zm-32.849.338c-.458.016-.983.153-1.544.443-1.518.785-1.704 2.583-.342 3.31.948.505 1.814.269 2.805-.764 1.496-1.561.717-3.046-.919-2.989zm-.334 1.162a.385.385 0 0 1 .102.004.482.482 0 0 1 .256.144c.194.194.179.388-.053.667-.18.217-.547.394-.816.394-.404 0-.442-.085-.222-.496.24-.448.494-.691.733-.713zm24.27.984c-.16 0-.346.018-.573.048-.842.11-1.27.368-2.037 1.228-.827.927-2.177 3.388-2.854 5.203-.197.528-.239.47-.492-.684-.208-.946-.818-1.486-1.68-1.486-2.61 0-6.406 10.398-6.09 16.677.056 1.082.244 2.065.443 2.305.426.513.892.535 1.286.06.164-.197.682-2.18 1.15-4.404.873-4.141 1.834-7.717 2.168-8.072.104-.109.137 1.327.074 3.191-.127 3.749.217 5.304 1.17 5.304.552 0 1.195-.65 1.39-1.404 1.118-4.334 4.498-13.834 4.526-12.722.005.163-.353 2.117-.795 4.34-.613 3.083-.81 4.776-.83 7.13-.028 3.342.163 3.932 1.276 3.932 1.205 0 1.262-.219 2.902-11.161.987-6.588 1.006-8.03.116-8.92-.42-.42-.668-.568-1.15-.565zm7.601 4.382c.03.01.008.15-.055.438-.077.35-.412 2.52-.743 4.819-.386 2.673-.728 4.26-.949 4.4-.656.416-.785.221-.613-.929.254-1.692 1.865-7.976 2.177-8.488.083-.136.138-.217.168-.236.006-.004.011-.005.015-.004zM34.34 62.77a1.092 1.092 0 0 0-.54.142c-.774.463-1.609 2.645-2.74 7.164-1.593 6.366-1.788 10.116-.588 11.316.66.66 1.42.628 1.88-.078.207-.316 1.147-4.28 2.09-8.808 1.412-6.791 1.662-8.344 1.425-8.864-.24-.529-.933-.884-1.527-.872zm46.905 15.367c-.34-.003-.791.052-1.344.167-1.683.35-2.538.896-1.976 1.265.58.38 3.847-.382 4.034-.941.107-.32-.148-.486-.714-.491zm-11.702 5.541c-.226-.014-.579.249-.856.718-1.115 1.888-2.193 7.66-1.55 8.303.371.373.679-.04 1.027-1.379.55-2.116 1.604-6.912 1.604-7.301 0-.224-.09-.332-.225-.34zm41.497.288c-.922.006-1.974.216-3.11.635-5.483 2.027-7.027 2.205-12.848 1.478-3.443-.43-5.317-.351-7.775.326-2.861.787-2.69 2.264.458 3.957.849.456 1.638.578 4.682.722l3.662.174 3.613 1.81c1.988.995 3.786 1.864 3.997 1.931.21.068 1.244.13 2.297.14 1.541.014 2.189-.11 3.319-.634 3.44-1.598 6.243-6.599 4.996-8.914-.583-1.082-1.755-1.635-3.29-1.625zm-75.094.73c-2.391 0-2.722.112-2.12.715.378.377 3.367.408 4.05.042 1.01-.54.455-.757-1.93-.757zm75.013.657c.39.004.721.08 1.05.218.569.237.939.596 1.043 1.012.371 1.48-1.688 4.822-3.762 6.104-2.349 1.452-4.774 1.166-8.544-1.01-3.088-1.783-4.395-2.155-8.131-2.315-2.458-.105-3.555-.26-4.23-.598-1.003-.504-1.676-1.182-1.423-1.436.449-.449 5.557-.365 9.004.149 1.984.295 3.97.537 4.415.537 1.342 0 4.367-.714 6.497-1.535 2.07-.797 3.22-1.135 4.08-1.126zm-48.36.62c-.394 0-.184 2.168.417 4.31.725 2.584 1.393 1.875.877-.931-.38-2.072-.882-3.38-1.295-3.38zm10.286 5.105c.395 0 4.03 2.046 4.03 2.268 0 .105-.89.393-1.977.64-1.089.248-2.18.507-2.425.575-.32.089-.447-.023-.447-.39 0-.996.556-3.093.82-3.093zm-13.8.306c.15-.068.728 2.131.728 2.77 0 .305-.05.298-1.978-.302-.878-.272-1.596-.588-1.596-.7 0-.162 1.889-1.335 2.846-1.768zm-13.418 1.897a.377.377 0 0 0-.103.018c-.236.082-1.491.793-2.79 1.58-2.765 1.677-3.317 2.457-2.882 4.075.303 1.124 1.313 2.258 2.136 2.398 1.115.19 2.345-.59 4.435-2.814 1.648-1.752 2.096-2.39 2.102-2.993.005-.421-.076-.895-.18-1.052-.298-.454-2.118-1.245-2.718-1.212zm.675 1.728c.076.004.15.015.226.031.405.09.737.246.737.349 0 .102-.833 1.053-1.85 2.112-2.337 2.432-2.809 2.702-3.505 2.006-.284-.284-.514-.832-.514-1.218.002-.606.304-.888 2.198-2.056 1.566-.966 2.177-1.255 2.708-1.224zm10.897 1.963c.292-.017.295.207.154 1.293-.289 2.23-.922 5.176-1.165 5.427-.136.14-.296.055-.398-.212-.247-.641.05-4.183.451-5.38.208-.618.527-1.052.815-1.108.054-.01.102-.018.143-.02zm15.35.509c.043.003.09.01.144.02.71.136 1.212 1.4 1.329 3.34.083 1.373.03 1.723-.262 1.723-.217 0-.531-.54-.778-1.34a20.452 20.452 0 0 1-.59-2.577c-.14-.98-.135-1.186.158-1.166zm3.631.268c.037 0 .077.006.122.014.344.067.446.342.446 1.21 0 1.132-.439 1.67-.734.901-.088-.228-.159-.816-.159-1.306 0-.622.069-.824.325-.82zm-16.157 1.006c.3-.018.304.208.172 1.337-.265 2.248-.743 2.934-1.088 1.56-.26-1.039.2-2.766.768-2.875.056-.011.105-.019.148-.022zm4.09 1.13c.232 0 .415.288.466.732.104.908-.268 1.345-.701.824-.414-.499-.254-1.557.235-1.557zm2.905.127c.43 0 .744 1.047.414 1.377-.146.146-.339-.03-.502-.459-.338-.888-.335-.918.088-.918zm21.572 13.572c.257.048.609.623 1.03 1.698l.62 1.58.319-.927c.435-1.265.745-1.537 1.261-1.108.511.424.365 1.336-.484 3.026-.543 1.081-.592 1.454-.493 3.741.06 1.397.015 3.345-.1 4.328-.182 1.547-.283 1.797-.752 1.863-.32.046-.608-.093-.702-.34-.088-.229-.164-1.93-.169-3.778-.005-1.924-.208-4.671-.475-6.425-.257-1.684-.41-3.211-.343-3.393.075-.2.171-.286.288-.265zm-5.464 7.87c.626 0 .447.439-.46 1.13-1.994 1.521-7.831 3.73-7.213 2.73.235-.382 7.151-3.86 7.673-3.86zm-30.936.268c.482-.015 1.333.426 1.41.822.112.589-.51.566-1.265-.047-.332-.268-.515-.577-.407-.685.059-.059.15-.086.262-.09z" fill="#000000" opacity="1" data-original="#000000" class=""></path></g></svg>