<svg xmlns="http://www.w3.org/2000/svg" version="1.1" xmlns:xlink="http://www.w3.org/1999/xlink" width="512" height="512" x="0" y="0" viewBox="0 0 512 512" style="enable-background:new 0 0 512 512" xml:space="preserve" class=""><g><path d="M52.289 361.107a17.001 17.001 0 0 0 1.712 7.817l62.21 127.725c2.405 4.945 6.162 8.991 10.861 11.702a27.18 27.18 0 0 0 10.682 3.483c12.059 1.314 23.351-5.286 28.097-16.42l38.864-91.109a52.984 52.984 0 0 0 2.173 4.834c4.101 7.938 9.822 14.403 17.002 19.208 6.102 4.09 12.816 6.6 19.949 7.462 1.651.2 3.341.312 5.034.332a48.903 48.903 0 0 0 13.029-1.603 17.01 17.01 0 0 0 6.384 1.324l23.673.291a16.988 16.988 0 0 0 10.789-3.71c4.637 2.762 10.049 4.531 16.188 5.273 1.957.237 4.017.37 6.121.396 8.466.106 16.047-1.416 22.539-4.523a41.903 41.903 0 0 0 7.894-4.957c.131.093.254.196.386.288 6.95 4.883 14.665 7.866 22.933 8.866.447.054.893.102 1.342.144 1.23.161 2.653.248 4.307.267a53.217 53.217 0 0 0 20.223-3.725c6.599-2.589 12.414-6.345 17.29-11.164 5.3-5.244 8.993-11.369 10.976-18.206.692-2.389.839-4.807.509-7.12a16.991 16.991 0 0 0 1.617-5.687c.153-1.48.239-3.28.267-5.672.189-15.301-4.222-27.948-13.114-37.594-3.083-3.341-6.604-6.098-10.476-8.351a49.848 49.848 0 0 0 3.775-3.362c5.3-5.242 8.991-11.367 10.974-18.207.692-2.387.839-4.804.509-7.116a16.984 16.984 0 0 0 1.625-5.732c.147-1.471.233-3.311.263-5.633.101-8.172-1.153-15.56-3.658-22.166 1.511.345 3.04.703 4.598 1.072 1.707.405 3.421.809 5.144 1.201 2.513.573 5.641 1.284 9.053 1.696 4.66.563 8.882.444 12.915-.366 10.941-2.201 26.042-12.865 23.706-28.759-1.501-10.216-9.39-15.491-15.988-18.474 5.791-3.541 10.718-7.864 14.516-12.87 8.676-11.435 11.262-26.338 6.744-38.891-2.927-8.137-11.495-12.779-19.917-10.788-5.894 1.396-11.27 3.657-16.161 6.344.883-4.599 1.445-9.256 1.625-13.931a16.998 16.998 0 0 0-6.97-14.388 16.998 16.998 0 0 0-15.83-2.243c-4.989 1.814-9.647 4.125-14.031 6.752a16.998 16.998 0 0 0-6.955-15.772 17.002 17.002 0 0 0-17.347-1.486c-1.843.894-3.71 1.735-5.59 2.559a159.2 159.2 0 0 1-16.534 6.19 156.525 156.525 0 0 0 8.662-37.621 17.004 17.004 0 0 0-27.676-14.895c-2.986 2.441-6.197 4.673-9.584 6.738a28.882 28.882 0 0 0-4.81-18.529c-4.325-6.461-10.907-10.85-18.537-12.363a28.894 28.894 0 0 0-14.158.756c2.768-15.703-7.532-30.865-23.246-33.976-16.031-3.185-31.479 7.418-34.592 23.151-1.248 6.302-.397 12.68 2.329 18.371a25.87 25.87 0 0 0-7.014 1.313l.218-10.005c.287-12.912-7.383-24.185-18.756-28.909C216 19.947 198.889 4.193 177.06 1.554a52.707 52.707 0 0 0-5.121-.364L118.207.013C94.413-.508 73.963 15.19 67.455 36.976a30.497 30.497 0 0 0-10.605 6.632c-5.903 5.65-9.253 13.261-9.43 21.427l-.324 14.7c-.206 9.553 3.962 18.258 10.824 24.043l-.193 8.859c-1.214-.445-2.463-.83-3.771-1.089-13.623-2.727-26.857 6.327-29.518 19.758-1.302 6.58.034 13.275 3.766 18.85 3.734 5.577 9.414 9.365 15.992 10.666a24.53 24.53 0 0 0 1.873.299h.002c2.905.351 5.761.156 8.484-.464-7.356 15.463-10.821 32.134-10.139 47.88-9.862 2.21-17.975 10.071-20.03 20.459-2.801 14.153 6.436 27.949 20.588 30.752.651.13 1.305.233 1.952.311h.002c2.578.312 5.123.224 7.575-.206l-2.214 101.254zm170.257-21.609c.399.314.801.624 1.21.927-.425.281-.835.577-1.249.869l.039-1.796z" style="" fill="#ffffff" data-original="#ffffff" class=""></path><path d="M69.286 361.479 131.5 489.212c3.861 7.928 15.254 7.642 18.714-.469l54.876-128.65-45.672-48.919-90.132 50.305z" style="" fill="#fecb4c" data-original="#fecb4c"></path><path d="M204.712 92.97 81.446 90.272l.859-39.255c.42-19.201 16.326-34.425 35.527-34.005l53.733 1.176c19.201.42 34.425 16.326 34.005 35.527l-.858 39.255zM112.296 449.784l19.204 39.428c3.861 7.928 15.254 7.642 18.714-.469l16.114-37.776-54.032-1.183z" style="" fill="#7920bb" data-original="#7920bb"></path><path d="m205.089 360.093 6.405-292.585-135.709-2.971-6.5 296.942c7.031-1.884 14.8-2.034 23.039-.098 7.04 1.654 14.021 4.559 20.492 8.423 15.895-9.372 37.26-6.995 52.78 4.161 10.133-9.351 24.524-13.669 39.493-13.872z" style="" fill="#ff52ef" data-original="#ff52ef" class=""></path><path d="M167.97 214.406c-1.694 77.379-2.464 142.181-1.966 159.224.311-.28.651-.524.969-.794 1.249-18.231 3.277-82.204 4.943-158.344 1.428-65.21 2.199-121.504 2.109-147.805l-1.694-.037c-1.241 26.272-2.933 82.546-4.361 147.756zM114.459 213.235c-1.609 73.513-2.386 135.709-2.032 156.355.128.075.262.137.389.213.258-.152.53-.275.792-.422 1.257-20.84 3.194-82.819 4.797-156.061 1.427-65.21 2.199-121.504 2.109-147.805l-1.694-.037c-1.241 26.272-2.934 82.547-4.361 147.757z" style="" fill="#d340c5" data-original="#d340c5" class=""></path><path d="m208.611 96.856-131.23-2.873c-7.503-.164-13.451-6.379-13.287-13.882l.322-14.692c.164-7.502 6.379-13.451 13.882-13.287l131.229 2.873c7.502.164 13.451 6.379 13.287 13.882l-.322 14.692c-.164 7.502-6.379 13.451-13.881 13.287z" style="" fill="#24bed0" data-original="#24bed0" class=""></path><path d="M406.473 221.449c-16.129 13.621-38.563 20.124-59.485 20.044 16.686-8.464 29.466-24.394 41.19-38.525 13.036-15.712 27.118-31.947 46.305-38.922-.842 21.9-11.266 43.262-28.01 57.403z" style="" fill="#7920bb" data-original="#7920bb"></path><path d="M438.753 264.159c-10.69-2.434-21-5.388-32.001-5.217-11.539.179-22.708-3.336-34.28-3.724 15.661-6.492 28.737-13.713 46.021-13.207 11.163.327 22.689 2.048 33.17 6.006 3.26 1.231 11.574 3.71 12.169 7.761.709 4.825-6.505 8.87-10.237 9.62-4.907.986-9.964-.128-14.842-1.239z" style="" fill="#ff52ef" data-original="#ff52ef" class=""></path><path d="M445.788 224.975c-4.877 1.643-8.687 1.802-13.661 1.788-1.773-.005-14.97-1.816-15.361-1.51 8.273-6.484 16.968-12.469 24.724-19.466 8.283-7.472 17.58-14.386 28.436-16.958 2.738 7.604.596 16.419-4.289 22.858-4.886 6.439-12.19 10.708-19.849 13.288z" style="" fill="#14b9a1" data-original="#14b9a1" class=""></path><path d="M285.345 67.709c-1.334 6.735-7.875 11.114-14.61 9.78-6.735-1.334-11.114-7.875-9.78-14.61 1.334-6.735 7.875-11.114 14.61-9.78 6.735 1.333 11.114 7.875 9.78 14.61z" style="" fill="#7920bb" data-original="#7920bb"></path><circle cx="247.834" cy="104.056" r="9.169" style="" transform="rotate(-34.071 247.838 104.06)" fill="#7920bb" data-original="#7920bb"></circle><path d="M187.523 235.202c-21.627-4.77-43.367-10.276-65.591-11.222-8.16-.347-16.608.628-24.695 1.555-5.183.594-11.185.703-16.016 2.622-1.556.618-11.971 7.59-10.444 9.834-19.93-29.283-6.051-76.355 20.046-97.588 14.977-12.186 35.39-15.141 54.697-15.354 36.803-.406 73.213 7.425 109.982 9.065 36.769 1.64 75.969-3.861 104.464-27.157-2.286 22.319-10.061 44.056-22.449 62.762a175.502 175.502 0 0 0 60.249-16.865c-3.601 28.127-21.711 53.227-45.348 68.892s-52.299 22.55-80.641 23.45c-28.343.901-56.563-3.886-84.254-9.994z" style="" fill="#14b9a1" data-original="#14b9a1" class=""></path><path d="M59.055 235.856a9.169 9.169 0 0 1-10.776 7.213 9.169 9.169 0 0 1-7.213-10.776 9.17 9.17 0 0 1 17.989 3.563zM57.035 137.761a8.114 8.114 0 1 1-15.919-3.153 8.113 8.113 0 0 1 9.536-6.383 8.113 8.113 0 0 1 6.383 9.536zM322.495 100.547c-1.299 6.558-7.669 10.822-14.227 9.524s-10.822-7.668-9.523-14.227c1.299-6.558 7.669-10.822 14.227-9.524 6.558 1.299 10.821 7.668 9.523 14.227zM244.76 330.145c-5.079-3.063-9.047-7.186-11.903-12.376-2.859-5.183-4.25-10.854-4.175-17.007.074-6 1.561-11.345 4.467-16.036 2.901-4.696 6.925-8.339 12.073-10.928 5.145-2.59 10.948-3.844 17.406-3.767 8.381.105 15.143 2.265 20.282 6.477 5.139 4.218 8.317 9.986 9.535 17.309l-20.924 3.548c-.821-2.087-2.088-3.661-3.806-4.717-1.72-1.059-3.654-1.601-5.807-1.629-3.076-.036-5.778.947-8.11 2.956-2.332 2.01-3.519 4.705-3.56 8.089-.043 3.46 1.093 6.284 3.415 8.461 2.319 2.182 5.053 3.292 8.206 3.33 2 .025 3.87-.507 5.615-1.603 1.745-1.091 3.088-2.633 4.037-4.623l20.248 4.288c-1.856 7.131-5.518 12.756-10.992 16.88-5.474 4.124-11.862 6.139-19.167 6.05-6.152-.075-11.764-1.641-16.84-4.702zM343.851 273.916c3.094 1.731 5.547 3.838 7.363 6.322l-8.418 18.582c-1.443-1.635-2.85-2.806-4.228-3.51-1.374-.714-2.869-1.077-4.483-1.094-4.308-.052-7.378 1.081-9.215 3.405-1.835 2.324-2.975 5.903-3.418 10.744l-.315 25.605-24.112.048 1.795-61.459 21.112-.206.873 4.166a18.705 18.705 0 0 1 5.931-3.906c2.239-.933 4.633-1.389 7.169-1.356a20.62 20.62 0 0 1 9.946 2.659zM399.597 276.39c4.731 3.021 8.254 7.216 10.575 12.588 2.315 5.376 3.279 11.519 2.887 18.435l-42.136 2.479c1.047 2.401 2.618 4.322 4.717 5.77 2.096 1.452 4.489 2.23 7.181 2.338 2.768.036 5.119-.437 7.055-1.412 1.933-.975 3.332-2.345 4.201-4.1l18.053 4.836c-1.2 3.829-3.281 7.225-6.239 10.188-2.961 2.965-6.507 5.267-10.642 6.903-4.135 1.644-8.393 2.439-12.775 2.385-6-.074-11.498-1.664-16.496-4.759-5-3.101-8.949-7.263-11.845-12.487-2.895-5.229-4.307-10.957-4.23-17.186.075-6.071 1.543-11.436 4.41-16.097 2.864-4.654 6.753-8.258 11.67-10.814 4.914-2.553 10.446-3.794 16.598-3.716 6.614.079 12.284 1.632 17.016 4.649zm-24.789 13.135c-1.98 1.588-3.413 3.726-4.292 6.405l21.825-1.693c-.592-2.084-1.818-3.772-3.687-5.063-1.869-1.292-4.071-1.952-6.608-1.983-2.847-.038-5.258.746-7.238 2.334z" style="" fill="#7920bb" data-original="#7920bb"></path><path d="m272.208 419.626.054-4.384c-3.97 4.032-9.802 5.996-17.489 5.902-5.076-.064-9.712-1.603-13.902-4.616-4.194-3.011-7.49-7.03-9.889-12.059-2.399-5.028-3.562-10.428-3.491-16.196.068-5.685 1.46-10.997 4.175-15.926 2.714-4.923 6.241-8.838 10.584-11.747 4.343-2.909 8.859-4.336 13.551-4.277 7.687.093 13.16 2.2 16.417 6.316l.052-4.266 19.84.242 2.015 61.278-21.917-.267zm-3.063-22.819c1.944-1.938 2.941-4.598 2.983-7.982.039-3.305-.947-5.936-2.959-7.881-2.017-1.946-4.637-2.938-7.866-2.978-3-.037-5.529.93-7.593 2.905-2.061 1.973-3.109 4.459-3.146 7.459-.022 1.771.415 3.523 1.317 5.263a11.736 11.736 0 0 0 3.812 4.316c1.638 1.138 3.498 1.715 5.574 1.739 3.304.042 5.932-.903 7.878-2.841zM349.484 411.58c-2.353 3.586-5.269 6.203-8.748 7.85-3.48 1.649-7.835 2.44-13.065 2.377-7.076-.088-12.418-1.726-16.032-4.925-3.612-3.197-5.371-8.681-5.276-16.444.028-2.152.252-4.96.681-8.413l2.513-16.81-9.459-.004-.581-18.58 12.806-.075 1.385-9.211 21.349-.774-1.39 9.787 11.998-.084 1.957 19.173-16.725-.09-2.025 14.629c-.085.458-.13 1.114-.14 1.956-.029 2.384.598 4.354 1.888 5.906 1.287 1.557 2.931 2.345 4.931 2.367 3.229.04 5.944-1.773 8.143-5.434l5.79 16.799zM401.653 362.327c4.731 3.021 8.255 7.214 10.574 12.59 2.317 5.376 3.277 11.516 2.887 18.434l-42.136 2.479c1.047 2.401 2.618 4.32 4.717 5.77 2.096 1.452 4.489 2.23 7.181 2.338 2.768.036 5.119-.437 7.053-1.414 1.935-.972 3.334-2.342 4.203-4.097l18.054 4.834c-1.201 3.831-3.281 7.228-6.239 10.19-2.96 2.962-6.507 5.267-10.642 6.903-4.135 1.644-8.393 2.439-12.774 2.383-5.998-.071-11.498-1.661-16.497-4.757-5-3.101-8.949-7.263-11.844-12.492-2.895-5.229-4.307-10.955-4.23-17.181.076-6.074 1.543-11.441 4.41-16.097 2.864-4.656 6.753-8.261 11.67-10.816 4.914-2.551 10.446-3.791 16.596-3.714 6.612.079 12.286 1.628 17.017 4.647zm-24.792 13.135c-1.98 1.588-3.41 3.727-4.29 6.408l21.825-1.693c-.589-2.084-1.821-3.772-3.687-5.063-1.869-1.292-4.071-1.952-6.608-1.983-2.844-.038-5.259.74-7.24 2.331z" style="" fill="#ff52ef" data-original="#ff52ef" class=""></path><path d="M397.765 152.854a173.27 173.27 0 0 1-6.184 2.836c-19.655 19.011-46.013 31.819-73.023 37.572-41.434 8.825-84.498 3.496-126.227-3.809-19.888-3.481-39.886-7.42-60.069-6.858-20.183.562-40.926 6.071-56.106 19.384-5.454 4.783-10.004 10.713-13.317 17.22 1.477 6.722 4.06 13.096 7.937 18.792-1.527-2.244 8.889-9.216 10.444-9.834 4.832-1.919 10.833-2.029 16.017-2.622 8.088-.926 16.535-1.902 24.695-1.555 22.224.945 43.963 6.452 65.591 11.222 27.691 6.107 55.911 10.894 84.253 9.994 28.342-.9 57.004-7.786 80.641-23.45 23.637-15.664 41.746-40.765 45.348-68.892z" style="" fill="#13aa91" data-original="#13aa91" class=""></path><path d="M127.707 193.453c.092-3.615.234-9.034.307-16.154.069-7.12.127-13.561.276-19.325.147-5.646.4-11.066.876-16.14.021-.905.83-1.562 1.735-1.537.901.134 1.558.943 1.422 1.844a357.88 357.88 0 0 0-.761 16.03c-.145 5.651-.312 12.088-.386 19.208s-.214 12.542-.307 16.154c-.125 4.746-.196 7.455-.103 8.137.067 1.811.143 3.283.343 4.304-.005.226.103.456.211.687.098.453.653.92 1.774 1.176 1.24.145 2.707.298 4.742.238 3.842-.014 6.444.054 7.787.428.904.134 1.327 1.164 1.195 1.95-.136.904-1.165 1.329-1.955 1.194-1.007-.363-3.377-.428-6.886-.292-3.622.132-6.21-.275-7.885-1.111-2.121-.959-2.368-4.47-2.604-8.433l.219-8.358zM168.755 144.903c-.125.098-.125.098-.139.21s-.291.532-.525 1.53c-.027.224-.163.434-.205.774-.858 3.424-1.069 8.065-1.328 14.067-.279 5.203-.012 4.892-.782 9.466-.383 2.233.377 2.552 1.951 2.737 1.345.158 2.58.307 3.491.301.911-.006 1.617.76 1.621 1.673-.106.897-.872 1.602-1.77 1.498-1.137-.024-2.37-.171-3.941-.355-1.461-.174-2.247-.269-2.625 1.964-1.866 10.931-3.02 19.674-3.304 25.9-.114 1.92-.064 3.406.04 4.44-.027.224.06.464.046.575.1.128.305-.646.346-.982-.133 1.121.222 1.961 1.43 2.334 2.414.741 5.725.677 9.003.842 1.699.087 2.934.231 3.72.326.897.108 1.492.861 1.383 1.758-.106.897-.859 1.492-1.756 1.384-1.462-.172-6.228-.284-7.704-.344-3.714-.331-6.368-.984-8.071-1.982-1.181-.597-1.47-1.998-1.629-3.497-.194-1.274-.23-2.869-.089-5.018.363-6.897 1.747-16.636 2.963-24.002.555-3.692 1.137-6.695 1.556-9.264.811-4.909.631-4.364.836-9.916.259-6 .508-10.979 1.396-14.629.605-2.206 1.28-4.061 2.733-4.798.84-.355 2.201-.309 3.659-.132.786.09 2.58.305 5.373.751 5.485.764 8.389 1.224 8.839 1.278.911-.008 1.615.76 1.623 1.671-.054.447-.221.886-.581 1.069-.771.706-1.527.388-2.536.266a245.31 245.31 0 0 1-7.844-1.042c-2.793-.446-4.475-.647-5.149-.728-.786-.092-1.347-.16-1.699-.087l-.332-.038zM206.559 154.313c.034-.223-.714-.565-2.164-.789-2.551-.508-4.806-.744-6.723-.924a1.488 1.488 0 0 1-1.451-1.712c.031-.909.821-1.588 1.712-1.448 2.959.106 7.093.744 12.417 1.795 5.679.99 9.683 1.723 12.043 1.974.911.031 1.59.824 1.566 1.736-.14.893-.93 1.572-1.826 1.434-2.582-.288-6.716-.925-12.379-2.027 0 0 .043.464-.018 1.599.128 2.877-.192 5.687-1.052 9.784-.474 2.33-.829 3.876-.932 4.544-.447 2.906-1.284 7.58-2.523 14.135-2.483 13.111-4.149 23.144-4.161 31.378-.026.91-.705 1.604-1.616 1.578-.91-.026-1.604-.705-1.578-1.616-.082-8.36 1.633-18.729 4.261-32.045 1.239-6.557 2.078-11.231 2.491-13.912.138-.894.378-2.455.852-4.786.818-4.563 1.233-7.241 1.108-10.122l-.027-.576zM235.659 152.872c3.483 4.062 4.311 9.924 2.371 17.464-.194.889-1.035 1.38-1.924 1.183-.887-.196-1.382-1.035-1.186-1.924 1.62-6.546 1.043-11.364-1.718-14.682-1.326-1.595 1.128-3.637 2.457-2.041zM269.612 172.058c1.283-9.038-2.637-13.18-8.052-12.907-5.523.391-10.852 5.072-11.252 12.236-.196 3.642.695 6.635 3.052 9.525 2.358 2.895 3.684 4.047 8.006 7.477 4.448 3.648 5.652 4.583 9.199 8.297 3.556 3.824 5.532 7.763 6.337 12.69 2.005 10.733-3.393 17.685-11.097 17.667-7.723-.248-14.343-7.368-15.173-19.091-.064-.901.566-1.624 1.469-1.687.901-.064 1.624.564 1.685 1.464.737 10.368 6.345 15.974 12.126 16.021 5.329.074 9.398-4.858 7.865-13.701-.763-4.362-2.368-7.874-5.556-11.273-3.18-3.285-4.505-4.437-8.941-7.862-4.201-3.327-5.65-4.583-8.497-8.005-2.847-3.423-3.91-7.202-3.666-11.75.41-8.638 7.114-14.774 14.212-15.277 7.671-.429 13.093 5.756 11.487 16.632-.05.907-.917 1.423-1.826 1.373-.913-.046-1.429-.918-1.378-1.829zM214.755 69.769c.102-3.431-17.707-6.745-39.778-7.401-22.07-.656-40.045 1.593-40.147 5.025-.102 3.431 17.707 6.745 39.778 7.401 22.07.655 40.045-1.594 40.147-5.025zM129.536 68.863c.041-3.432-3.917-6.263-8.84-6.321-4.923-.059-8.947 2.676-8.988 6.109s3.917 6.262 8.84 6.321c4.923.058 8.947-2.677 8.988-6.109z" style="" fill="#ffffff" data-original="#ffffff" class=""></path></g></svg>