<svg xmlns="http://www.w3.org/2000/svg" version="1.1" xmlns:xlink="http://www.w3.org/1999/xlink" width="512" height="512" x="0" y="0" viewBox="0 0 512 512" style="enable-background:new 0 0 512 512" xml:space="preserve" class=""><g><path fill="#8566ad" d="m342.635 407.979-165.912 11.229-33.955-150.47 214.802 30.293z" opacity="1" data-original="#8566ad"></path><ellipse cx="248.259" cy="473.996" fill="#d5e9ed" rx="105.491" ry="15.871" opacity="1" data-original="#d5e9ed"></ellipse><path fill="#333042" d="M193.623 459.857a6.288 6.288 0 0 1-6.155-7.606c3.696-17.272 7.463-32.93 11.106-48.071 4.048-16.825 7.871-32.716 10.708-47.392a6.289 6.289 0 1 1 12.348 2.387c-2.891 14.955-6.747 30.98-10.829 47.946-3.625 15.066-7.373 30.645-11.036 47.761a6.29 6.29 0 0 1-6.142 4.975zM300.178 450.278a6.289 6.289 0 0 1-6.289-6.289c0-17.513-.208-34.234-.392-48.987-.146-11.741-.272-21.881-.272-30.359a6.289 6.289 0 1 1 12.578 0c0 8.4.125 18.503.271 30.202.184 14.79.393 31.553.393 49.144a6.29 6.29 0 0 1-6.289 6.289zM350.476 334.209c-18.771 0-41.182-11.686-53.258-23.166a6.288 6.288 0 1 1 8.665-9.115c12.825 12.191 41.218 25.344 54.789 17.385 9.112-5.345 10.721-21.63 4.53-45.857a6.289 6.289 0 0 1 12.186-3.114c7.926 31.016 4.443 51.142-10.353 59.82-4.828 2.831-10.505 4.047-16.559 4.047zM158.101 380.969a6.29 6.29 0 0 1-6.248-5.644c-2.468-23.916 2.506-44.398 14.784-60.877 10.171-13.652 22.873-21.458 31.277-26.622l.504-.31a6.29 6.29 0 0 1 6.588 10.714l-.507.312c-15.751 9.679-45.069 27.696-40.136 75.493a6.29 6.29 0 0 1-6.262 6.934z" opacity="1" data-original="#333042"></path><path fill="#d61653" d="M205.755 440.103c.953-.507 1.587-3.75-.276-5.352-1.863-1.603-2.812-2.813-11.414-5.824.666-5.024-8.133-8.483-10.718-6.142-2.473 2.24-.838 6.568 1.885 12.836-1.298.689-2.483 1.594-3.428 2.811-10.173 13.095-41.75-7.593-35.326 34.057 7.612 4.86 20.808 5.274 40.979-6.544 5.766-3.378 13.096.392 20.329-5.518 1.688-8.84 1.884-15.466-.879-18.838-.359-.438-.758-1.083-1.152-1.486z" opacity="1" data-original="#d61653"></path><path fill="#c9bfad" d="M173.398 471.248c1.218-9.969.147-20.904-11.39-27.068-10.229.976-19.25 4.192-15.53 28.309 5.418 3.459 13.668 4.661 25.245.808.66-.634 1.231-1.313 1.675-2.049zM193.747 464.326c4.4-.314 9.239.023 14.039-3.899 1.688-8.84 1.884-15.466-.879-18.838-.357-.436-.754-1.075-1.145-1.478-7.341 3.212-10.868 12.695-12.015 24.215z" opacity="1" data-original="#c9bfad"></path><path fill="#a19887" d="M187.71 463.184c-18.329 9.886-30.729 10.756-41.76 5.214.134 1.294.306 2.652.528 4.091 7.612 4.86 20.808 5.274 40.979-6.544 5.766-3.378 13.096.392 20.329-5.518.18-.945.34-1.859.484-2.752-12.11 5.124-12.295 1.051-20.56 5.509z" opacity="1" data-original="#a19887"></path><path fill="#8f0e36" d="M192.817 436.803c3.024-1.649 5.209-3.586 6.754-5.766a63.45 63.45 0 0 0-2.791-1.124c-1.296 1.67-3.052 3.152-5.396 4.42l-.141.087c-1.347.946-2.942 2.319-4.79 3.909-4.108 3.536-9.159 7.884-13.527 9.21-1.233-1.487-2.415-2.789-3.572-3.927-1.29.123-2.605.211-3.92.301 1.856 1.539 3.764 3.547 5.856 6.135l.553.684.858-.187c5.256-1.137 10.999-6.08 15.614-10.052 1.759-1.514 3.282-2.825 4.502-3.69z" opacity="1" data-original="#8f0e36"></path><g fill="#c9bfad"><path d="M205.754 440.103h.001c.953-.508 1.586-3.75-.276-5.352s-2.812-2.812-11.403-5.82l-.012-.003c-1.669-.5-5.652-1.566-4.604 6.54 9.712 1.642 12.123 2.934 16.294 4.635zM188.16 442.415a2.141 2.141 0 0 0 2.042-3.764l-5.266-2.856c-1.18.667-2.261 1.515-3.133 2.637-.099.128-.204.247-.308.368z" fill="#c9bfad" opacity="1" data-original="#c9bfad"></path><path d="m186.393 441.821-4.894-3.024c-1.03 1.212-2.255 2.116-3.625 2.794l6.267 3.873a2.14 2.14 0 0 0 2.947-.696 2.14 2.14 0 0 0-.695-2.947z" fill="#c9bfad" opacity="1" data-original="#c9bfad"></path><path d="m173.291 443.066 7.098 5.297a2.137 2.137 0 0 0 2.996-.436 2.14 2.14 0 0 0-.436-2.996l-4.722-3.524c-1.49.795-3.159 1.31-4.936 1.659z" fill="#c9bfad" opacity="1" data-original="#c9bfad"></path><path d="M175.862 451.064c.413.386.938.577 1.462.577a2.141 2.141 0 0 0 1.462-3.705l-5.257-4.917c-1.753.362-3.615.559-5.511.708z" fill="#c9bfad" opacity="1" data-original="#c9bfad"></path></g><path fill="#d61653" d="M313.209 438.432c-.945-1.217-2.13-2.122-3.428-2.811 2.723-6.268 4.358-10.596 1.885-12.836-2.585-2.341-11.384 1.118-10.718 6.142-8.602 3.011-9.551 4.221-11.414 5.824-1.863 1.602-1.229 4.845-.276 5.352-.394.403-.793 1.048-1.152 1.486-2.763 3.372-2.567 9.998-.879 18.838 7.233 5.91 14.563 2.14 20.329 5.518 20.171 11.818 33.367 11.404 40.979 6.544 6.423-41.65-25.154-20.962-35.326-34.057z" opacity="1" data-original="#d61653"></path><path fill="#c9bfad" d="M333.004 444.18c-11.537 6.163-12.608 17.099-11.39 27.068.444.736 1.015 1.415 1.674 2.048 11.578 3.854 19.829 2.652 25.247-.807 3.719-24.116-5.302-27.333-15.531-28.309zM289.251 440.111c-.392.403-.788 1.043-1.145 1.478-2.763 3.372-2.567 9.998-.879 18.838 4.799 3.922 9.639 3.585 14.038 3.899-1.146-11.52-4.673-21.002-12.014-24.215z" opacity="1" data-original="#c9bfad"></path><path fill="#a19887" d="M307.303 463.184c-8.265-4.458-8.45-.385-20.56-5.51.145.893.304 1.807.484 2.752 7.233 5.91 14.563 2.14 20.329 5.518 20.171 11.818 33.367 11.404 40.979 6.544.222-1.439.394-2.797.528-4.091-11.031 5.543-23.431 4.673-41.76-5.213z" opacity="1" data-original="#a19887"></path><path fill="#8f0e36" d="M325.659 443.613c-1.157 1.138-2.339 2.44-3.572 3.927-4.367-1.326-9.419-5.674-13.527-9.21-1.848-1.591-3.444-2.964-4.79-3.909l-.141-.087c-2.344-1.268-4.1-2.75-5.396-4.421-1.084.41-2 .781-2.791 1.124 1.544 2.18 3.729 4.118 6.754 5.767 1.22.865 2.743 2.176 4.502 3.69 4.615 3.971 10.359 8.915 15.614 10.052l.859.186.552-.683c2.092-2.588 4-4.597 5.856-6.136-1.316-.09-2.63-.178-3.92-.3z" opacity="1" data-original="#8f0e36"></path><g fill="#c9bfad"><path d="M300.948 428.928a.03.03 0 0 1-.009.002c-8.594 3.009-9.543 4.218-11.405 5.821-1.863 1.602-1.229 4.845-.276 5.352 4.171-1.701 6.582-2.993 16.294-4.635 1.048-8.106-2.934-7.04-4.604-6.54zM313.209 438.432c-.872-1.122-1.952-1.97-3.133-2.637l-5.265 2.856a2.14 2.14 0 1 0 2.042 3.764l6.663-3.615c-.103-.121-.208-.24-.307-.368z" fill="#c9bfad" opacity="1" data-original="#c9bfad"></path><path d="m313.514 438.797-4.894 3.024a2.14 2.14 0 1 0 2.251 3.643l6.267-3.873c-1.369-.678-2.594-1.582-3.624-2.794z" fill="#c9bfad" opacity="1" data-original="#c9bfad"></path><path d="m316.786 441.408-4.722 3.523a2.14 2.14 0 1 0 2.56 3.432l7.098-5.297c-1.777-.349-3.446-.864-4.936-1.658z" fill="#c9bfad" opacity="1" data-original="#c9bfad"></path><path d="m321.484 443.019-5.257 4.917a2.14 2.14 0 1 0 2.924 3.128l7.844-7.336c-1.896-.15-3.757-.347-5.511-.709z" fill="#c9bfad" opacity="1" data-original="#c9bfad"></path></g><path fill="#c9bfad" d="M364.451 280.707a2.932 2.932 0 0 1-2.236-4.831c.325-.382 8.055-9.347 17.963-8.39a2.934 2.934 0 0 1 2.638 3.204 2.931 2.931 0 0 1-3.204 2.638c-6.835-.663-12.869 6.283-12.929 6.353a2.93 2.93 0 0 1-2.232 1.026z" opacity="1" data-original="#c9bfad"></path><path fill="#e6eef0" d="M248.784 76.773c-45.879 2.692-80.888 42.067-78.196 87.946l6.869 117.039 1.374-.572 2.442 65.59c2.085 36.23 31.028 65.961 68.138 68.139 39.979 2.346 74.289-28.161 76.635-68.139l2.488-64.015 1.233.606 6.963-118.649c.158-3.054.184-6.626 0-9.749-2.692-45.879-42.067-80.888-87.946-78.196z" opacity="1" data-original="#e6eef0"></path><path fill="#d7d4e3" d="M253.707 76.641c62.324 9.614 66.817 73.776 65.975 85.461-2.429 33.694 4.148 107.419-8.803 192.852-7.939 52.369-90.444 61.515-126.125 10.132 9.005 27.478 34.044 48.032 64.657 49.828 39.979 2.346 74.289-28.161 76.635-68.139l2.488-64.015 1.233.606 6.963-118.649c.158-3.054.184-6.626 0-9.749-2.595-44.227-39.284-78.34-83.023-78.327z" opacity="1" data-original="#d7d4e3"></path><path fill="#b8b6c2" d="M248.784 76.773c-45.879 2.692-80.888 42.067-78.196 87.946l6.869 117.039 1.374-.572.106 2.834c46.897-19.239 108.803-19.425 149.49 1.516l.108-2.775 1.233.606 6.963-118.649c.158-3.054.184-6.626 0-9.749-2.693-45.879-42.068-80.888-87.947-78.196z" opacity="1" data-original="#b8b6c2"></path><path fill="#cf1d37" d="M248.784 76.773c-45.879 2.692-80.888 42.067-78.196 87.946l6.869 117.039 1.374-.572v.01c47.405-19.481 110.191-19.488 150.877 2.142l.058.029 6.963-118.649c.158-3.054.184-6.626 0-9.749-2.691-45.879-42.066-80.888-87.945-78.196z" opacity="1" data-original="#cf1d37" class=""></path><path fill="#ab103e" d="M253.708 76.641c62.329 9.609 75.586 66.041 74.463 88.8-1.141 23.09-2.604 61.164-7.144 113.792a109.917 109.917 0 0 1 8.741 4.114l6.962-118.629c.158-3.054.184-6.626 0-9.749-2.595-44.228-39.283-78.34-83.022-78.328z" opacity="1" data-original="#ab103e"></path><path fill="#f0435c" d="m230.99 103.734.068-.02a6.163 6.163 0 1 0-4.121-11.603c-7.428 3.035-14.78 6.586-21.497 11.384-6.71 4.747-12.771 10.803-17.063 17.988-4.355 7.16-6.688 15.239-7.787 23.169-1.089 7.97-.978 15.895-.343 23.673a2.974 2.974 0 0 0 3.003 2.724 2.966 2.966 0 0 0 2.917-3.014v-.03c-.122-7.498.291-14.969 1.751-22.103 1.471-7.113 3.974-13.906 7.995-19.609 3.983-5.721 9.263-10.415 15.316-14.066 6.063-3.644 12.785-6.388 19.761-8.493z" opacity="1" data-original="#f0435c"></path><ellipse cx="231.577" cy="227.496" fill="#9c0e31" rx="36.381" ry="33.313" transform="rotate(-79.1 231.628 227.495)" opacity="1" data-original="#9c0e31" class=""></ellipse><ellipse cx="287.776" cy="231.609" fill="#9c0e31" rx="28.515" ry="30.419" transform="rotate(-9.73 288.324 231.962)" opacity="1" data-original="#9c0e31" class=""></ellipse><ellipse cx="231.576" cy="226.5" fill="#f5eedd" rx="31.834" ry="29.149" transform="rotate(-79.1 231.627 226.498)" opacity="1" data-original="#f5eedd"></ellipse><path fill="#91350b" d="M252.006 232.721c2.396-9.081-3.093-18.405-12.262-20.824-9.168-2.419-18.544 2.982-20.94 12.063s3.093 18.405 12.262 20.824c9.168 2.42 18.544-2.981 20.94-12.063z" opacity="1" data-original="#91350b"></path><path fill="#e09457" d="M231.065 244.785c.574.152 1.149.272 1.723.363-.382-.073-.764-.141-1.146-.242-8.838-2.332-14.13-11.32-11.82-20.074s11.348-13.961 20.185-11.629c8.838 2.332 14.13 11.32 11.82 20.074-.1.379-.229.741-.353 1.106.203-.539.381-1.093.531-1.662 2.396-9.081-3.093-18.405-12.262-20.824-9.168-2.419-18.544 2.982-20.94 12.063-2.396 9.082 3.094 18.405 12.262 20.825z" opacity="1" data-original="#e09457"></path><path fill="#2b0a0a" d="M244.337 229.771c1.039-3.937-1.341-7.979-5.316-9.028s-8.039 1.293-9.078 5.23 1.341 7.979 5.316 9.028 8.039-1.293 9.078-5.23z" opacity="1" data-original="#2b0a0a"></path><path fill="#f7f2e6" d="M232.569 227.049c.557-2.111-.719-4.278-2.85-4.841-2.131-.562-4.311.693-4.868 2.804s.719 4.278 2.85 4.841c2.132.562 4.311-.693 4.868-2.804z" opacity="1" data-original="#f7f2e6"></path><ellipse cx="286.966" cy="230.56" fill="#f5eedd" rx="23.846" ry="25.439" transform="rotate(-9.73 287.514 230.911)" opacity="1" data-original="#f5eedd"></ellipse><path fill="#91350b" d="M268.231 235.848c-1.974-7.482 2.548-15.163 10.102-17.156 7.553-1.993 15.277 2.456 17.251 9.938s-2.548 15.163-10.102 17.156c-7.553 1.993-15.277-2.456-17.251-9.938z" opacity="1" data-original="#91350b"></path><path fill="#e09457" d="M285.483 245.786c-.473.125-.947.224-1.419.299.315-.06.63-.116.944-.199 7.281-1.921 11.641-9.325 9.738-16.538-1.903-7.212-9.348-11.501-16.629-9.58s-11.641 9.326-9.738 16.538c.082.312.188.611.291.911a13.996 13.996 0 0 1-.437-1.369c-1.974-7.482 2.548-15.163 10.102-17.156 7.553-1.993 15.277 2.456 17.251 9.938 1.972 7.482-2.55 15.163-10.103 17.156z" opacity="1" data-original="#e09457"></path><path fill="#2b0a0a" d="M274.549 233.418c-.856-3.243 1.105-6.573 4.379-7.438 3.275-.864 6.623 1.065 7.479 4.309s-1.105 6.573-4.379 7.438c-3.275.863-6.623-1.066-7.479-4.309z" opacity="1" data-original="#2b0a0a"></path><path fill="#f7f2e6" d="M284.244 231.175c-.459-1.739.592-3.525 2.348-3.988s3.551.571 4.01 2.31-.592 3.525-2.348 3.988-3.551-.571-4.01-2.31z" opacity="1" data-original="#f7f2e6"></path><circle cx="246.138" cy="94.715" r="7.513" fill="#f0435c" opacity="1" data-original="#f0435c"></circle><g fill="#eb2643"><path d="M202.011 237.653c4.263 12.042 12.158 19.356 25.568 21.848 15.604 2.899 26.545-8.107 28.421-12.712-15.033-7.923-40.011-10.456-53.989-9.136zM212.356 201.186c3.66-3.931 14.128-10.923 28.908-6.353 11.787 3.645 20.236 17.968 20.236 25.594-14.552-13.545-28.321-20.159-49.144-19.241zM301.178 206.882c-4.082-3.49-15.742-6.273-24.275-2.069-7.487 3.688-11.14 7.393-14.267 18.023 7.959-8.072 23.137-15.954 38.542-15.954zM269.069 249.621c6.58 6.299 14.32 8.734 24.833 6.47 7.39-1.592 14.098-8.413 16.656-18.475-10.119-2.615-33.312 5.886-41.489 12.005z" fill="#eb2643" opacity="1" data-original="#eb2643"></path></g><path fill="#251b38" d="M311.58 200.132c-18.613-.591-39.112-7.135-47.556-12.784 7.753-32.929 34.039 2.097 47.556 12.784zM201.975 177.994c27.527-8.887 46.852-4.373 56.217 5.873 12.752-38.614-39.474-22.855-56.217-5.873z" opacity="1" data-original="#251b38"></path><path fill="#a19887" d="M378.368 248.139c-7.803-1.187-19.074-3.398-23.407-1.949-2.516.842-5.365 2.433-7.831 4.156-.911 4.742.734 12.165 6.664 23.5 5.22 1.153 12.518-1.72 15.55-3.115 14.872.906 14.885-13.645 9.024-22.592z" opacity="1" data-original="#a19887"></path><path fill="#e0d5c1" d="M376.381 246.589c-.465-.181-1-.38-1.594-.59-2.173 1.162-6.554 5.96-7.051 6.965-1.504 3.039-5.114 2.26-7.794 2.966-.647.17 5.963 15.116 7.784 15.072.31-.008.739-.039 1.245-.103.126-.057.258-.115.373-.168.2.012.385.01.58.017 2.542-.476 6.276-1.77 8.758-5.081 3.376-4.504 2.408-12.345-2.301-19.078z" opacity="1" data-original="#e0d5c1"></path><path fill="#e0d5c1" d="M368.067 272.243c4.443-4.297 2.057-8.755-1.738-12.523-3.391-3.367-6.878-3.665-11.319-2.683-2.544-1.893-2.701-6.329-4.828-8.63-4.229-4.28-3.293-6.888-5.554-9.042-3.553-3.387-7.247 6.785-6.315 9.119 3.442 8.614-1.829 13.305 4.276 20.922 6.563 2.856 12.904 14.997 25.478 2.837z" opacity="1" data-original="#e0d5c1"></path><path fill="#a19887" d="M370.443 266.819c-.191-2.488-1.909-4.91-4.114-7.099-3.391-3.367-6.878-3.665-11.319-2.683-2.084-1.55-2.567-4.805-3.842-7.197-.284-.058-.57-.121-.86-.188 1.293 3.002 2.302 6.376 3.986 8.693 8.775-1.435 14.718 3.22 16.149 8.474z" opacity="1" data-original="#a19887"></path><path fill="#c7c4d1" d="M248.567 324.559c1.409-1.22 5.775-6.109 16.878-7.658 2.89-.403 7.596-.55 14.907 4.354-2.051-5.705-9.319-7.505-15.559-6.413-5.21.912-12.302 4.366-16.226 9.717z" opacity="1" data-original="#c7c4d1"></path><path fill="#766f85" d="M215.942 326.351c4.185 3.064 7.451-.743 12.613-4.142 8.638-5.688 20.429-12.878 27.746-13.683 4.25-.468 29.671-2.578 36.771 15.732-4.783-17.04-21.96-19.85-37.743-17.489-9.196 1.376-18.936 8.608-28.363 15.097-3.219 2.216-8.446.15-11.024 4.485z" opacity="1" data-original="#766f85"></path><path fill="#c9bfad" d="M149.93 379.79a2.931 2.931 0 0 1-2.296-4.756c.312-.393 7.749-9.619 17.678-8.976a2.934 2.934 0 0 1 2.742 3.115c-.104 1.618-1.508 2.835-3.115 2.742-6.835-.43-12.656 6.702-12.713 6.774a2.937 2.937 0 0 1-2.296 1.101z" opacity="1" data-original="#c9bfad"></path><path fill="#a19887" d="M167.587 393.035c.228-1.237-13.271 4.609-12.804 10.239 5.476 8.275 7.259 15.872 7.642 18.74.34 2.54 9.342.54 8.716-5.53-.291-2.821-6.084-9.749-3.554-23.449z" opacity="1" data-original="#a19887"></path><path fill="#e0d5c1" d="M166.083 370.939c-7.281-1.101-12.669 2.503-15.676 7.525.038 8.956 1.961 17.664 1.715 23.308 4.39 8.898 5.201 16.66 5.22 19.553.016 2.563 9.198 1.714 9.342-4.387.066-2.836-2.597-12.218 5.013-24.491.662-1.069 2.93 3.43 2.997 6.988 3.468 5.348 10.266 2.37 10.307-3.198-2.392-4.896-2.644-8.418-4.861-13.838-1.366-3.339-11.295-9.765-14.057-11.46z" opacity="1" data-original="#e0d5c1"></path><path fill="#48586e" d="M275.497 262.577c-9.294-4.337-18.9-8.841-28.532-.571-8.247 7.08-12.487-30.296-.338-24.231 9.411 4.698 21.304 4.505 28.342 0 9.911-6.344 8.836 28.679.528 24.802z" opacity="1" data-original="#48586e"></path><path fill="#596a80" d="M275.786 285.441c18.242 9.749 62.289 2.142 67.612-6.1 6.848-10.604 13.254-31.628 3.178-43.757-5.321-6.405-61.515-13.783-77.404-1.287-10.742 8.449-2.776 46.125 6.614 51.144z" opacity="1" data-original="#596a80"></path><path fill="#e0d5c1" d="M343.09 231.648c.884 4.173 2.665 8.935 3.458 14.074.684 4.432 9.475 2.661 10.664-.182 1.041-2.489-.447-10.147-1.174-13.31-1.195-5.199-13.832-4.755-12.948-.582z" opacity="1" data-original="#e0d5c1"></path><path fill="#a19887" d="M354.412 229.955c.963 4.901 1.844 12.762 1.479 14.917-6.027 3.482-8.418 2.996-11.147-6.94v.001c.692 2.472 1.386 5.076 1.804 7.789.684 4.432 9.475 2.661 10.664-.182 1.041-2.489-.447-10.147-1.174-13.31-.216-.94-.809-1.693-1.626-2.275z" opacity="1" data-original="#a19887"></path><path fill="#e0d5c1" d="M356.489 236.654c.081 4.265.93 9.278.74 14.473-.165 4.484 8.802 4.404 10.506 1.836 1.492-2.248 1.476-10.049 1.359-13.293-.192-5.331-12.686-7.281-12.605-3.016z" opacity="1" data-original="#e0d5c1"></path><path fill="#a19887" d="M367.958 237.164c.413 10.103.038 11.446-1.974 15.122-3.322 1.165-6.665 1.283-8.755-1.157-.162 4.482 8.802 4.401 10.506 1.834 1.492-2.248 1.476-10.049 1.359-13.293-.034-.949-.463-1.788-1.136-2.506z" opacity="1" data-original="#a19887"></path><path fill="#e0d5c1" d="M369.187 240.431c-.55 3.448-.588 7.609-1.491 11.767-.779 3.587 6.456 4.816 8.2 2.993 1.526-1.596 2.638-7.883 3.012-10.513.614-4.322-9.171-7.695-9.721-4.247z" opacity="1" data-original="#e0d5c1"></path><path fill="#a19887" d="M375.896 255.191c1.526-1.596 2.638-7.883 3.012-10.513.109-.77-.115-1.508-.554-2.184-1.124 8.196-1.621 9.228-3.772 11.899-2.844.459-5.554.072-6.886-2.194-.777 3.586 6.456 4.815 8.2 2.992z" opacity="1" data-original="#a19887"></path><path fill="#282133" d="M281.1 281.028c15.224 8.137 51.987 1.787 56.429-5.091 5.715-8.85 11.062-26.397 2.653-36.52-4.441-5.346-51.34-11.503-64.601-1.074-8.967 7.052-2.318 38.497 5.519 42.685z" opacity="1" data-original="#282133" class=""></path><path fill="#3e324f" d="M343.047 263.345c2.271-8.236 2.429-17.553-2.866-23.928-4.441-5.346-51.34-11.503-64.601-1.074-4.83 3.799-5.129 14.677-3.151 24.56 33.958 5.865 45.371-12.949 70.618.442z" opacity="1" data-original="#3e324f" class=""></path><path fill="#5a4a70" d="M333.896 243.639c8.847 5.458 3.041 25.739 1.054 30.958 5.147-7.969 9.961-23.769 2.389-32.885-2.499-3.009-19.846-6.965-35.573-6.057-6.067.35-3.257 5.894 1.116 5.837 10.27-.132 24.204-2.054 31.014 2.147z" opacity="1" data-original="#5a4a70" class=""></path><path fill="#596a80" d="M241.889 285.441c-18.242 9.749-62.289 2.142-67.612-6.1-6.848-10.604-13.255-31.628-3.178-43.757 5.321-6.405 61.515-13.783 77.404-1.287 10.742 8.449 2.776 46.125-6.614 51.144z" opacity="1" data-original="#596a80"></path><path fill="#282133" d="M236.575 281.028c-15.224 8.137-51.987 1.787-56.429-5.091-5.715-8.85-11.062-26.397-2.653-36.52 4.441-5.346 51.34-11.503 64.601-1.074 8.966 7.052 2.317 38.497-5.519 42.685z" opacity="1" data-original="#282133" class=""></path><path fill="#3e324f" d="M174.627 263.345c-2.271-8.236-2.429-17.553 2.866-23.928 4.441-5.346 51.34-11.503 64.601-1.074 4.83 3.799 5.129 14.677 3.151 24.56-33.957 5.865-45.37-12.949-70.618.442z" opacity="1" data-original="#3e324f" class=""></path><path fill="#5a4a70" d="M183.779 243.639c-8.847 5.458-3.041 25.739-1.054 30.958-5.147-7.969-9.961-23.769-2.389-32.885 2.499-3.009 19.846-6.965 35.573-6.057 6.067.35 3.257 5.894-1.116 5.837-10.271-.132-24.204-2.054-31.014 2.147z" opacity="1" data-original="#5a4a70" class=""></path><path fill="#464452" d="M418.836 71.372c-68.642.282-100.974 3.268-171.703 19.601-53.255 12.298-102.64 32.454-153.97 74.982 11.353 10.779 31.899 20.399 49.017 24.872 36.011.78 114.45 12.32 139.291 8.551 33.811-21.532 67.855-49.714 101.393-67.133 20.678-16.8 30.096-34.208 35.972-60.873z" opacity="1" data-original="#464452"></path><path fill="#545463" d="M278.655 191.724c30.067-26.11 128.385-59.882 128.86-112.544-2.354 17.137-50.458 80.495-137.743 87.245-12.801.184 42.525-73.974 45.411-77.306 2.607-3.01 46.058-9.609 75.05-12.253-26.819-3.122-174.435-4.187-286.868 84.891 4.727 6.197 31.668 23.99 45.473 25.807 45.75 2.632 92.047 1.618 129.817 4.16z" opacity="1" data-original="#545463"></path><path fill="#3b3745" d="M407.515 79.18c-11.836 39.283-106.16 88.418-130.447 84.31 46.459-45.426 56.339-45.247 41.587-70.828 13.965-6.862 65.507-14.424 71.578-15.796-141.403 3.755-192.931 25.618-280.793 84.354 9.713 9.493 18.178 14.557 31.429 19.473 26.133 6.988 96.305 5.782 137.044 6.142 29.131-25.147 120.134-55.937 129.602-107.655z" opacity="1" data-original="#3b3745" class=""></path><path fill="#4e4e5c" d="M315.455 108.234c4.659 14.65-40.018 41.28-57.476 43.929s-70.084-8.111-71.117-24.129c-1.599-24.805-14.994-55.725-2.426-87.645 11.579-29.408 39.418-.299 45.741-1.259 5.073-.77 55.129-22.957 64.358-15.446 30.112 24.506 2.708 27.286 20.92 84.55z" opacity="1" data-original="#4e4e5c"></path><path fill="#853e35" d="M317.989 115.533c-3.576 6.774-41.757 43.003-57.67 45.69s-65.403-9.936-75.84-20.259c-2.068-9.188-4.725-25.981-.485-27.868 26.782 22.078 59.025 27.149 72.386 25.122s51.664-43.481 55.164-47.322c2.84 1.129 6.353 18.961 6.445 24.637z" opacity="1" data-original="#853e35"></path><g fill="#42424f"><path d="M190.388 81.26s-4.99-37.843 6.377-40.57 19.003 12.908 22.881 23.598c3.878 10.691 8.494 49.432 8.253 54.392-3.065-17.999-13.293-39.705-16.502-45.986s-9.023-19.822-14.212-16.027c-5.19 3.796-5.679 12.142-6.797 24.593zM303.658 55.211s-4.366-19.226-13.567-14.902c-14.141 6.645-33.726 12.124-34.189 22.003s5.697 43.245 7.177 47.303c-2.098-15.74 1.004-39.934 2.049-45.978s15.665-13.494 23.619-17.099c5.093-2.308 8.544.993 14.911 8.673z" fill="#42424f" opacity="1" data-original="#42424f"></path></g><path fill="#96572f" d="M317.689 412.571c-21.57 8.027-37.559 11.18-53.339 11.889.325 1.07.239 3.602-.856 3.614-20.638.225-43.681-8.338-74.279-22.3 4.403-26.015-16.708-35.859-9.596-84.887 23.197-2.045 29.408 21.494 72.95 48.075 20.436-6.18 58.527-42.131 75.932-50.12 4.136 55.838-14.696 59.775-10.812 93.729z" opacity="1" data-original="#96572f"></path><path fill="#804123" d="M325.288 349.173c-13.48 12.039-53.616 20.98-72.721 19.789 20.436-6.18 58.527-42.131 75.932-50.12.238 3.211.4 6.251.495 9.134-1.717 1.066-4.418 1.989-8.983 3.919 2.568 4.138 4.922 11.699 5.277 17.278z" opacity="1" data-original="#804123"></path><path fill="#804123" d="M184.268 349.895c-1.522-4.565.226-12.192 3.555-16.471-2.889-.838-7.074-2.74-9.116-4.955.228-2.42.528-4.944.911-7.582 23.197-2.045 39.667 25.443 83.21 52.024-13.696 1.769-58.253-4.661-78.56-23.016z" opacity="1" data-original="#804123"></path><path fill="#804123" d="M317.689 412.571c-21.57 8.027-37.559 11.18-53.339 11.889.325 1.07.239 3.602-.856 3.614-20.638.225-43.681-8.338-74.279-22.3 22.762 5.879 49.694 21.539 72.948 19.541 4.302-25.101.666-39.422.666-52.405 3.614 20.686 4.898 35.666 1.902 49.773 24.394.001 36.092-7.642 52.958-10.112z" opacity="1" data-original="#804123"></path><path fill="#b87142" d="M262.827 372.911c-42.983-4.319-70.884-22.339-76.277-25.774 1.031-6.936 3.709-13.361 7.066-17.644-7.5-1.66-15.34-3.803-20.487-9.082-.464-3.494.966-22.237 5.918-33.39 6.9 11.53 29.791 51.89 83.78 85.89z" opacity="1" data-original="#b87142"></path><path fill="#b87142" d="M252.568 368.962c42.983-4.319 64.057-18.39 69.449-21.826-1.031-6.936-3.709-13.361-7.066-17.644 10.267-4.612 19.156-8.144 25.485-12.576-1.53-8.75-5.941-14.154-12.104-28.942-6.899 11.531-21.775 46.989-75.764 80.988z" opacity="1" data-original="#b87142"></path><circle cx="256.265" cy="383.753" r="4.47" fill="#523124" opacity="1" data-original="#523124"></circle><circle cx="256.265" cy="407.979" r="4.47" fill="#523124" opacity="1" data-original="#523124"></circle><path fill="#781936" d="M256.572 295.4c16.813 6.448 39.937 19.652 52.844 19.33-7.785-9.363-28.043-38.609-52.844-19.33z" opacity="1" data-original="#781936"></path><path fill="#63142d" d="M284.43 307.591c9.507 4.073 18.526 7.3 24.986 7.139-4.559-5.483-13.395-17.779-24.915-23.162a96.74 96.74 0 0 1 2.608 5.907c3.004 7.478.845 8.989-2.679 10.116z" opacity="1" data-original="#63142d"></path><path fill="#400d1d" d="M305.287 309.636c-.246.057-.491.119-.739.164-3.098.577-6.351.464-9.548.027-5.257-.736-10.377-2.367-15.364-4.335 3.825 1.705 7.627 3.341 11.277 4.752 1.276.344 2.563.656 3.871.903 3.272.604 6.657.899 10.057.434a16.794 16.794 0 0 0 1.752-.339c-.417-.516-.852-1.052-1.306-1.606zM269.222 300.787a46.036 46.036 0 0 0 5.419-.203c3.828-.353 7.601-1.148 11.311-1.877 1.854-.346 3.709-.673 5.505-.731 1.192-.037 2.307.088 3.29.488a56.24 56.24 0 0 0-2.844-2.333c-.173.003-.347.006-.518.014-2.01.11-3.903.528-5.772.95-3.727.867-7.376 1.82-11.109 2.385a50.952 50.952 0 0 1-6.873.592l1.591.715z" opacity="1" data-original="#400d1d"></path><path fill="#781936" d="M210.082 314.731c12.907.321 36.031-12.883 52.844-19.33-24.802-19.28-45.06 9.966-52.844 19.33z" opacity="1" data-original="#781936"></path><path fill="#63142d" d="M232.388 297.476a97.045 97.045 0 0 1 2.609-5.908c-11.52 5.383-20.357 17.679-24.915 23.163 6.46.161 15.479-3.067 24.985-7.139-3.524-1.128-5.683-2.638-2.679-10.116z" opacity="1" data-original="#63142d"></path><g fill="#400d1d"><path d="M214.95 309.8c-.248-.045-.493-.106-.739-.164-.454.553-.889 1.09-1.306 1.606.584.14 1.17.262 1.751.339 3.4.465 6.785.17 10.057-.434a52.463 52.463 0 0 0 3.873-.904c3.651-1.412 7.453-3.048 11.28-4.754-4.988 1.969-10.111 3.602-15.369 4.338-3.196.437-6.449.55-9.547-.027zM244.993 299.481c-3.733-.565-7.382-1.518-11.109-2.385-1.869-.422-3.762-.84-5.772-.95-.171-.009-.345-.011-.518-.014a56.24 56.24 0 0 0-2.844 2.333c.983-.401 2.098-.526 3.291-.489 1.796.058 3.651.385 5.505.731 3.71.729 7.483 1.524 11.311 1.877 1.8.176 3.612.241 5.42.203a503.7 503.7 0 0 1 1.59-.714 50.966 50.966 0 0 1-6.874-.592z" fill="#400d1d" opacity="1" data-original="#400d1d"></path></g></g></svg>