<svg xmlns="http://www.w3.org/2000/svg" version="1.1" xmlns:xlink="http://www.w3.org/1999/xlink" width="512" height="512" x="0" y="0" viewBox="0 0 512 512" style="enable-background:new 0 0 512 512" xml:space="preserve" class=""><g><path fill="#fa5d53" d="M440.71 410.18c-.39-.77-60.66-72.1-59.21-73.58 21.17-21.54 41.77-43.97 57.76-69.69 3.06-4.93-3.55-10.53-6.28-13.99q-4.365-5.52-8.72-11.04c-2.28-2.88-4.73-7.77-8.97-7.79q-22.155-.075-44.31-.16c-2.45-.01-4.94-.14-7.39-.03-5.83.27-10.24 7.36-13.91 11.3q-3.63 3.9-7.19 7.86c-3.49 3.89-3.53 4.68-6.9.41q-5.1-6.465-10.21-12.93c-2.32-2.93-5-8.17-9.31-8.17h-48.09a6.09 6.09 0 0 0-6 6q-.06 27.825-.13 55.64c0-3.08-18.79-24.29-23.48-29.82-22.63-25.87-55.86-40.68-90.16-32.26-35.43 8.7-56.91 41.91-60.61 76.64-1.92 17.98-.07 37.81 9.63 53.46 7.25 11.68 16.49 22.33 25.36 32.8a94.25 94.25 0 0 0 31.75 24c15.44 7.26 32.62 10.72 49.6 8.11 16.83-2.59 31.88-11.91 42.74-24.89a98.235 98.235 0 0 0 14.98-24.86l-.03 13.32c-.01 4.54 6.05 9.75 8.66 13.05 3.44 4.37 9.99 16.74 16.12 16.74q24.015-.6 48.01-1.22a6.083 6.083 0 0 0 6-6c-.31-12.53-.59-25.06-.01-37.57 3.22 4.28 19.61 25.67 24.67 32.02 3.69 4.63 7.51 12.15 14.23 12.34 3.22.09 41.48.31 57.38.43 6.69.05 6.18-5.93 4.02-10.12zm-276.17-71.4a29.761 29.761 0 0 1 4.19-11.01c5.93-9.44 15.3-11.6 24.61-8.85a23.743 23.743 0 0 1-3.85 9.93 28.187 28.187 0 0 1-24.95 9.93z" opacity="1" data-original="#fa5d53" class=""></path><path fill="#efeae1" d="M238.8 292.74c-1.52-8.08-5.41-14.67-10.67-20.87-10.72-12.26-24.19-22.56-39.92-27.38a68.737 68.737 0 0 0-44.57 1.84c-28.17 11.51-42.43 41.23-42.76 70.43-.18 15.77 3.02 31.03 13.48 43.24a82.555 82.555 0 0 0 35.24 23.93c13.33 4.65 27.94 5.91 41.53 1.56 13.45-4.3 24.52-14.21 32.1-25.93 8.46-13.12 12.97-28.46 15.34-43.78 1.16-7.54 1.64-15.51.23-23.04zm-40.55 40.05a5.486 5.486 0 0 1-.48.58 3.312 3.312 0 0 1-.23.33c-9.6 12.41-27.49 17.07-42.17 11.77-14-5.05-22.35-17.9-20.35-32.82 1.75-13.14 10.86-26.56 24.07-30.08 13.67-3.64 30.23 2.59 38.92 13.72 8.18 10.47 7.63 25.78.24 36.5zM406.3 382.41q-22.875-.18-45.74-.35-19.59-26.01-39.18-52.03c-2.72-3.61-7.64-2.24-8.19 2.22-2 16.32-1.86 32.74-1.47 49.15q-18.99.5-37.97.97.165-69.825.32-139.64h38.22q.195 24.15 1.19 48.29c.14 3.39 4.98 6.32 7.5 3.1a650.385 650.385 0 0 1 43.34-49.89l41.13.15c-15.66 23.42-35.23 43.97-55.01 63.94a4.74 4.74 0 0 0 0 6.21c19.91 21.52 36.77 45.65 55.86 67.88z" opacity="1" data-original="#efeae1" class=""></path><path fill="#2f2f51" d="M440.229 179.7c-1.826-10.717-8.6-19.222-18.11-22.75a25.329 25.329 0 0 0-13.865-1.08 9.963 9.963 0 0 0-8.125-14.955 8.614 8.614 0 0 0-6.832 3.469l-1.713 2.178c-.034-.586-.059-1.223-.085-1.882-.209-5.329-.5-12.627-6.343-16.341a8.88 8.88 0 0 0-4.766-1.393 10.421 10.421 0 0 0-6.474 2.4 18.21 18.21 0 0 0-2.161 2.039q.691-1.275 1.381-2.523a9.148 9.148 0 0 0-.058-9.273 10.091 10.091 0 0 0-8.526-4.906 8.748 8.748 0 0 0-6.562 2.872 8.81 8.81 0 0 0-1.4-7.523 9.838 9.838 0 0 0-7.948-3.909 9.32 9.32 0 0 0-9.033 6.633 235.243 235.243 0 0 1-2.2 6.629 192.456 192.456 0 0 0-9.752-3.466 334.5 334.5 0 0 1 2.458-6.377 8.656 8.656 0 0 0-.749-8.181 10.033 10.033 0 0 0-13.315-2.588 9.558 9.558 0 0 0-7.474-4.73s-33.1-3.075-33.409-3.075a8.663 8.663 0 0 0-6.315 2.633 9.506 9.506 0 0 0-6.509-2.736 8.947 8.947 0 0 0-6.7 3.106l-3.788 4.229s-5.47 6.241-6.275 7.268l-.052.067-.2-.174c-.873-.769-7.63-6.131-10.732-8.668a9.575 9.575 0 0 0-6.115-2.22 10.156 10.156 0 0 0-9.29 6.236 20.34 20.34 0 0 0-12.7-3.92c-9.729 0-19.7 5.029-23.535 7.191a9.031 9.031 0 0 0-4.721 7.172 9.952 9.952 0 0 0-7.693-3.853 9.727 9.727 0 0 0-4.146.94l-21.341 9.978a8.589 8.589 0 0 0-5.174 8.667 9.383 9.383 0 0 0-3.117-.521 10.134 10.134 0 0 0-7.814 3.7 9.335 9.335 0 0 0-1.852 7.965c.5 2.349 1.044 4.731 1.571 7.035.369 1.614.746 3.261 1.111 4.917a164.46 164.46 0 0 1-8.255-7.918 9.155 9.155 0 0 0-6.581-2.871 9.874 9.874 0 0 0-8.913 6.078 9.227 9.227 0 0 0-.64 4.936 9.725 9.725 0 0 0-4.243-1 9.4 9.4 0 0 0-6.3 2.437l-21.083 18.64a8.794 8.794 0 0 0-2.556 9.87 10.088 10.088 0 0 0 9.247 6.423 9.18 9.18 0 0 0 3.515-.691c1.21 1.38 8.118 9.693 10 12.122a8.89 8.89 0 0 0 .169 6.183 10.05 10.05 0 0 0 9.1 6.277 9.251 9.251 0 0 0 6.427-2.619l20.958-19.747a8.961 8.961 0 0 0 2.309-9.983 9.718 9.718 0 0 0-1.379-2.4q2.74 1.979 5.559 3.861a8.9 8.9 0 0 0 4.956 1.511 9.737 9.737 0 0 0 9.591-9.515c.086-10.617-2.261-20.954-4.53-30.951-.407-1.795-.826-3.637-1.224-5.461a9.67 9.67 0 0 0 1.306.471 463.704 463.704 0 0 0 2.028 4.482 9.445 9.445 0 0 0 2.778 5.994 482.108 482.108 0 0 0 7.081 14.283 9.5 9.5 0 0 0 8.437 4.942 8.813 8.813 0 0 0 4.963-1.481 74.3 74.3 0 0 1 16.092-8.349 9.505 9.505 0 0 0 6.008-6.6 9.442 9.442 0 0 0 5.86 2.011 9.82 9.82 0 0 0 7.954-3.915 8.66 8.66 0 0 0 1.634-6.08 33.495 33.495 0 0 1 3.5 3.343 8.989 8.989 0 0 0 6.677 3.058 9.845 9.845 0 0 0 8.776-5.935 9.258 9.258 0 0 0-1.694-10.219 50.466 50.466 0 0 0-4.474-4.341 17.739 17.739 0 0 0 3.871-12.158 410.956 410.956 0 0 0 6.522 5.076c.517.394 1.15.936 1.82 1.51.787.675 1.66 1.423 2.59 2.145l.351 4.068.559 6.477a9.669 9.669 0 0 0 9.869 8.885 9.309 9.309 0 0 0 6.881-2.9 8.847 8.847 0 0 0 2.213-6.843l-.976-11.31c.563-.665 1.083-1.33 1.551-1.928s.921-1.176 1.277-1.575l5.044-5.633 4.847-5.413a9.609 9.609 0 0 0 5.926 2.745l3.54.33a213.4 213.4 0 0 0-.486 22.991 9.426 9.426 0 0 0 9.649 9.176 9.554 9.554 0 0 0 6.861-2.813 9.079 9.079 0 0 0 2.485-6.7 203.736 203.736 0 0 1 .384-20.9s10.589.977 10.866.98a386.254 386.254 0 0 0-6.432 19.024 8.914 8.914 0 0 0 1.273 8.113 9.855 9.855 0 0 0 7.94 3.9 9.285 9.285 0 0 0 9.021-6.669c.356-1.153.726-2.328 1.125-3.569 3.11.982 6.168 2.047 9.117 3.175-.355.812-.708 1.6-1.06 2.385a9.557 9.557 0 0 0 .669 9.277 10.054 10.054 0 0 0 8.308 4.665 8.346 8.346 0 0 0 4.195-1.1 9.725 9.725 0 0 0 1.288 3.028 10.051 10.051 0 0 0 8.314 4.672 8.453 8.453 0 0 0 3.038-.563 8.518 8.518 0 0 0 .894 2.74 10.15 10.15 0 0 0 8.839 5.224 9.466 9.466 0 0 0 7.857-4.154l1.236-1.781 1.071 9.835a10.426 10.426 0 0 0 9.868 9.1 8.127 8.127 0 0 0 2.51-.392 26.148 26.148 0 0 0 1.084 8.906 31.292 31.292 0 0 0 19.152 19.972 9.338 9.338 0 0 0 6.1 2.341 8.725 8.725 0 0 0 3.874-.918 8.432 8.432 0 0 0 6.049-5.721c1.42-1.565 2.87-3.167 4.307-4.779l.108-.121c1.64-1.837 4.058-4.548 4.018-8.621a10.291 10.291 0 0 0 5.874-3.432 9.525 9.525 0 0 0 2.114-7.873zm-232.648-63.8c-.282.444-1.247 1.61-4.275 3.266l-1-3.125a13.545 13.545 0 0 1 3.606-.6c1.203.007 1.533.279 1.668.468zm-26.149 14.977a9.618 9.618 0 0 0-4.473-6.877 8.446 8.446 0 0 0 3.387-5.979 9.691 9.691 0 0 0 3.556 2.846l5.311 16.579a8.45 8.45 0 0 0-3.17-.607 9.529 9.529 0 0 0-3.3.607q-1.915.706-3.792 1.484a9.428 9.428 0 0 0 2.48-8.044zm-57.6 40.952a9.05 9.05 0 0 0-4.673 1.288 8.994 8.994 0 0 0-.447-5.492 9.95 9.95 0 0 0-8.172-6.156 8.515 8.515 0 0 0 .434-3.1 179.049 179.049 0 0 0 16.246 14.107 9.336 9.336 0 0 0-3.388-.638z" opacity="1" data-original="#2f2f51"></path><path fill="#009995" d="M202.842 186.529a52.809 52.809 0 0 1-6.376 19.019c-.722 1.251-1.6 2.285-2.43 3.445a3.556 3.556 0 0 1-.629.642 1.457 1.457 0 0 0 .064-.411c.165-5.7 1.584-10.214 3.753-15.512 1.7-4.158-4.2-6.586-6.98-4.063a57.941 57.941 0 0 0-11.617 14.4c-.624 1.107-4.67 12.166-7.549 10.113-1.4-1 2.074-8.033 2.728-9.34 1.379-2.753 3.059-5.349 4.423-8.108 2.168-4.386 3.3-9.859-.552-13.708-6.605-6.6-21.435-2.369-28.09 2.109-7.207 4.849-13.957 17.208-5.3 24.108 4.163 3.316 10.111-2.556 5.906-5.906-4.032-3.212.621-8.846 3.606-10.989 3.924-2.817 9.037-3.94 13.8-4.008 2.437-.035 4.573-.163 4 2.807-.484 2.511-2.719 5.224-3.926 7.447-2.469 4.547-4.849 9.547-4.917 14.831-.12 9.3 10.762 11.78 16.7 5.842 2.684-2.686 3.862-6.076 5.52-9.365a13.47 13.47 0 0 0 1.313 4.283c2.47 4.861 7.988 5.181 12.039 2.135 8.269-6.217 11.618-20.076 12.868-29.77.684-5.317-7.675-5.267-8.354-.001zm-41.634-2.149c-.585.109-1.087.378-1.653.523a.683.683 0 0 1-.659-1.132 3.683 3.683 0 0 1 1.9-.9c.985-.247 1.391 1.329.412 1.51zm3.417-.738a.643.643 0 0 1 0-1.285c4.18-.22 11.175-1.166 12.945 3.9.51 1.462-1.865 2.459-2.5 1.055-1.746-3.838-6.847-3.512-10.445-3.669zm21.8 16.182a.643.643 0 0 1-1.109-.648c1.255-2.533 5.805-10.013 9.52-7.436 1.047.726.43 2.535-.9 2.138-3.124-.932-6.136 3.63-7.506 5.947zm91.775-36.49c1.711-5.235-6.059-7.039-8.054-2.22-5.293 12.785-13 26.6-20.474 38.846a63.714 63.714 0 0 1-4.5 6.82c-1.181 1.467-2.855 2.311-4.09 3.634a3.238 3.238 0 0 0-.667.151 14.648 14.648 0 0 1-.164-1.741c.373-5.3 3.045-11.476 4.818-16.514 1.648-4.685 3.541-9.26 5.62-13.757q1.45-2.873 2.793-5.8c2.2-4.81-4.752-9.07-7.212-4.216q-1.641 3.238-3.155 6.538a198.4 198.4 0 0 1-17.344 28.371 56.442 56.442 0 0 1-4.818 5.843c-.263.272-.62.553-.957.844.07-.579.059-1.254.137-1.73a45.2 45.2 0 0 1 1.685-6.633 57.827 57.827 0 0 1 6.1-12.818c2.87-4.563-4.354-8.76-7.212-4.216a65.677 65.677 0 0 0-7.41 16.3c-1.15 3.9-2.593 9.045-1.524 13.147 2.061 7.912 10.283 5.752 14.573 1.529a60.212 60.212 0 0 0 5.593-6.438 17.809 17.809 0 0 0 .094 2.025c.49 4.467 2.894 8.781 7.937 8.3 4.907-.47 9.256-4.445 12.116-8.222.165-.218.32-.447.483-.667.537 5.355 3.353 10.418 9.867 8.683 7.716-2.055 12.093-12.1 15.338-18.563 2.406-4.791-4.8-9.025-7.212-4.216-1.361 2.711-2.742 5.413-4.341 7.994a31.822 31.822 0 0 1-3.019 4.263c-.544.622-2.608 2.465-2.577 2.482-1.831-.96 2.828-12.6 3.466-14.3 4.269-11.378 10.329-22.169 14.11-33.719zm-2.836-2.661c1.03.469.268 1.993-.739 1.752a.868.868 0 0 0-.951.346 3.519 3.519 0 0 0-.8 1.4.643.643 0 0 1-1.239-.342c.232-1.736 1.712-4.072 3.724-3.156zm-29.615 13.4a12.671 12.671 0 0 1 1.489-3.874c.927-1.4 2.972-2.371 4.128-.6a1.3 1.3 0 0 1-1.453 1.89 6.092 6.092 0 0 1-.584-.233c-.212.262-.609.523-.843.83a19.861 19.861 0 0 0-1.538 2.494.657.657 0 0 1-1.204-.503zm-2.125 4.25a13.459 13.459 0 0 1 .432-1.644.721.721 0 1 1 1.324.558 12.1 12.1 0 0 0-.495 1.433.655.655 0 0 1-1.266-.343zm119.1 4.529c-4.826-2.307-9.068 4.892-4.216 7.212 2.517 1.2.055 7.287-.759 8.917a20.26 20.26 0 0 1-6.257 7.312c-4.7 3.4-13.839 7.029-19.532 4.249a6.677 6.677 0 0 1-2.9-2.746 19.821 19.821 0 0 0 13.1-8.073c3.33-4.746 4.434-11.755-1.07-15.414-10.407-6.917-18.807 4.516-20.893 14.932a4.55 4.55 0 0 0-.481.513c-2.551 3.208-5.19 6.655-8.437 9.265 2.981-3.956 4.985-8.46 4.376-13.656-1.026-8.754-8.367-11.233-15.247-8.67 2.007-4.688 4.059-9.341 5.975-13.984 2.049-4.964-6.029-7.128-8.054-2.22-5.992 14.52-13.327 29.136-16.374 44.631-1.031 5.24 6.959 7.5 8.054 2.22.2-.943.418-1.883.654-2.82a7.057 7.057 0 0 0 2.411 4.307 6.021 6.021 0 0 0 2.7 1.3 13.756 13.756 0 0 0 8.665 1.044c6.923-1.182 12.217-5.343 16.777-10.3 5.532 12.077 22.627 9.724 32.633 3.821a28.564 28.564 0 0 0 12.925-15.909c1.667-5.383 1.867-13.096-4.055-15.927zM303.1 205.845c-1.312 1.47-2.753 2.838-4.2 4.171l-.256.245a4.661 4.661 0 0 0-5.76-2.64 38.587 38.587 0 0 1 3.568-6.9c1.42-2.146 7.633-9.409 10.428-6.361 2.926 3.194-1.842 9.308-3.78 11.485zm7.231-13.146c-.684-3.195-4.6-3.543-7.278-3.068a.657.657 0 0 1-.5-1.2c3.6-2.107 9.173-.847 10.128 3.616.319 1.535-2.027 2.182-2.354.653zm.712 3.692q.071-.5.041-.307-.014.095 0-.116a.813.813 0 0 1 .093-.416l.026-.061a.913.913 0 0 1 1.094-.621 2.155 2.155 0 0 1 1.172 2.718 1.268 1.268 0 0 1-1.386.905 1.249 1.249 0 0 1-1.1-1.241c.034-.287.027-.575.056-.861zM325 195.225c-1.156-.04-.76-1.725-.493-2.357.361-.854 1.605-.493 1.838.24.272.856-.332 2.152-1.345 2.117zm1.381-4.145a12.446 12.446 0 0 1 4.875-5.977c2.026-1.162 5.581-1.8 7.338.055a1.384 1.384 0 0 1-.968 2.337c-1.045-.016-1.885-.563-2.918-.594a6.344 6.344 0 0 0-2.464.545 9.356 9.356 0 0 0-4.688 4.129c-.361.608-1.463.188-1.175-.495zm6.649.6c.941-.617 2.8-1.514 3.663-.151.607.955-1.489 3.637-1.95 4.184a11.338 11.338 0 0 1-6.489 3.773c.741-3.26 2.485-6.308 4.776-7.809zm-109.866-17c.4-2.645 3-6.746 6.448-6.746a3.718 3.718 0 0 1 2.348.914 4.606 4.606 0 0 1 1.83 2c1.96 4.122-2.615 10.228-7.856 8.047-1.726-.728-2.976-2.853-2.77-4.222z" opacity="1" data-original="#009995"></path><g fill="#ffc533"><path d="M120.833 175.751 106.564 189.2q-2.523-3.308-5.132-6.544c3.933-3.568 7.819-7.187 11.618-10.9 4.151-4.054-2.216-10.416-6.364-6.364-3.6 3.518-7.283 6.95-11 10.339q-2.073-2.419-4.2-4.789l13.05-11.538c4.348-3.844-2.037-10.19-6.364-6.364l-21.094 18.642c-4.348 3.844 2.037 10.19 6.364 6.364l1.309-1.157q3.371 3.74 6.616 7.586a5.13 5.13 0 0 0 .606.712q4.153 4.981 8.056 10.168l-.152.143c-4.224 3.981 2.149 10.336 6.364 6.364l20.959-19.748c4.221-3.98-2.151-10.336-6.367-6.363zM131.992 134.642c1.784 8.388 4.08 16.889 5.118 25.468a164.568 164.568 0 0 1-19.168-16.91c-4.043-4.162-10.4 2.206-6.364 6.364a174.273 174.273 0 0 0 28.314 23.514c2.909 1.941 6.745-.639 6.771-3.886.1-12.476-3.414-24.82-5.992-36.942-1.205-5.663-9.882-3.267-8.679 2.392zM184.473 139.792a91.232 91.232 0 0 0-15.269 7.245q-2.181-4.326-4.276-8.693a30.876 30.876 0 0 1 8.47-4.062c5.523-1.689 3.168-10.379-2.393-8.679a40.714 40.714 0 0 0-9.91 4.547q-1.195-2.622-2.353-5.262l14.318-6.694c5.242-2.451.678-10.212-4.542-7.771l-21.341 9.977c-4.857 2.271-1.3 9.092 3.4 8.144q1.8 4.1 3.673 8.161a4.453 4.453 0 0 0 1.856 4.018q3.583 7.579 7.433 15.032a4.53 4.53 0 0 0 6.157 1.614 79.682 79.682 0 0 1 17.165-8.9c5.394-1.984 3.064-10.686-2.388-8.677zM215.352 125.065c5.277-4.4 8.439-10.167 4.977-17.444-6.553-13.773-25.056-7.189-34.914-1.632-4.315 2.433-1.625 8.467 2.407 8.383l5.228 16.32a5.181 5.181 0 0 0 .46 1.436l2.665 8.319c1.76 5.494 10.453 3.146 8.678-2.393l-1.865-5.821a73.272 73.272 0 0 0 3.839-1.773 38.063 38.063 0 0 1 10.423 8.094c3.907 4.293 10.257-2.087 6.364-6.364a45.26 45.26 0 0 0-8.262-7.125zm-19.27-14.4c5.738-2.505 12.979-4.407 15.85.423 3.331 5.6-5.49 10.148-11.658 12.661zM259.363 94.964l-7.565 8.449c-1.757 1.963-3.582 4.669-5.576 6.7-2.276-1.448-4.623-3.848-6.448-5.253a362.325 362.325 0 0 1-8.342-6.644c-4.448-3.638-10.852 2.693-6.364 6.364q5.521 4.516 11.192 8.843c1.736 1.322 3.879 3.448 6.163 4.9l1.108 12.843c.494 5.727 9.5 5.779 9 0l-1.166-13.5c1.652-1.6 3.053-3.711 4.274-5.074l10.087-11.265c3.855-4.303-2.489-10.689-6.363-6.363zM293.047 104.274l15.058 1.406c5.764.538 5.728-8.465 0-9l-32.458-3.03c-5.764-.538-5.727 8.465 0 9l8.487.792a207.291 207.291 0 0 0-.9 27.342c.192 5.776 9.193 5.8 9 0a207.292 207.292 0 0 1 .813-26.51zM344.373 111.916a254.018 254.018 0 0 1-4.02 11.7 184.26 184.26 0 0 0-19.214-6.812 377.852 377.852 0 0 1 4.323-11.449c2.141-5.382-6.56-7.719-8.679-2.393q-5.539 13.925-9.956 28.241c-1.712 5.547 6.973 7.919 8.678 2.393a378.744 378.744 0 0 1 2.672-8.286 165.2 165.2 0 0 1 18.94 6.628q-1.49 3.613-3.1 7.185c-2.37 5.236 5.384 9.817 7.771 4.542a262.094 262.094 0 0 0 11.26-29.353c1.747-5.54-6.939-7.912-8.675-2.396zM360.989 119.559q-7.092 12.827-13.165 26.162c-2.383 5.232 5.371 9.812 7.771 4.542q6.075-13.338 13.165-26.162c2.804-5.072-4.965-9.618-7.771-4.542zM397.226 145.134l-9.32 11.85L386.71 146c-.526-4.827.392-12.842-4.235-15.781-1.836-1.166-3.906-.523-5.453.7-3.144 2.492-5.32 7.1-7.6 10.382l-8.433 12.146c-3.311 4.769 4.487 9.273 7.771 4.542l7.309-10.526c.566-.815 1.145-1.759 1.745-2.747.17 2.429.285 4.853.531 7.113l1.8 16.525c.364 3.342 4.989 6.606 7.682 3.182L403.59 151.5c3.542-4.505-2.784-10.917-6.364-6.366zM435.3 178.2c-1.44-8.451-6.742-15.869-14.92-18.9a20.377 20.377 0 0 0-22.9 6.246c-11.216 13.76-1.928 31.832 13.005 36.576a4.107 4.107 0 0 0 5.54 1.019 3.545 3.545 0 0 0 3.216-3.358q2.582-2.844 5.146-5.7c1.559-1.749 3.115-3.424 2.82-5.956-.3-2.589-2.476-4.087-4.268-5.7l-8.464-7.6c-4.3-3.861-10.684 2.484-6.364 6.364.621.558 5.461 5.379 8.485 8.039-.244.3-.484.6-.72.865l-3.191 3.531c-9.208-2.755-14.956-14.479-8.089-22.584a11.389 11.389 0 0 1 13.539-2.95c5.127 2.27 7.585 7.231 8.484 12.5.973 5.697 9.647 3.281 8.681-2.392z" fill="#ffc533" opacity="1" data-original="#ffc533"></path></g><path fill="#2f2f51" d="M258.183 337.635a1.8 1.8 0 0 0-.268-.849c-.392-1.484-2.775-1.928-3.039-.154q-.987 6.626-2.588 13.091a1.607 1.607 0 0 0-.16.267 28.891 28.891 0 0 0-2.476 8c-.076.239-.149.479-.225.718a2.62 2.62 0 0 0-.884 1.086c-1.536 3.411-3.33 6.56-4.886 9.89a73.735 73.735 0 0 1-7.474 11.449 69.3 69.3 0 0 1-14.57 13.186c-12.44 8.3-28.37 11.477-43.128 11.016-2.024-.063-1.894 2.82 0 3.063a78.8 78.8 0 0 0 47.35-8.56c.216-.116.433-.238.65-.357-.049.048-.094.1-.144.147a55.891 55.891 0 0 1-12.693 8.927c-21.515 11.2-44.593 5.767-65.6-3.766-1.744-.791-3.29 1.711-1.53 2.617 20.889 10.76 47.025 19.081 69.671 8.605a76.174 76.174 0 0 0 26.508-21.277 66.506 66.506 0 0 0 8.723-15.5 35.412 35.412 0 0 0 1.774-5.448c5.182-11.107 5.866-23.663 4.989-36.151zM335.281 382.8c.01-8.591.755-17.558-1.476-25.91a2.728 2.728 0 0 0-1.8-1.933 47.89 47.89 0 0 0-3.419-6.017 1.485 1.485 0 0 0-1.5-.668 1.574 1.574 0 0 0-2.658 1.113q.183 15.308.032 30.616c0 .041.008.075.01.114-.164 1.864-.326 3.728-.5 5.592-.24 2.606-.529 5.207-.77 7.812-.349 3.765-1.286 4.1-4.972 4.638-5.5.8-11.064 1.236-16.591 1.814-1.9.2-1.978 3.143 0 3.031 6.848-.387 13.8-.354 20.625-.884a6.066 6.066 0 0 0 4.152-1.652c.268 2.429.566 4.258-2.192 5.2a66.142 66.142 0 0 1-10.28 2.189 202.81 202.81 0 0 1-23.262 2.249 1.532 1.532 0 0 0 0 3.063 179.225 179.225 0 0 0 26.871.028c5.756-.375 14.06.366 16.248-6.454 2.31-7.197 1.474-16.483 1.482-23.941zM423.367 403.127c-6.421-.769-13.113 1.641-19.393 2.745-7.27 1.279-14.612 1.248-21.973 1.183-2-.018-1.979 2.993 0 3.094 7.233.368 14.48.282 21.7.891 6.7.566 14.2 1.917 20.689-.364 4.262-1.496 3.235-7.039-1.023-7.549zM422.729 268.09c-8.406 8.78-16.985 17.395-25.315 26.244-4.052 4.3-7.937 8.784-12.139 12.944-3.584 3.547-7.166 7.581-11.021 10.95a12.712 12.712 0 0 1-1.092-.676c8.387-11.575 18.125-21.889 26.978-33.146 1.2-1.522-.741-3.638-2.188-2.188-6.874 6.889-13.672 13.7-20.846 20.121a124.906 124.906 0 0 1-16.436 9.54 1.4 1.4 0 0 0-.647.594 2.96 2.96 0 0 0-1.058 2.888 1.339 1.339 0 0 0 .277.865 48.5 48.5 0 0 0 11.314 11.5c1.324.946 2.665 2.049 4.363 1.624 1.609-.4 3.123-1.849 4.409-3.279a39.92 39.92 0 0 0 4.6-5.6c2.756-3.5 5.309-7.154 8.138-10.594 10.894-13.249 21.91-26.4 32.833-39.629 1.227-1.485-.782-3.608-2.17-2.158zM174.4 288.909c-12.124-3.937-23.038 5.9-29.184 15.334-7.125 10.936-5.882 24.742 6.276 31.5a5.437 5.437 0 0 0 5.52 0l.662-.459a4.557 4.557 0 0 0 1.975-4.852c-.567-3.96-4.69-4.6-6.739-7.589-2.482-3.622-2.257-9.062-1.548-13.206a21.622 21.622 0 0 1 22.63-17.721c1.788.114 1.989-2.493.408-3.007z" opacity="1" data-original="#2f2f51"></path><path fill="#ffc533" d="M161.022 251.111c-16.2-2-30.194 11-37.734 23.95-1.016 1.745 1.549 3.176 2.671 1.561 8.593-12.37 22.146-15.857 35.848-19.711 3.43-.964 2.351-5.411-.785-5.8zM178.48 253.13a7.57 7.57 0 0 0-7.609-1.966c-2.656.809-1.484 5.042 1.146 4.158a4.1 4.1 0 0 1 .792-.178 3.03 3.03 0 0 0 .717 1.081 3.549 3.549 0 0 0 4.954-.168 2.108 2.108 0 0 0 0-2.927zM302.508 249.479c-2.133-1.14-5.579-.815-7.916-.816-3.386 0-6.773.189-10.158.156-1.689-.017-2.175 2.763-.411 3.038 2.865.447 5.724 1.025 8.576 1.554 1.966.364 4.176.387 6.215.716-.091.755-.153 1.775-.211 2.163-.2 1.353-.46 2.686-.767 4.019a2.533 2.533 0 0 0 4.882 1.346c.992-2.984 3.59-10.145-.21-12.176zM213.528 356.863c-3.082 3.521-5.564 6.821-9.954 8.847-1.556.718-.436 3.446 1.18 2.8 4.525-1.812 9.624-4.682 12.013-9.147 1.059-1.979-1.633-4.335-3.239-2.5zM374.73 370.208a16.4 16.4 0 0 0-4.882-.157c-3.123.1-3.929-.926-5.37-3.422-2.5-4.327-5.3-8.414-8.082-12.56a2.768 2.768 0 0 0-4.776 2.792c2.739 5.194 5.192 11.735 9.44 15.923 4.3 4.238 8.383.214 13.255.493 1.765.101 2.114-2.646.415-3.069zM101.436 233.32a26.218 26.218 0 0 1-14.477-17.148c-.441-1.636-3.244-1.858-3.539 0-1.236 7.787-3.182 15.019-9.018 20.659-.007.006-.008.014-.014.02-1.48-.469-2.538 1.828-1.13 2.913 5.213 4.016 9.853 9.619 11.448 16.109.082.469.176.94.3 1.412.579 3.347 5.735 2.439 5.781-.782.116-8.154 2.781-15.445 10.652-19.1a2.375 2.375 0 0 0-.003-4.083zM85.32 247.395a44.581 44.581 0 0 0-8.989-9.247c5.051-3.326 7.642-8.765 9.2-14.483a28.11 28.11 0 0 0 9.723 11.512 22.922 22.922 0 0 0-9.934 12.218zM457.306 219.995c-4.411-2.142-10.863-6.166-11.258-11.678a1.68 1.68 0 0 0-3.283-.444c-1.934 6.642-5.83 11.536-11.18 15.783a1.007 1.007 0 0 0-.191 1.421 1.327 1.327 0 0 0 .32.8c3.175 3.708 7.378 8.408 8.38 13.34.546 2.686 4.058 2.618 5.385.7 3.827-5.519 6.069-10.937 11.828-14.911 1.644-1.135 2.11-3.986-.001-5.011zm-15.038 12.516a28.736 28.736 0 0 0-7.709-7.868 27.485 27.485 0 0 0 9.412-10.819 26.177 26.177 0 0 0 6.751 8.295 29.96 29.96 0 0 0-8.453 10.392z" opacity="1" data-original="#ffc533"></path></g></svg>