<svg xmlns="http://www.w3.org/2000/svg" version="1.1" xmlns:xlink="http://www.w3.org/1999/xlink" width="512" height="512" x="0" y="0" viewBox="0 0 135.467 135.467" style="enable-background:new 0 0 512 512" xml:space="preserve" class=""><g><path fill="#ffffff" d="M97.372 2.85a5 5 0 0 0-3.863 1.818l-.266.322c-1.672-.958-3.473-1.507-5.289-1.592-.961-.045-1.49-.348-3.41.226-.181.055-.318.244-.51.33-.923-.37-1.78-.523-2.254-.523-.984 0-1.96.387-2.828.893-1.383-.65-2.691-.782-3.797-.67-.694.07-1.28.35-1.908.547-.751-.434-1.45-.694-1.996-.813-1.688-.368-3.043-.335-5.176-.324-2.663.014-4.555.068-6.554.614-.028.007-.064.025-.092.033-1.262-.554-2.773-.9-3.889-.53-.953.318-1.544.657-2.004 1-.25-.05-.567-.232-.775-.232-2.056 0-2.897.718-3.52 1.277-.41-.208-.796-.395-1.328-.63-1.428-.633-3.565-1.003-5.45-.458-1.883.545-3.149 1.619-4.212 2.682-2.752 2.753-4.058 6.186-4.254 9.594-.097 1.704.08 3.453.867 5.219.062.137.208.262.28.4a84.684 84.684 0 0 0-3.524-.164c-4.455-.105-7.799-.007-10.576.504-1.389.255-2.66.571-4.039 1.39-1.378.819-3.044 2.663-3.299 4.895a6.801 6.801 0 0 0 .041 1.95c.109.68-.171 1.42 1.547 3.137 1.7 1.7 2.238 1.323 2.65 1.409.398.082.633.101.862.119-.68 1.46-1.319 2.921-1.77 4.315-.542 1.674-.924 3.252-1.027 4.915-.103 1.664-.257 3.824 1.947 6.028.495.494.971.866 1.649 1.226.677.36 1.339 1.402 4.288.418.704-.234.857-.395 1.165-.578 1.435 1.309 3.332 1.547 3.99 1.547.46 0 1.668-.071 2.805-.683.563-.304.728-.648 1.08-1 .272.475.606.942 1.047 1.383a5 5 0 0 0 .804.652c.593.455 1.28.882 2.22 1.127 1.385.361 3.153.122 4.372-.549 1.097-.604 1.73-1.314 2.233-2.04-.145.564-.235 1.12-.227 1.577.04 2.127.844 3.319 1.793 4.42a17.382 17.382 0 0 0 2.158 2.127c-.976.7-1.93 1.494-2.853 2.351-.956.888-1.855 1.806-2.64 2.762-.394.478-.758.955-1.124 1.572-.358.604-.908 1.216-.941 3.108-5.159 1.187-10.357 2.42-15.374 3.437-1.38.28-3.154.338-4.923 2.774-.885 1.217-1.212 2.984-1.07 4.175s.505 1.955.837 2.598c.916 1.773 1.89 2.92 3.196 4.625a59.639 59.639 0 0 0 2.89 3.48c-.327.71-.648 1.383-.95 2.085-.39.91-1.723 3.866-2.849 6.306-1.216 2.637-2.204 3.537-2.29 6.723-.044 1.593 1.222 4.155 2.534 5.074.857.6 1.263.63 1.768.781.022.71.049 1.317.063 2.14l.09 5.48a5 5 0 0 0 2.505 4.252l1.031.591c2.443 1.405 4.781 1.82 8.362 2.477 3.581.657 8.146 1.268 13.69 1.845 9.112.95 17.691 2.389 21.406 3.44.579.164 1.962.528 3.363.322 1.4-.206 2.003-.545 3.043-.947 3.178-1.23 14.26-6.168 20.094-8.89 2.636-1.23 4.221-1.39 6.273-3.882 1.026-1.245 1.535-3.206 1.53-4.414-.006-1.182-.176-1.894-.31-2.673 2.18-.374 4.075-.821 5.999-2.948 1.427-1.576 1.716-3.494 1.656-4.875-.06-1.381-.4-2.503-.838-3.605-.875-2.204-2.238-4.337-4.024-6.55-1.09-1.353-1.715-2.2-2.472-3.192.223-.144.501-.273.723-.434.815-.593 2.284-1.467 2.658-4.092.318-2.228-.922-4.828-2.998-5.94-.931-.498-1.095-.454-1.424-.546-.329-.092-.65-.17-1.012-.252a78.71 78.71 0 0 0-2.627-.535c-2.051-.39-4.68-.846-7.459-1.3-5.557-.906-11.569-1.795-14.894-2.099-1.282-.117-2.532.005-3.744.012.192-.24.428-.452.601-.722.311-.485 1.804-3.409 2.438-4.116.111.117.22.27.334.383.827.82 1.755 1.577 2.832 2.273 1.012.655 1.783 1.19 3.32 1.58.768.196 1.927.56 3.791-.29 1.865-.852 3.09-3.49 3.09-4.856 0-2.966-.766-2.745-1.031-3.125a9.066 9.066 0 0 0-.698-.877 23.39 23.39 0 0 0-1.423-1.459c-1.017-.968-1.49-1.683-3.465-2.719h-.002c-.758-.397-1.532-.6-2.356-.697.006-.237-.06-.477-.07-.715.684-.272 1.426-.516 2.031-.863 1.642-.941 2.994-1.94 4.145-3.11.575-.584 1.173-.893 1.807-2.75.242-.711.478-2.135-.067-3.599a10.928 10.928 0 0 0 2.275-.523c1.267 1.095 3 1.706 4.403 1.7 1.512-.005 2.693-.412 3.765-.904 1.614-.74 3.083-1.841 4.588-3.123.385.296.743.636 1.147.899 1.751 1.14 3.544 2.12 6.242 2.127.97.002 1.908.175 3.697-.696.895-.435 1.981-1.37 2.553-2.464s.658-2.09.658-2.764c0-1.524-.886-3.262-1.654-4.086-.769-.824-1.393-1.21-2.067-1.64-.297-.19-.979-.75-1.298-1.016.157-.162.251-.269.415-.436 1.313-1.335 2.142-2.125 2.51-2.432.042-.034.044-.038.068-.059 1.312-.424 2.68-1.141 3.778-2.605 1.19-1.584 1.557-4.172.912-6.005-.62-1.763-2.121-3.344-3.845-4.04-1.724-.695-3.521-.616-5.047-.12-1.874.608-3.496 1.605-5.076 2.947-.35-.615-.619-1.212-1.373-1.916-.188-.176-.562-.273-.817-.432.62-.372 1.296-.785 2.021-1.799.785-1.096 1.414-3.432.708-5.273-.118-.306-.37-.724-.659-1.135.292-.17.553-.275.9-.568 1.2-1.01 2.253-4.006 1.673-5.79-.507-1.558-1.658-2.626-2.545-3.17s-1.624-.76-2.323-.93c-1.396-.343-2.732-.442-4.425-.507l-3.13-.119a5.036 5.036 0 0 0-.187-.004zm7.088 108.944.002.036s-.518.05-.002-.036z" opacity="1" data-original="#ffffff"></path><path fill="#ffa53c" d="M34.845 88.8s24.556-5.913 25.525-5.913c.968 0 34.745 6.18 35.48 6.548.735.368-23.554 6.047-23.554 6.047z" paint-order="stroke fill markers" opacity="1" data-original="#ffa53c"></path><path fill="#00ceff" d="M37.514 49.307c-.785-.785-.672-2.64.352-5.798l.868-2.68-2.744.132c-1.51.072-2.823.204-2.919.293-.096.09-.879 1.676-1.74 3.526-1.455 3.128-1.614 3.363-2.282 3.363-.615 0-.753-.14-.958-.969-.203-.82-.09-1.424.737-3.937 1.649-5.012 5.232-11.493 6.544-11.836.264-.07.738-.03 1.053.086.943.35.731 1.568-.751 4.318L34.35 38.26l.87-.178c.479-.097 1.762-.247 2.852-.333l1.982-.156.71-1.71c1.38-3.323 3.789-7.813 4.407-8.218.566-.371.678-.37 1.268.017.41.269.646.665.646 1.086 0 .364-.803 2.719-1.784 5.233-2.166 5.544-4.761 12.472-5.202 13.883-.596 1.91-1.566 2.443-2.586 1.423zm-16.023-2.312c-1.608-1.608.796-9.038 4.858-15.012.722-1.06 1.275-1.965 1.23-2.01-.044-.045-1.977.044-4.294.198-2.61.174-4.305.188-4.455.038-.133-.133-.203-.576-.157-.984.208-1.817 4.245-2.559 12.831-2.358 6.821.16 9.374.784 9.374 2.292 0 .92-.902 1.08-5.028.888l-3.904-.181-1.937 3.307c-1.066 1.82-3.168 5.75-4.672 8.736-1.505 2.985-2.865 5.47-3.024 5.524-.159.053-.529-.144-.822-.438zm25.218.313c-1.635-.416-2.354-1.705-2.134-3.831.15-1.45 2.315-7.164 4.952-13.063 2.141-4.791 1.546-4.36 5.934-4.306 3.267.04 3.798.107 4.275.538.669.606.702 1.345.075 1.68-.258.139-1.865.45-3.57.69l-3.1.44-.553 1.582c-.304.87-.624 1.77-.712 1.997-.134.351.147.438 1.833.565 2.063.156 2.894.575 2.61 1.316-.25.652-1.627 1.202-3.8 1.519l-2.052.299-1.041 2.933c-1.612 4.542-1.7 4.1.815 4.088 2.131-.01 2.15-.004 2.228.671.181 1.568-3.561 3.44-5.76 2.882zm18.806-.34c-.607-.122-1.218-.293-1.358-.38-.365-.225-.314-.924.103-1.4.197-.224.558-1.106.802-1.96 1.265-4.418 6.5-15.468 8.033-16.953 1.152-1.118 2.879-1.3 5.247-.552 5.134 1.62 5.548 4.625 1.134 8.239l-1.322 1.082 1.151.557c3.018 1.46 3.186 4.8.37 7.345-2.91 2.628-10.447 4.77-14.16 4.022zm6.928-4.02c2.917-.934 4.733-1.928 5.65-3.095.49-.622.521-.78.213-1.089-.477-.477-2.048-.826-3.752-.833-1.17-.005-1.49-.12-2.126-.755l-.748-.748-.5 1.33c-.276.732-.978 2.428-1.561 3.768-.583 1.34-1.06 2.484-1.06 2.54 0 .117.199.06 3.884-1.119zm5.498-11.673c1.648-1.207 1.91-1.719 1.138-2.224-.804-.527-4.157-1.547-4.244-1.291-.038.112-.544 1.543-1.123 3.18a207.873 207.873 0 0 0-1.195 3.435c-.15.486 2.947-1.283 5.424-3.1zm17.042 14.188c-.753-.753-.502-1.17 1.482-2.46 2.007-1.306 3.977-3.04 5.449-4.798l1.049-1.253-.79-1.907c-1.582-3.823-2.007-7.382-1.007-8.455 1.217-1.306 2.046-.532 2.835 2.646.315 1.268.8 2.835 1.076 3.481l.504 1.176 1.082-1.283c3.144-3.73 5.4-5.632 7.485-6.309 1.206-.391 2.272.04 2.632 1.062.348.99-.297 1.848-1.693 2.254-.917.267-1.735.949-4.424 3.686-1.814 1.847-3.298 3.476-3.298 3.62 0 .416 1.539 2.54 2.635 3.637.553.552 1.64 1.411 2.418 1.909 1.059.677 1.414 1.058 1.414 1.515 0 .719-.426.926-1.897.923-2.009-.005-5.157-2.053-6.713-4.368l-.415-.619-2.188 2.042c-3.702 3.455-6.431 4.706-7.636 3.5zm-8.577-1.036c-1.416-.758-2.326-2.734-2.321-5.045.011-5.444 2.796-10.395 7.059-12.549 1.644-.83 1.784-.858 2.94-.566 1.709.43 2.637 1.18 3.348 2.706 3.06 6.57-5.42 18.454-11.026 15.454zm3.064-3.505c.962-.497 2.986-2.7 3.613-3.931.7-1.374 1.346-3.631 1.346-4.701 0-1.09-.602-2.411-1.295-2.844-.46-.287-.654-.201-1.681.747-2.116 1.95-3.75 5.773-3.75 8.772 0 2.386.299 2.717 1.767 1.957z" opacity="1" data-original="#00ceff"></path><path fill="#f51a31" d="M41.16 21.282c-3.182-1.093-2.816-7.484.627-10.927 1.528-1.528 2.62-1.844 4.103-1.188.634.28 1.352.814 1.595 1.185 1.304 1.99.31 6.72-1.955 9.299-1.377 1.568-2.898 2.136-4.37 1.63zm2.551-2.91c.997-.9 1.81-2.56 2.162-4.412.124-.657.07-.803-.287-.776-.334.026-.46-.214-.522-1-.045-.57-.176-1.132-.291-1.25-.345-.352-2.07 1.367-2.782 2.773-.409.806-.714 1.92-.792 2.891-.223 2.776.69 3.42 2.512 1.774zm16.15 2.103c-.178-.465.947-4.429 2.123-7.477.486-1.26.883-2.394.883-2.522 0-.128-.686-.233-1.524-.233-1.17 0-1.562-.098-1.686-.421-.463-1.207 1.461-1.732 6.444-1.758 4.065-.021 5.162.218 4.994 1.09-.09.47-.9.656-4.106.947l-1.959.177-.583 1.988c-.836 2.849-2.55 7.138-3.162 7.917-.581.739-1.203.866-1.423.292zm-9.782-.641c-1.08-1.192-.973-4.15.269-7.5.66-1.78 1.804-3.385 2.413-3.385.627 0 .562.89-.243 3.306-.87 2.61-1.325 5.749-.833 5.749.863 0 2.748-3.452 4.05-7.418 1.08-3.293 1.96-3.585 1.955-.651-.003 1.227-.218 2.346-.74 3.844-.943 2.71-1.778 4.119-3.243 5.469-.958.884-1.361 1.084-2.177 1.084-.659 0-1.154-.17-1.451-.498zm33.344.298c-.794-.12-1.507-1.62-1.275-2.683.266-1.224 2.605-7.368 3.173-8.339.472-.805.48-.807 2.398-.717 3.282.154 4.993 1.62 5.013 4.293.012 1.674-.621 2.955-2.257 4.566-1.945 1.914-5.053 3.184-7.052 2.88zm3.675-3.045c2.167-1.268 3.71-3.094 3.71-4.389 0-.892-.781-1.883-1.807-2.293-1.857-.744-1.817-.785-3.264 3.397-.725 2.098-1.41 4.026-1.522 4.285-.194.449-.157.451.802.05.552-.23 1.489-.703 2.081-1.05zM68.781 19.15c-2.058-.633-3.583-2.594-2.885-3.708.41-.655 1.206-.639 1.499.03.6 1.374 4.434 2.32 5.688 1.402.456-.333.415-.423-.73-1.584-1.921-1.949-1.928-3.151-.03-4.97 2.107-2.018 5.037-2.314 5.243-.528.074.641.003.71-.737.71-1.054 0-2.318.605-3.211 1.537l-.706.737.954.868c1.137 1.034 1.678 2 1.678 2.996 0 2.286-3.396 3.547-6.763 2.51zm26.166-.29c-1.13-.584-1.545-1.708-1.27-3.444.264-1.676 1.882-5.373 2.88-6.584l.81-.984 3.13.121c3.064.118 4.507.471 4.73 1.157.205.631-1.12.959-4.193 1.038-3.364.086-3.334.072-3.873 1.825-.162.524-.092.582.694.582 1.057 0 1.892.548 1.68 1.101-.174.452-1.972.837-2.752.589-.428-.136-.542-.014-.682.73-.313 1.668-.16 1.85 1.567 1.85.851 0 2.454-.087 3.561-.192 1.708-.163 2.038-.13 2.17.214.587 1.53-6.239 3.143-8.452 1.998zm-16.293-.72c-.52-.627-.122-3.412.896-6.26.936-2.618 1.473-3.448 2.23-3.448 1.027 0 .952.74-.544 5.392-1.48 4.601-1.843 5.207-2.582 4.316z" opacity="1" data-original="#f51a31"></path><g stroke-linecap="round" stroke-linejoin="round" stroke-width="5" paint-order="stroke fill markers"><path fill="#ffcc00" d="m32.175 89.533 28.443-6.614s-3.355-3.497-3.78-6.379c-.425-2.882-1.606-4.11-1.606-4.11L24.19 79.706s4.536 7.606 7.985 9.827z" opacity="1" data-original="#ffcc00"></path><path fill="#ffa53c" d="M73.705 96.856 29.057 107.96l.52 10.867s4.748 2.552 10.866 2.717c6.119.165 21.521 2.504 24.71 2.977s7.584 1.913 7.584 1.913z" opacity="1" data-original="#ffa53c"></path><path fill="#ffcc00" d="m32.175 89.533-7.418 17.104s17.954 3.874 27.262 4.771 11.34 1.37 12.237 1.04 1.937-6.71 3.921-10.016c1.985-3.308 4.12-6.95 4.12-6.95s-34.193-5.405-35.822-6.043c-1.63-.639-4.3.094-4.3.094zM63.217 83.202l32.836 6.095 5.34-3.969s-24.144-4.441-26.601-4.63c-2.457-.19-12.615 1.7-12.615 1.7zM96.053 89.297s-3.638 1.134-7.087 1.748c-3.449.614-15.544 4.394-15.544 4.394s7.985 15.497 8.93 15.875c.944.378 8.504-3.071 14.315-3.969 5.812-.897 9.166-1.7 9.544-2.976.378-1.276-3.118-6.615-4.866-9.26-1.748-2.647-5.292-5.812-5.292-5.812z" opacity="1" data-original="#ffcc00"></path><path fill="#ffa53c" d="m73.705 96.856-.425 29.435s2.315-.945 3.024-1.086 22.206-9.828 22.679-10.206c.472-.378-.756-7.843-.756-7.843l-16.159 4.347s-5.906-13.182-8.363-14.647z" opacity="1" data-original="#ffa53c"></path><path fill="#ffcc00" d="M64.312 69.824s3.174-.668 4.978-.267c1.804.4 3.608-2.506 4.243-3.207.634-.702 2.104-4.811 1.937-5.012-.167-.2.902-6.147-5.612-7.784-6.515-1.637-10.992 1.437-11.326 4.911-.334 3.475.3 5.412 2.272 7.116 1.97 1.704 2.906 2.205 3.508 4.243z" opacity="1" data-original="#ffcc00"></path></g><path d="M72.051 127.422c-4.411-1.248-12.962-2.632-22.248-3.6-10.921-1.138-17.869-2.413-20.076-3.683l-1.03-.593-.092-5.478c-.05-3.013-.168-5.603-.263-5.756-.094-.153-.376-.279-.627-.279-.25 0-1.063-.18-1.807-.401-2.254-.67-2.248-.875.165-6.105 1.139-2.469 2.446-5.362 2.904-6.429a82 82 0 0 1 1.452-3.19c.34-.688.618-1.426.618-1.64 0-.215-.59-.992-1.312-1.726-1.486-1.512-5.362-6.577-6.047-7.902-.711-1.377-.3-1.944 1.708-2.35 7.617-1.546 15.001-3.197 23.335-5.217 6.29-1.525 7.669-1.684 7.669-.882 0 .674 2.733 7.5 3.457 8.635.532.833.827 1.076 1.152.946.24-.095 1.412-.335 2.606-.532 1.194-.196 2.202-.39 2.24-.429.163-.167.149-5.336-.016-6.28-.1-.569-.468-1.34-.817-1.713-.35-.373-.85-1.363-1.11-2.2-.732-2.342-1.055-2.896-1.85-3.173-1.274-.444-3.209-2.495-3.996-4.236-2.825-6.25 2.82-12.578 10.14-11.365 3.477.576 6.21 2.52 7.65 5.441.91 1.847.847 4.83-.143 6.846-.405.825-1.34 2.163-2.077 2.975-1.672 1.84-2.749 3.493-2.749 4.22 0 .306-.407.941-.905 1.411-.635.599-.905 1.08-.905 1.613 0 .417-.245 1.07-.544 1.45-.522.662-1.228 4.419-.894 4.753.075.075 1.637 0 3.47-.168 2.472-.226 4.13-.232 6.407-.024 5.914.54 24.371 3.553 25.512 4.163.3.16.457.478.407.825-.06.42-.759.928-2.732 1.987-1.945 1.043-2.652 1.554-2.652 1.918 0 .506 2.002 3.274 5.536 7.655 3.1 3.844 4.484 7.329 3.389 8.538-.643.71-2.21 1.249-5.178 1.779l-2.582.46.073 1.274c.04.7.246 2.301.456 3.558.552 3.291.63 3.197-4.669 5.67-5.712 2.666-17.311 7.8-19.785 8.758-2.08.806-2.077.805-3.24.477zm.883-21.135c.013-5.015-.077-9.12-.198-9.12-.861 0-4.494 6.981-6.482 12.455-1.36 3.742-1.826 4.253-3.825 4.181-.786-.028-2.494-.226-3.794-.44-1.3-.214-4.402-.632-6.892-.928-7.402-.883-12.797-1.762-17.453-2.842-2.413-.56-4.4-.995-4.414-.966-.014.03.023 2.23.083 4.892l.11 4.84 1.2.383c2.969.949 9.316 1.92 19.569 2.994 7.953.834 18.3 2.454 20.465 3.205l1.007.35.3-4.942c.165-2.718.311-9.046.324-14.062zm-33.566 12.337c-1.115-.447-.485-.89 1.225-.863 1.605.026 2.306.329 1.98.857-.21.34-2.363.344-3.205.006zm-.106-2.833c-4.48-.681-5.671-1.004-5.575-1.513.117-.617 1.636-.666 5.12-.164 3.532.508 6.21 1.1 6.657 1.471 1.017.844-1.467.927-6.202.206zm44.56 5.451c3.913-1.728 8.78-3.922 10.814-4.877 3.223-1.512 3.68-1.801 3.552-2.252-.08-.285-.282-1.769-.448-3.298-.174-1.606-.419-2.781-.578-2.781-.86 0-6.327 1.527-10.301 2.875-2.526.857-4.84 1.52-5.14 1.476-.412-.063-.656-.435-.99-1.506-.314-1.007-5.585-11.515-6.056-12.073-.02-.024-.036 4.167-.036 9.313 0 5.147-.101 11.136-.224 13.31l-.224 3.953 1.259-.499c.692-.274 4.46-1.913 8.373-3.64zm-2.238-2.223c-.335-.873 1.474-2.018 6.636-4.201 2.68-1.133 6.476-2.387 7.226-2.387.26 0 .604.159.764.352.235.283-.002.484-1.197 1.019-.819.366-1.804.785-2.19.93-.385.146-2.905 1.26-5.6 2.475-2.694 1.215-5.03 2.21-5.192 2.21-.162 0-.363-.18-.447-.398zm10.127-7.24c.549-.428 1.41-.424 1.5.005.03.143-.411.29-.98.327-.98.065-1.008.047-.52-.333zm-27.987-.835c.23-.534.96-2.367 1.624-4.075 1.437-3.699 3.336-7.535 4.598-9.294.504-.701.856-1.37.784-1.488-.073-.117-.456-.213-.852-.213-1.033 0-7.325-1.1-15.548-2.717-10.154-1.997-16.428-2.844-19.81-2.673-1.353.068-2.02.215-2.187.48-.132.211-.838 1.78-1.57 3.487a441.873 441.873 0 0 1-3.239 7.304c-1.05 2.31-1.91 4.248-1.91 4.307 0 .059.786.242 1.746.407.96.165 4.133.808 7.05 1.429 5.942 1.265 8.088 1.596 17.721 2.735 3.7.438 7.192.891 7.761 1.009.57.117 1.57.226 2.225.242 1.138.029 1.207-.012 1.607-.94zm-14.946-4.294c-.807-.59-.238-1.029 1.098-.846 1.228.169 1.959.579 1.72.965-.221.357-2.286.27-2.818-.12zm-10.883-1.075c-3.12-.359-7.643-1.096-7.822-1.275-.322-.322.356-.665 1.312-.664 3.313 0 12.348 1.451 12.535 2.012.135.404-2.116.377-6.025-.073zm48.515 3.717c4.261-1.477 7.73-2.418 11.27-3.057 4.183-.755 6.31-1.212 7.174-1.543.667-.255.71-.353.547-1.249-.276-1.523-.897-2.548-3.9-6.435-1.542-1.994-3.21-4.225-3.708-4.957-.564-.829-1.053-1.292-1.294-1.227-.213.057-1.469.23-2.79.384-4.423.517-18.941 4.004-18.941 4.55 0 .055 1.415 2.694 3.145 5.864s3.49 6.5 3.912 7.397c.59 1.257.864 1.595 1.188 1.469.232-.09 1.76-.628 3.397-1.196zm1.81-9.818c-1.615-.31-3.363-1.001-3.363-1.328 0-.177.48-.218 1.359-.116 3.4.392 7.712.476 10.001.193 2.644-.326 3.496-.1 2.182.58-1.69.875-7.226 1.24-10.179.671zm4.974-3.648c.063-.191.595-.375 1.218-.42.823-.06 1.077.006.994.258-.062.191-.595.375-1.218.42-.823.06-1.077-.006-.994-.258zM76.06 93.67c2.3-.834 10.929-3.033 13.776-3.511 1.103-.185 2.005-.415 2.005-.51 0-.097-.436-.24-.97-.32-1.836-.275-17.79-3.006-20.43-3.498-1.454-.271-2.706-.432-2.781-.356-.075.075-.137 1.97-.137 4.21v4.072l1.876.3c1.031.165 1.992.346 2.134.402.6.236 2.72-.134 4.527-.79zm-10.214-.966c.08-.32.11-2.21.07-4.2l-.074-3.619-1.811-.435c-3.254-.781-2.975-1.135-2.975 3.773v4.25l1.487.294c.818.161 1.604.335 1.746.386.786.281 1.422.098 1.557-.449zm-6.601-4.749c0-3.986-.033-4.284-.453-4.121-.609.235-10.217 2.44-15.9 3.648-2.52.535-4.53 1.055-4.47 1.154.062.099 1.017.26 2.124.36 3.366.302 8.743 1.164 13.783 2.21 2.633.547 4.815 1.005 4.85 1.02.036.014.066-1.908.066-4.27zm-25.815.3c.493-.205 3.854-1.023 7.47-1.816a990.946 990.946 0 0 0 9.29-2.078c2.416-.565 4.785-1.032 7.834-1.544l.978-.164-.54-.758c-.736-1.035-1.852-3.573-2.696-6.136-.459-1.392-.836-2.134-1.085-2.134-.21 0-1.743.342-3.407.761-5.303 1.335-18.39 4.226-24.705 5.456-1.069.209-1.437.38-1.277.595 2.015 2.709 6.793 8.193 7.138 8.193.058 0 .508-.169 1-.375zm5.506-4.726c-2.715-.375-6.597-1.876-6.597-2.55 0-.476.173-.467 2.544.133 2.59.656 6.276 1.268 8.063 1.34 1.572.062 2.07.18 2.07.488 0 .62-3.444.954-6.08.59zm7.772-2.125c-.081-.133-.029-.315.117-.405.34-.21 1.295.088 1.295.404 0 .314-1.218.315-1.412 0zm51.288 5.57c.888-.556 1.562-1.063 1.497-1.127-.3-.3-15.573-2.884-21.751-3.68-3.767-.485-4.407-.503-7.114-.196-2.74.31-2.982.381-3.057.901-.1.693-.733.545 8.619 2.012 4.126.647 9.598 1.516 12.159 1.932 5.85.95 7.725 1.234 7.897 1.197.075-.017.862-.484 1.75-1.04zM65.972 82.78c0-.308-.154-.377-.582-.263-.32.086-.815.172-1.1.19-.35.023-.266.099.259.232 1.22.31 1.423.288 1.423-.16zm1.807-8.96c.003-.107-.17-.194-.384-.194-.438 0-.454.045-.223.647.132.344.21.361.384.086.12-.19.22-.433.223-.54zm1.072-2.309c.39-.614.238-1.185-.357-1.344-.852-.228-2.597-.19-3.002.067-.418.265-.046 1.132.677 1.576.575.353 2.397.15 2.682-.299zm-3.211-2.75c.243-.155.226-.488-.078-1.483-.215-.706-.342-1.556-.281-1.888.069-.377-.217-1.146-.764-2.054-1.068-1.773-1.908-3.96-1.908-4.966 0-1.006.969-1.37 1.504-.565.264.398.478.484.79.317.517-.277 2.544-.165 4.303.238.711.163 1.584.328 1.94.367.356.04.792.09.97.112.75.094.237 1.44-1.487 3.903-1.79 2.556-1.811 2.608-1.811 4.26 0 1.448.07 1.696.519 1.838.706.225 1.752-.66 3.062-2.587 2.934-4.32 2.916-7.68-.058-10.422-1.664-1.533-3.682-2.202-6.24-2.065-3.221.171-5.493 1.586-6.533 4.07-.48 1.145-.327 3.682.3 4.982.615 1.274 2.334 3.205 3.52 3.954.522.33 1.1.96 1.281 1.399.35.842.464.912.97.59zm1.884-1.582c0-1.385-.184-2.09-.545-2.09-.267 0-.305 1.378-.07 2.554.248 1.238.615.961.615-.464zm2.333-6.153c.2-.314.29-.644.2-.735-.418-.417-4.123-.962-4.794-.705-.472.181-.41.535.392 2.237.588 1.247.877 1.573 1.616 1.816.897.297.902.294 1.56-.873.364-.643.826-1.427 1.026-1.74zm-25.098 9.042c.006-1.332 5.884-6.79 7.312-6.79.62 0 .851.678.413 1.207-.194.233-1.801 1.629-3.572 3.1-2.82 2.346-4.156 3.145-4.153 2.483zm38.388-1.054c-1.479-.956-2.946-2.41-2.946-2.919 0-.454.803-.562 1.493-.2.987.517 3.94 3.328 3.94 3.75 0 .622-.903.393-2.487-.631zM52.661 57.702c-.996-.52-2.961-2.079-3.698-2.934-.761-.885-.78-1.839-.034-1.839.689 0 4.884 4.04 4.884 4.703 0 .573-.168.583-1.152.07zm26.07-2.343c-.124-.323.093-.682.754-1.254.928-.803 4.509-2.728 5.073-2.728 1.096 0-.905 2.032-3.424 3.476-1.595.915-2.197 1.042-2.403.506z" fill="#000000" opacity="1" data-original="#000000"></path></g></svg>