<svg xmlns="http://www.w3.org/2000/svg" version="1.1" xmlns:xlink="http://www.w3.org/1999/xlink" width="512" height="512" x="0" y="0" viewBox="0 0 75 75" style="enable-background:new 0 0 512 512" xml:space="preserve" class=""><g><path fill="#ff69d9" d="M15.429 10.376c-1.56 1.2-2.897 3.236-3.006 5.227-.314-1.98-1.882-3.888-3.583-4.912 1.577-1.216 2.948-3.225 3.014-5.191.262 1.977 1.866 3.835 3.575 4.876z" opacity="1" data-original="#ff69d9"></path><path fill="#54f73f" d="M66.446 55.422c-1.56 1.2-2.896 3.236-3.006 5.226-.314-1.979-1.882-3.887-3.583-4.91 1.578-1.217 2.948-3.226 3.014-5.192.262 1.977 1.866 3.835 3.575 4.876z" opacity="1" data-original="#54f73f"></path><path fill="#fee342" d="M57.389 15.088c.258 1.99-.595 3.925-1.436 5.74-2.697 5.881-5.396 11.753-8.102 17.635-1.317-1.635-3.108-1.812-5.202-1.824-3.056-.026-8.292.189-11.028.741-.115-.532-.231-1.074-.338-1.607.017-1.443-.21-2.714-.828-3.947l-3.001-14.342c-.4-1.881-.788-3.806-.51-5.708.287-1.902 1.39-3.804 3.193-4.477 2.063-.776 4.464.292 5.859 2.002s1.983 3.92 2.42 6.08a63.414 63.414 0 0 1 1.229 14.56c2.463-5.023 4.928-10.037 7.391-15.06.569-1.156 1.168-2.35 2.144-3.192 1.375-1.173 3.438-1.465 5.104-.754 1.665.712 2.883 2.355 3.105 4.153z" opacity="1" data-original="#fee342"></path><path fill="#fee342" d="M31.283 35.773a14.333 14.333 0 0 1-.128 1.707c-1.389.315-2.716.802-3.863 1.645-1.73 1.27-2.862 3.566-2.437 5.598-1.444-.139-2.843-.819-3.73-1.977-.01-.016-.019-.024-.029-.04-1.382-1.83-1.455-4.324-1.259-6.608.127-1.392.331-2.783.87-4.065.035-.072.061-.151.104-.224 2.086-4.628 7.506-4.15 9.644.017.273 1.316.555 2.63.828 3.947z" opacity="1" data-original="#fee342"></path><path fill="#fee342" d="M19.837 36.098c-.196 2.284-.123 4.778 1.26 6.608-.478 1.99-1.597 3.912-3.407 4.798-2.629 1.293-6.698.084-8.637-3.994-.003-.603.011-1.2.016-1.805.034-2.131.089-4.298.666-6.35 1.963-7.01 8.785-7.879 11.076-3.546-.043.073-.069.152-.104.224-.539 1.282-.743 2.673-.87 4.065z" opacity="1" data-original="#fee342"></path><path fill="#fee342" d="M33.607 49.495c-.185.598-1.896 1.492-2.396 1.918-.842.735-1.646 1.516-2.356 2.382-1.82 2.215-3.016 5.105-2.585 7.936.412 2.732 2.366 5.064 4.85 6.286-4.43.844-9.069.673-12.925-1.546-4.01-2.306-6.622-6.544-7.878-11-1.101-3.868-1.285-7.925-1.264-11.96 1.931 4.06 5.997 5.291 8.637 3.992 1.813-.887 2.93-2.812 3.406-4.797.01.016.02.024.03.04.886 1.158 2.285 1.838 3.729 1.977.42 2.136 2.527 3.416 4.737 3.65.894.086 4.6-.777 4.015 1.122z" opacity="1" data-original="#fee342"></path><path fill="#fba73d" d="M46.431 37.86c-1.074-.655-2.459-.717-3.785-.725-2.978-.027-8.22.185-10.927.731a.496.496 0 0 1-.583-.381c-.067-.31-.35-1.612-.349-1.718.03-2.514-.755-3.538-.818-3.84l-3-14.34c-.364-1.707-.816-3.831-.515-5.883.275-1.824 1.34-4.06 3.51-4.87 2.449-.922 5.043.47 6.416 2.154 1.458 1.787 2.074 4.08 2.523 6.294a64.04 64.04 0 0 1 1.27 12.458l6.418-13.077c.558-1.136 1.192-2.425 2.265-3.35 1.514-1.29 3.772-1.625 5.622-.834 1.823.778 3.158 2.563 3.403 4.547.285 2.203-.692 4.315-1.478 6.011a16083.82 16083.82 0 0 1-8.101 17.633.496.496 0 0 1-.39.285c-.519.062-.422-.453-1.48-1.096zm-4.43-1.72c2.136 0 4.136 0 5.708 1.446 2.602-5.658 5.198-11.307 7.793-16.964.733-1.583 1.644-3.55 1.395-5.47v-.004c-.203-1.64-1.305-3.114-2.808-3.756-1.513-.647-3.356-.376-4.587.674-.918.792-1.504 1.983-2.02 3.035L40.09 30.159c-.235.477-.959.298-.94-.235a62.908 62.908 0 0 0-1.22-14.445c-.423-2.088-.997-4.244-2.318-5.864-1.194-1.462-3.4-2.567-5.3-1.852-1.456.544-2.585 2.148-2.877 4.087-.275 1.873.14 3.817.505 5.531l2.987 14.28c.64 1.296.864 2.628.853 4.065.071.357.148.718.224 1.077 2.592-.452 7.182-.663 9.996-.663z" opacity="1" data-original="#fba73d"></path><path fill="#fba73d" d="M24.808 45.217c-1.657-.16-3.143-.95-4.076-2.17-1.586-2.1-1.574-4.837-1.39-6.991.12-1.302.32-2.819.908-4.215 2.326-5.355 8.33-4.757 10.646-.242.058.111-.009-.098.873 4.073.05.245-.067 1.46-.122 1.874a.497.497 0 0 1-.382.418c-1.514.343-2.717.854-3.678 1.56-1.664 1.22-2.609 3.364-2.246 5.097a.496.496 0 0 1-.533.596zM20.744 31.95l.457.193c-.027.1-.6 1.06-.87 4-.17 1.975-.19 4.475 1.161 6.264.673.88 1.66 1.48 2.787 1.725-.114-1.96.939-4.101 2.72-5.408.998-.733 2.213-1.274 3.706-1.647.046-.42.073-.834.081-1.257l-.803-3.826c-1.961-3.732-6.81-4.222-8.719.02z" opacity="1" data-original="#fba73d"></path><path fill="#fba73d" d="M15.491 48.503c-2.2 0-4.368-1.233-5.648-2.802a9.93 9.93 0 0 1-1.238-1.977c-.063-.134-.058-.143-.04-1.39.036-2.32.038-4.786.692-7.113 2.102-7.499 9.518-8.328 11.993-3.643a.496.496 0 0 1-.013.487c-.045.162-.627 1.032-.906 4.076-.17 1.978-.19 4.477 1.161 6.266.09.118.121.27.087.415a11.02 11.02 0 0 1-.269.928c-.67 1.963-1.878 3.453-3.402 4.2a5.432 5.432 0 0 1-2.417.553zm-5.942-5.107c1.815 3.71 5.513 4.849 7.922 3.662 1.63-.797 2.621-2.504 3.088-4.25-1.412-2.033-1.395-4.666-1.216-6.752v-.003c.28-3.043.846-3.98.912-4.224-2.143-3.646-8.222-2.84-10.042 3.66-.641 2.276-.668 5.176-.664 7.907z" opacity="1" data-original="#fba73d"></path><path fill="#fba73d" d="M17.947 66.9c-3.79-2.178-6.669-6.189-8.108-11.294-1.165-4.095-1.302-8.414-1.282-12.098.004-.529.72-.682.945-.21 1.801 3.793 5.542 4.956 7.97 3.76 1.693-.829 2.706-2.649 3.142-4.468a.497.497 0 0 1 .9-.15c.772 1.006 2.005 1.656 3.389 1.79.218.02.396.182.44.397.294 1.505 1.767 2.984 4.302 3.253.73.067 3.405-.571 4.265.494.185.23.365.637.171 1.267-.258.835-2.024 1.703-2.548 2.15-.926.808-1.678 1.568-2.294 2.318-1.945 2.367-2.848 5.118-2.479 7.548.369 2.44 2.123 4.707 4.58 5.915a.497.497 0 0 1-.127.932c-4.487.855-9.308.674-13.266-1.603zM9.556 45.327c.044 3.175.291 6.681 1.238 10.01 1.368 4.855 4.085 8.656 7.648 10.704 3.015 1.735 6.88 2.319 11.242 1.711-4.758-3.254-5.387-9.19-1.212-14.271.65-.794 1.44-1.592 2.413-2.441.412-.351 2.107-1.33 2.248-1.691.036-.118.066-.274.004-.35-.408-.508-2.937-.067-3.592-.13-2.301-.245-4.443-1.51-5.09-3.695-1.2-.183-2.295-.7-3.128-1.473-.768 2.24-2.06 3.584-3.419 4.25-2.887 1.42-6.489-.061-8.352-2.624zm24.05 4.17h.01z" opacity="1" data-original="#fba73d"></path><path fill="#ffffff" d="m12.94 39.263 3.286-.205a.86.86 0 0 1 .913.858v1.694a2.45 2.45 0 0 1-4.896.163l-.107-1.594a.86.86 0 0 1 .805-.916zM23.07 37.687l3.284-.205a.86.86 0 0 1 .914.858v1.694a2.45 2.45 0 0 1-4.897.163l-.106-1.595a.86.86 0 0 1 .804-.915z" opacity="1" data-original="#ffffff"></path><path fill="#ffffff" d="m23.824 37.687 3.285-.205a.86.86 0 0 1 .913.858v1.694a2.45 2.45 0 0 1-4.896.163l-.106-1.595a.86.86 0 0 1 .804-.915z" opacity="1" data-original="#ffffff"></path><path fill="#fee342" d="M43 66.302c-3.36 2.602-8.058 3.637-11.863 1.713l-.016.002c-2.485-1.222-4.439-3.554-4.85-6.286-.432-2.831.764-5.721 2.584-7.936.71-.866 1.514-1.647 2.356-2.382.5-.426 2.211-1.32 2.396-1.918.585-1.899-3.12-1.036-4.015-1.121-2.21-.235-4.316-1.515-4.737-3.651-.425-2.032.706-4.329 2.437-5.598 2.04-1.5 4.714-1.9 7.224-2.14a81.47 81.47 0 0 1 8.133-.346c1.396.008 2.859.077 4.04.796 1.475.897 2.222 2.623 2.702 4.288 2.916 10.015-.719 20.2-6.39 24.58z" opacity="1" data-original="#fee342"></path><path fill="#fba73d" d="M35.417 69.5c-5.128 0-9.032-3.682-9.638-7.694-.412-2.707.57-5.742 2.693-8.326.65-.794 1.44-1.592 2.413-2.441.425-.362 2.105-1.318 2.248-1.692.036-.115.066-.273.004-.35-.408-.507-2.937-.066-3.592-.13-2.937-.312-4.79-2.086-5.177-4.048-.444-2.124.638-4.632 2.631-6.095 2.116-1.555 4.847-1.983 7.47-2.233a83.378 83.378 0 0 1 8.185-.348c3.735.021 5.889.844 7.214 5.442a26.587 26.587 0 0 1-.531 16.377v.001C46.43 65.923 40.71 69.5 35.416 69.5zm-2.138-1.228c5.352 1.22 11.986-2.049 15.125-10.648a25.588 25.588 0 0 0 .51-15.762c-.439-1.524-1.127-3.18-2.483-4.003-1.074-.654-2.459-.716-3.785-.724a81.108 81.108 0 0 0-8.085.344c-2.402.23-5.022.61-6.974 2.045-1.818 1.334-2.987 3.962-1.898 6.052.675 1.249 2.156 2.113 3.956 2.304.73.067 3.405-.571 4.265.494.185.23.365.637.171 1.267-.258.836-2.023 1.702-2.548 2.15-.926.808-1.678 1.568-2.294 2.318-1.945 2.367-2.848 5.118-2.479 7.548.498 3.294 3.413 5.928 6.52 6.615zM48.87 57.793h.01z" opacity="1" data-original="#fba73d"></path><path fill="#17188a" d="M47.644 38.913a.496.496 0 0 1-.243-.658c2.706-5.881 5.404-11.753 8.1-17.633.734-1.583 1.645-3.55 1.396-5.47-.203-1.644-1.305-3.118-2.808-3.76-1.513-.647-3.356-.376-4.587.674a.496.496 0 1 1-.643-.755c1.51-1.288 3.77-1.622 5.62-.832 1.822.778 3.158 2.564 3.402 4.548.286 2.2-.692 4.313-1.478 6.01a16083.82 16083.82 0 0 1-8.101 17.633.496.496 0 0 1-.658.243zM17.947 66.9c-3.79-2.178-6.669-6.189-8.108-11.294-1.165-4.095-1.302-8.414-1.282-12.098a.496.496 0 0 1 .496-.494h.003a.496.496 0 0 1 .494.5c-.02 3.614.112 7.845 1.244 11.822 1.368 4.855 4.085 8.656 7.648 10.704 3.104 1.787 7.109 2.353 11.63 1.655a.496.496 0 0 1 .744-.403c.172.099.347.192.524.28a.497.497 0 0 1-.127.932c-4.487.855-9.308.674-13.266-1.603z" opacity="1" data-original="#17188a"></path><path fill="#ffffff" d="m32.67 40.658.48 3.256a.86.86 0 0 1-.78.982l-1.687.142a2.451 2.451 0 0 1-.572-4.866l1.58-.24a.86.86 0 0 1 .98.726z" opacity="1" data-original="#ffffff"></path><path fill="#fba73d" d="M51.494 19.867a1.584 1.584 0 0 0-1.443-.473.496.496 0 0 1-.197-.973 2.582 2.582 0 0 1 2.376.78.497.497 0 0 1-.736.666zM46.884 30.193c-.177-.612-.949-1.022-1.559-.814a.495.495 0 1 1-.319-.94c1.953-.656 3.59 1.78 2.491 2.094a.496.496 0 0 1-.613-.34zM30.843 17.3a.495.495 0 0 1-.269-.648c.76-1.841 3.62-1.423 3.102-.401a.498.498 0 0 1-.667.217c-.518-.264-1.29.01-1.518.563-.079.191-.395.373-.648.269zM32.835 26.204a.496.496 0 0 1 .074-.698 2.095 2.095 0 0 1 2.316-.182.496.496 0 1 1-.496.86 1.098 1.098 0 0 0-1.197.094.496.496 0 0 1-.697-.074z" opacity="1" data-original="#fba73d"></path><path fill="#ffffff" d="M38.11 65.403a.249.249 0 0 1 .12-.329c3.928-1.815 6.984-5.384 8.174-9.545.09-.318.567-.178.477.136-1.229 4.298-4.385 7.984-8.442 9.86a.249.249 0 0 1-.33-.122zM40.602 61.309l2.31-3.33a.249.249 0 0 1 .408.283l-2.31 3.33c-.185.264-.596-.011-.408-.283zM11.912 34.278c.197-1.493 1.345-2.827 2.791-3.246a.248.248 0 1 1 .138.477c-1.263.366-2.265 1.53-2.437 2.834-.043.33-.535.258-.492-.065zM16.81 62.177a5.236 5.236 0 0 1-3.054-3.762.248.248 0 1 1 .486-.096 4.736 4.736 0 0 0 2.761 3.402.248.248 0 1 1-.194.456z" opacity="1" data-original="#ffffff"></path></g></svg>