<svg xmlns="http://www.w3.org/2000/svg" version="1.1" xmlns:xlink="http://www.w3.org/1999/xlink" width="512" height="512" x="0" y="0" viewBox="0 0 512 512" style="enable-background:new 0 0 512 512" xml:space="preserve" class=""><g><path d="M88.235 452.096c-1.707 10.24 2.731 21.333 11.093 27.477 0 16.896 14.165 31.232 31.403 29.355 16.043-7.509 249.344-2.901 266.581-8.021 13.483-4.096 23.723-12.629 24.064-29.013-2.389-27.307-1.536-20.651 12.117-42.496 14.165-78.677 18.432-168.96-59.051-174.763 2.219-85.163-13.824-234.325-108.203-248.149-89.6 16.384-132.096 179.541-129.024 262.997-59.051 14.677-56.149 11.093-62.805 97.963.683 24.746-1.194 64.853 13.825 84.65z" class="st8" style="" fill="#f5ecdf" data-original="#f5ecdf"></path><path d="M114.688 459.093c.512.341.683.512 2.56.512 1.195 0 2.901-.171 5.803-.341l2.219 21.504c.171 1.536 1.365 2.731 2.901 2.731h.341c1.707-.171 2.731-1.536 2.731-3.243l-2.219-21.504c2.048-.171 4.437-.341 7.339-.683 1.707-.171 2.901-1.536 2.731-3.243s-1.536-2.901-3.243-2.731c-2.731.171-5.632.512-8.363.683-.512-.341-1.195-.683-2.048-.512-.683 0-1.365.341-1.877.853-3.413.341-5.973.341-6.656.341-1.024-.171-2.219.341-2.901 1.195-1.195 1.708-.683 3.414.682 4.438zM188.587 457.728c.512.341.683.512 2.56.512 1.195 0 2.901-.171 5.803-.341l2.219 21.504c.171 1.536 1.365 2.731 2.901 2.731h.341c1.707-.171 2.731-1.536 2.731-3.243l-2.219-21.504c2.048-.171 4.437-.341 7.339-.683 1.707-.171 2.901-1.536 2.731-3.243-.171-1.707-1.536-2.901-3.243-2.731-2.731.171-5.632.512-8.363.683-.512-.341-1.195-.683-2.048-.512-.683 0-1.365.341-1.877.853-3.243.171-5.803.341-6.656.341-1.024-.171-2.219.341-2.901 1.195-1.025 1.707-.684 3.585.682 4.438zM158.208 480.768h.512c4.437-.171 8.021-2.219 9.728-5.973 2.901-5.973.512-14.165-3.243-19.115-3.413-4.267-7.851-6.315-12.288-5.632-6.485 1.195-9.387 9.387-8.704 16.725.854 8.704 6.315 13.995 13.995 13.995zm-4.267-24.747c2.901-.512 5.291 1.877 6.485 3.413 3.072 3.925 4.096 9.728 2.56 12.971-.853 1.707-2.219 2.56-4.608 2.56-6.656.171-8.192-5.973-8.363-8.533-.511-4.949 1.366-9.899 3.926-10.411zM220.501 482.133h.171c1.707-.171 2.901-1.536 2.731-3.072l-.683-9.557 9.728-.512.341 9.728c0 1.536 1.365 2.901 2.901 2.901h.171c1.707 0 2.901-1.365 2.901-3.072l-1.195-28.331c0-1.707-1.536-2.901-3.072-2.901-1.707 0-2.901 1.365-2.901 3.072l.512 12.629-9.728.512-.683-11.776c-.171-1.707-1.536-2.901-3.072-2.731-1.707.171-2.901 1.536-2.731 3.072l1.707 27.307c.001 1.537 1.366 2.731 2.902 2.731zM250.197 479.744c1.365.512 2.731.683 4.096.683 3.755 0 7.168-1.536 7.68-1.707 1.536-.683 2.048-2.389 1.365-3.925s-2.389-2.048-3.925-1.365c-1.365.683-4.949 1.707-6.997.853-.853-.341-1.365-.853-1.707-1.877a19.403 19.403 0 0 1-.853-3.925l6.485-.683c1.707-.171 2.731-1.707 2.56-3.243-.171-1.707-1.707-2.731-3.243-2.56l-6.315.683c0-3.072 0-5.973.171-8.192l8.363-.341c1.707 0 2.901-1.365 2.901-3.072s-1.365-2.901-3.072-2.901l-10.923.341c-1.536 0-2.731 1.195-2.901 2.56 0 .683-1.707 15.531 1.365 23.211.854 2.729 2.561 4.607 4.95 5.46zM284.672 480.597c1.536-.171 2.731-1.707 2.56-3.413-1.365-9.216-2.219-20.139-1.536-24.064 2.219 1.877 5.973 7.509 9.045 13.483.512 1.195 1.877 1.707 3.072 1.536 1.195-.171 2.219-1.195 2.389-2.56.853-7.168 3.413-13.312 5.12-14.336 1.707 2.56 2.901 14.848 2.56 26.965 0 1.707 1.195 3.072 2.901 3.072h.171c1.536 0 2.901-1.195 2.901-2.901.171-6.144.512-26.795-4.608-31.744-1.365-1.365-2.731-1.536-3.755-1.536-5.12.171-8.021 6.144-9.557 11.605-4.949-7.851-9.216-11.264-12.629-10.069-1.877.683-6.656 2.219-2.219 31.232.342 1.877 1.878 2.901 3.585 2.73zM329.557 478.208c7.851-.171 12.117-8.875 12.288-17.408.171-9.387-4.096-16.213-10.923-16.555-3.584-.171-6.827 1.536-9.045 5.12-3.925 6.144-4.267 17.237-.683 23.552 1.878 3.414 4.779 5.291 8.363 5.291zm-2.73-25.6c1.365-2.048 2.731-2.389 3.413-2.389h.341c3.925.341 5.461 5.632 5.461 10.581-.171 5.632-2.56 11.605-6.315 11.605-.512 0-1.877 0-3.243-2.389-2.729-4.437-2.388-13.141.343-17.408zM356.352 478.208s.171 0 0 0c7.851-.171 12.117-8.875 12.288-17.408.171-9.387-4.096-16.213-10.923-16.555-3.584-.171-6.827 1.536-9.045 5.12-3.925 6.144-4.267 17.237-.683 23.552 2.048 3.414 4.95 5.291 8.363 5.291zm-2.56-25.6c1.365-2.048 2.731-2.389 3.413-2.389h.341c3.925.341 5.461 5.632 5.461 10.581-.171 5.632-2.56 11.605-6.315 11.605-.512 0-1.877 0-3.243-2.389-2.729-4.437-2.558-13.141.343-17.408zM374.955 478.208h.512c1.536-.341 2.731-1.877 2.389-3.413-1.877-10.069-2.731-19.968-2.219-23.893 3.413 3.243 9.899 13.653 14.848 23.04.683 1.195 2.048 1.877 3.413 1.536 1.365-.341 2.219-1.536 2.219-2.901l-1.024-26.624c0-1.707-1.365-2.901-3.072-2.901s-2.901 1.365-2.901 3.072l.512 14.336c-10.752-18.091-14.677-16.725-16.384-16.213-1.877.683-6.827 2.389-1.536 31.573.512 1.364 1.877 2.388 3.243 2.388z" class="" fill="#000000" opacity="1" data-original="#000000"></path><path d="M252.587 227.669c-12.8 0-23.723-5.461-31.403-15.872-10.752-14.507-12.629-35.669-4.437-51.712 7.68-15.019 22.699-23.211 41.984-23.211h1.365c18.261.341 39.083 17.237 41.301 43.861 2.389 28.16-19.285 42.325-40.107 46.08-3.071.513-5.973.854-8.703.854zm-20.139-35.328c-.341 0-.683.171-.853.341a1.302 1.302 0 0 0-.341.853l.171 2.048c0 .683.512 1.195 1.195 1.195.341 0 .683-.171.853-.341.171-.171.341-.512.341-.853l-.171-2.048c0-.683-.512-1.195-1.195-1.195zm6.485-33.792c-.341 0-.683.171-.853.341-.341.341-8.192 7.509-9.557 19.627 0 .683.341 1.365 1.195 1.365.853 0 1.365-.512 1.365-1.024 1.195-11.093 8.363-17.749 8.704-18.091.512-.512.512-1.195.171-1.707-.342-.34-.683-.511-1.025-.511z" class="st10" style="" fill="#82ccd7" data-original="#82ccd7"></path><path d="M112.469 434.005c-.512 0-.853-.171-1.195-.512-1.024-1.024-2.56-3.755-3.925-11.093-.171-1.195-.512-2.56-.683-3.925-.171-.683.171-1.365.683-1.707.341-.171.683-.341.853-.341.341 0 .683.171.853.341l8.704 5.461c.683.341 1.024 1.195.683 2.048-1.877 5.803-3.755 8.875-5.803 9.557.172.171.001.171-.17.171zM120.32 414.549c-.341 0-.683-.171-.853-.341l-13.312-8.363c-.512-.341-.683-.853-.853-1.365-.171-1.707-.341-3.584-.341-5.461 0-.683.341-1.195.853-1.536.341-.171.512-.171.853-.171.341 0 .683.171 1.024.341l14.165 9.899h.171c.683.341 1.024 1.195.853 1.877-.341 1.195-.512 2.56-.853 3.755-.171.512-.512 1.024-1.024 1.195-.171 0-.512.17-.683.17z" class="" fill="#000000" opacity="1" data-original="#000000"></path><path d="M276.139 337.749c-.853 0-1.707-.683-1.707-1.707-.341-15.872-3.072-26.453-8.363-32.256-3.243-3.413-7.339-5.291-12.288-5.291h-.341c-11.435.171-18.091 12.459-20.48 37.547 0 .853-.853 1.536-1.707 1.536-27.307-.171-57.173-9.045-62.805-10.752-.683-.171-1.195-.853-1.195-1.536-1.707-60.416 1.536-103.253 12.117-158.037 3.925-20.821 12.8-43.691 25.429-66.048.341-.512.853-.853 1.536-.853.171 0 .512 0 .683.171 5.803 2.731 26.795 11.605 54.955 11.605 20.48 0 40.448-4.608 59.563-13.653.171-.171.512-.171.683-.171s.341 0 .683.171a1.54 1.54 0 0 1 1.024 1.024c12.117 29.525 19.285 64.683 20.48 101.376 1.707 53.76 1.365 98.816.512 126.976 0 .683-.512 1.365-1.365 1.536-30.209 7.509-59.222 8.362-67.414 8.362zm23.21-60.245c-6.315 0-11.605 3.584-11.605 7.68s5.291 7.68 11.605 7.68 11.605-3.584 11.605-7.68c.001-4.096-5.29-7.68-11.605-7.68zm-88.746-4.437c-6.315 0-11.605 3.584-11.605 7.68s5.291 7.68 11.605 7.68c6.315 0 11.605-3.584 11.605-7.68s-5.291-7.68-11.605-7.68zm32.597-4.95c-.683 0-1.195.512-1.195 1.195 0 .341-.171 9.387 4.437 13.653 1.707 1.536 3.584 2.389 5.973 2.389h.853c11.093-.853 13.141-14.848 13.312-15.36.171-.683-.341-1.365-1.024-1.365h-.171c-.683 0-1.195.512-1.195 1.024s-2.048 12.459-11.093 13.141h-.683c-1.707 0-3.072-.512-4.267-1.536-3.755-3.584-3.584-11.605-3.584-11.776.002-.682-.51-1.365-1.363-1.365v-1.707 1.707zm39.765-21.333c-5.461 0-9.899 4.437-9.899 9.899 0 5.461 4.437 9.899 9.899 9.899 5.461 0 9.899-4.437 9.899-9.899 0-5.462-4.437-9.899-9.899-9.899zm-56.832-3.072c-5.461 0-9.899 4.437-9.899 9.899s4.437 9.899 9.899 9.899c5.461 0 9.899-4.437 9.899-9.899s-4.437-9.899-9.899-9.899zm33.11-108.715c-20.309 0-36.011 8.533-44.032 24.064-8.533 16.725-6.656 39.083 4.608 54.272 8.021 10.752 19.115 16.384 32.427 16.384 2.901 0 5.973-.341 9.216-.853 15.189-2.731 26.624-9.045 33.963-18.432 6.315-8.192 9.216-18.432 8.363-29.525-2.219-27.989-24.064-45.568-42.837-45.909-.684.17-1.196-.001-1.708-.001z" class="st12" style="" fill="#fade2b" data-original="#fade2b"></path><path d="M122.027 406.357c-.341 0-.683-.171-1.024-.341l-15.701-11.093c-.512-.341-.683-.853-.683-1.365-.171-2.56-.171-5.12-.341-7.68 0-.683.341-1.195.853-1.536.171-.171.512-.171.853-.171.341 0 .683.171 1.024.341l17.067 12.629c.512.341.853 1.024.683 1.707 0 0-.853 4.437-1.195 6.144-.171.512-.512 1.024-1.024 1.195 0 .17-.342.17-.512.17zM124.245 395.605c-.341 0-.683-.171-1.024-.341l-18.091-13.312c-.512-.341-.683-.853-.683-1.365-.341-29.013 2.048-64 7.168-71.168 7.509-10.411 34.987-11.605 46.592-11.605h4.437c.853 0 1.707.853 1.707 1.707 0 14.165.341 29.355 1.195 46.421 0 .853-.683 1.707-1.536 1.707-4.608.341-16.555 2.389-26.453 12.288-5.291 5.291-8.533 19.797-11.435 34.133-.171.512-.512 1.024-1.024 1.195s-.682.34-.853.34z" class="" fill="#000000" opacity="1" data-original="#000000"></path><path d="M286.379 400.213c-5.291 0-10.752-.171-16.043-.341-.512 0-1.024-.171-1.195-.683-.341-.341-.512-.853-.341-1.365 1.536-9.216 3.072-19.115 3.925-28.672 1.024-10.411 1.707-19.285 1.707-27.136 0-.853.683-1.707 1.707-1.707 8.021 0 36.523-.853 66.048-8.192h.341c.341 0 .683.171 1.024.341.341.341.683.853.683 1.365-.853 27.136-2.048 46.592-2.731 55.125-1.024 10.412-42.496 11.265-55.125 11.265zM261.461 109.739c-26.453 0-46.08-7.851-53.248-11.093-.512-.171-.683-.512-.853-1.024-.171-.512 0-1.024.171-1.365 20.48-34.645 45.739-59.904 59.733-60.245h.512c16.555 0 38.059 23.381 53.419 58.027.341.853 0 1.877-.853 2.219-18.945 8.873-38.742 13.481-58.881 13.481zm-28.33-27.307c-.341 0-.683.171-.853.341l-1.195 1.195a1.302 1.302 0 0 0-.341.853c0 .341.171.683.341.853.171.171.512.341.853.341s.683-.171.853-.341l1.195-1.195c.171-.171.341-.512.341-.853 0-.341-.171-.683-.341-.853-.341-.17-.512-.341-.853-.341zm20.821-24.917c-.341 0-.683.171-1.024.512l-10.581 12.117c-.512.512-.341 1.365.171 1.707.341.171.683.341.853.341.341 0 .683-.171 1.024-.512l10.581-12.117c.512-.512.341-1.365-.171-1.707-.341-.171-.682-.341-.853-.341z" class="" fill="#000000" opacity="1" data-original="#000000"></path><path d="M118.613 421.717c-.341 0-.683-.171-.853-.341l-10.752-6.827c-.512-.341-.683-.683-.853-1.195-.171-1.195-.341-2.389-.341-3.584 0-.683.171-1.195.853-1.707.341-.171.512-.171.853-.171.341 0 .683.171.853.341l11.776 7.509c.683.341.853 1.195.683 1.877-.171 1.024-.512 2.048-.683 2.901-.171.512-.512 1.024-1.024 1.195-.17.002-.341.002-.512.002z" class="" fill="#000000" opacity="1" data-original="#000000"></path><path d="M233.472 400.725c-6.656-.512-29.355-2.56-43.691-4.437-14.677-1.877-20.139-10.752-21.333-34.987-.512-10.581-1.024-20.309-1.365-29.696 0-.512.171-1.024.683-1.365.341-.171.683-.341 1.024-.341h.512c10.069 3.072 36.011 10.069 61.269 10.411.512 0 .853.171 1.195.512.341.341.512.853.512 1.195-.341 5.12-.512 10.752-.341 16.725 0 12.459 1.195 26.624 3.413 39.936 0 .512 0 1.024-.512 1.365-.342.512-.683.682-1.366.682.171 0 0 0 0 0zm-50.517-48.469c-.683 0-1.195.512-1.195 1.195 0 .512-1.024 10.752 2.048 22.187.171.512.683.853 1.195.853h.341c.341-.171.512-.341.683-.512.171-.171.171-.683.171-1.024-2.901-10.923-2.048-21.163-2.048-21.333-.001-.683-.513-1.195-1.195-1.366z" class="" fill="#000000" opacity="1" data-original="#000000"></path><path d="M406.699 411.136c-.171 0-.512 0-.683-.171l-9.728-4.608a1.284 1.284 0 0 1-.853-1.195c-.512-2.048-1.024-4.267-1.536-6.485-.171-.683.171-1.365.683-1.707.341-.171.683-.341 1.024-.341.341 0 .512 0 .853.171l11.947 6.656c.683.341 1.024 1.024.853 1.707-.171 1.536-.512 3.072-.683 4.267-.171.512-.512 1.024-.853 1.195-.512.511-.683.511-1.024.511zM403.627 421.035h-.341c-2.389-.341-4.267-3.413-6.485-10.069-.171-.683 0-1.365.512-1.877.341-.341.683-.341 1.195-.341.171 0 .512 0 .683.171l7.339 3.413c.683.341 1.195 1.195.853 2.048-1.024 3.755-1.877 5.461-2.56 6.144-.172.34-.684.511-1.196.511zM252.245 439.637c-.341 0-.683-.171-1.024-.341-2.56-1.707-6.827-10.069-10.411-25.088-4.096-16.555-6.315-36.352-6.485-55.467-.171-38.059 6.144-57.515 18.773-57.685h.341c4.267 0 7.68 1.365 10.411 4.437 10.069 11.093 8.363 41.472 6.144 63.317-3.072 30.208-10.923 66.731-17.067 70.485.001.342-.34.342-.682.342zM408.064 402.432c-.341 0-.512 0-.853-.171l-13.824-7.68c-.512-.171-.683-.683-.853-1.195l-1.195-5.973c-.171-.683.171-1.365.683-1.707.341-.171.683-.341 1.024-.341.341 0 .512 0 .853.171l15.531 9.045c.512.341.853 1.024.853 1.707v.512a303.717 303.717 0 0 1-.512 4.267c0 .512-.341 1.024-.853 1.365h-.854zM408.917 393.045c-.341 0-.512 0-.853-.171l-17.067-9.899c-.341-.171-.683-.683-.853-1.195-2.048-9.216-4.267-18.773-7.509-26.112-7.851-17.749-26.112-19.797-33.621-19.797h-.512c-.512 0-.853-.171-1.195-.512s-.512-.853-.512-1.195c.512-16.213.683-32.939.853-50.005 0-.853.683-1.707 1.707-1.707h1.536c11.435 0 38.912 1.365 50.176 13.483 8.704 9.387 12.288 59.051 9.557 95.573 0 .512-.341 1.195-.853 1.365-.342.172-.683.172-.854.172z" class="" fill="#000000" opacity="1" data-original="#000000"></path><path d="M222.891 245.931c-2.048 0-3.755 1.707-3.755 3.755s1.707 3.755 3.755 3.755 3.755-1.707 3.755-3.755c-.001-2.049-1.707-3.755-3.755-3.755zM279.723 249.003c-2.048 0-3.755 1.707-3.755 3.755s1.707 3.755 3.755 3.755 3.755-1.707 3.755-3.755c-.001-2.049-1.707-3.755-3.755-3.755z" class="" fill="#000000" opacity="1" data-original="#000000"></path><ellipse cx="210.603" cy="280.747" class="" rx="13.312" ry="9.387" fill="#000000" opacity="1" data-original="#000000"></ellipse><ellipse cx="299.349" cy="285.184" class="" rx="13.312" ry="9.387" fill="#000000" opacity="1" data-original="#000000"></ellipse><path d="M185.448 353.913c.171-1.707-.616-3.193-2.322-3.364-1.536-.171-3.072 1.024-3.243 2.56 0 .512-1.024 11.093 2.048 22.869.341 1.365 1.435 2.042 2.8 2.042.341 0 .475-.064.816-.235 1.536-.512 2.251-1.876 1.739-3.412-2.902-10.581-1.838-20.289-1.838-20.46zM251.733 56.832l-10.581 12.117c-1.024 1.195-1.024 3.072.341 4.096.512.512 1.195.683 1.877.683.853 0 1.707-.341 2.219-1.024l10.581-12.117c1.024-1.195 1.024-3.072-.341-4.096-1.194-1.024-3.072-.854-4.096.341zM230.912 81.579l-1.195 1.195a2.987 2.987 0 0 0 0 4.267c.512.512 1.365.853 2.048.853s1.536-.341 2.048-.853l1.195-1.195a2.987 2.987 0 0 0 0-4.267c-1.024-1.024-2.901-1.024-4.096 0zM229.376 181.76h.341c1.536 0 2.731-1.195 2.901-2.56 1.195-10.411 8.021-16.896 8.192-17.067 1.195-1.024 1.365-2.901.171-4.096-1.024-1.195-2.901-1.365-4.267-.171-.341.341-8.704 8.021-10.069 20.821 0 1.366 1.195 2.902 2.731 3.073zM232.277 190.635c-1.707.171-2.901 1.536-2.731 3.072l.171 2.048c.171 1.536 1.365 2.731 2.901 2.731h.171c1.707-.171 2.901-1.536 2.731-3.072l-.171-2.048c0-1.537-1.365-2.731-3.072-2.731z" class="" fill="#000000" opacity="1" data-original="#000000"></path><path d="M403.797 292.864c-13.141-14.336-45.397-15.019-54.784-14.848 0-23.381-.341-49.493-1.195-77.653-3.413-102.229-50.347-169.131-80.384-169.131h-.512c-15.019.341-36.352 22.869-51.2 43.691-20.48 28.672-35.499 61.952-41.131 91.307-8.533 44.203-12.288 81.408-12.459 127.147-10.069-.341-44.715-.341-54.272 13.312-9.728 13.653-11.093 105.813-1.707 126.293.512 1.195 2.219 4.949 5.803 5.291h.683c8.704 0 12.117-16.896 16.213-38.229 2.901-15.189 6.315-32.427 11.264-37.205 8.704-8.704 19.456-10.581 23.552-10.923.171 3.072.341 6.315.512 9.557 1.195 22.699 5.632 36.352 25.088 38.912 16.384 2.219 44.032 4.437 45.397 4.608 3.243 17.749 8.021 32.597 13.653 37.205 1.536 1.195 2.901 1.536 3.925 1.536h.853c3.243-.512 7.68-3.925 13.141-25.771 1.024-4.437 2.219-9.216 3.072-14.165 18.432.853 74.923 2.219 76.459-14.677.683-7.509 1.707-24.747 2.56-49.152 5.973-.171 23.211.683 30.379 17.237 3.755 8.533 6.315 20.821 8.704 32.597 4.096 19.797 7.339 35.328 16.384 35.328h.512c3.755-.171 5.291-4.437 5.973-5.803 7.853-20.139 7.512-111.275-6.483-126.464zm3.926 107.691-13.824-7.68c-.341-1.536-.683-2.901-.853-4.267-.171-.512-.171-1.024-.341-1.707l15.531 9.045a200.016 200.016 0 0 1-.513 4.609zm-12.459-2.048 11.947 6.656c-.171 1.536-.512 2.901-.683 4.096l-9.728-4.437c-.683-2.049-1.195-4.267-1.536-6.315zM266.923 37.205h.341c14.165 0 35.499 20.309 51.883 57.003-53.76 25.771-99.84 7.339-110.592 2.389 20.138-33.792 45.226-59.05 58.368-59.392zm-86.528 130.219c4.267-22.357 13.824-45.227 25.259-65.536 6.656 3.072 27.477 11.776 55.637 11.776 17.749 0 38.4-3.413 60.245-13.824 10.923 26.453 18.944 60.416 20.309 100.864a2130.331 2130.331 0 0 1 .512 126.805c-29.525 7.509-58.027 8.363-66.56 8.363-.341-16.555-3.243-27.307-8.875-33.451-3.584-3.925-8.363-5.973-13.995-5.803-12.459.171-19.797 13.141-22.187 39.253-26.965-.171-55.808-8.704-62.293-10.752-1.706-60.927 1.708-104.106 11.948-157.695zM107.52 413.013c-.171-1.195-.341-2.389-.341-3.584l11.776 7.339c-.171 1.024-.512 1.877-.683 2.901l-10.752-6.656zm-1.195-14.165 14.165 10.069s.171 0 .171.171c-.341 1.195-.512 2.389-.853 3.584l-13.312-8.363c.171-1.877 0-3.584-.171-5.461zm16.384.171c-.341 1.877-.683 3.584-1.024 5.461l-15.531-10.923c-.171-2.56-.171-5.12-.341-7.68l17.067 12.459c0 .171 0 .341-.171.683zm-10.24 33.28c-.512-.512-1.877-2.389-3.413-10.24-.171-1.024-.341-2.219-.683-3.413l8.533 5.461c-2.218 6.997-3.925 8.021-4.437 8.192zm23.211-73.728c-5.632 5.632-8.704 19.456-11.947 34.987l-18.091-13.312c-.341-30.549 2.219-63.659 6.827-70.144 6.997-9.899 36.352-11.264 49.493-10.752 0 14.507.512 29.867 1.195 46.421-4.778.512-17.237 2.56-27.477 12.8zm54.101 35.84c-13.824-1.877-18.603-9.899-19.797-33.28-.512-10.411-1.024-20.309-1.365-29.696 9.387 2.731 36.011 10.069 61.781 10.411a178.493 178.493 0 0 0-.341 16.896c0 12.8 1.365 26.965 3.413 40.277-6.315-.683-29.355-2.731-43.691-4.608zm62.123 43.349c-4.779-2.901-15.872-35.328-16.043-79.189-.171-25.429 2.731-55.808 17.067-55.979 3.925-.171 6.997 1.195 9.557 3.925 9.728 10.581 7.851 40.448 5.632 62.123-3.925 39.083-12.288 66.731-16.213 69.12zm18.261-39.765c1.536-9.216 2.901-18.944 3.925-28.843 1.024-10.411 1.707-19.456 1.707-27.307 8.533-.171 36.864-1.024 66.389-8.192-.853 27.648-2.048 46.933-2.731 54.955-.682 7.509-36.18 10.923-69.29 9.387zm113.664-43.179c-8.533-19.115-28.331-20.821-35.669-20.821.341-14.507.683-31.232.853-50.005 8.533-.171 38.912.512 50.517 12.971 8.192 8.875 11.776 58.539 9.216 94.208l-17.067-9.899c-2.218-9.729-4.607-19.115-7.85-26.454zm19.456 64.341c-1.707-.341-3.584-3.925-5.12-8.875l7.339 3.413c-1.024 3.585-1.877 4.95-2.219 5.462z" class="" fill="#000000" opacity="1" data-original="#000000"></path><circle cx="225.806" cy="253.446" r="11.606" class="" fill="#000000" opacity="1" data-original="#000000"></circle><circle cx="282.624" cy="256.512" r="11.605" class="" fill="#000000" opacity="1" data-original="#000000"></circle><path d="M265.557 266.581c-1.707-.171-3.072.853-3.413 2.56 0 .171-1.707 11.093-9.387 11.776-1.536.171-2.56-.171-3.584-1.195-2.731-2.56-3.072-8.363-3.072-10.411 0-1.707-1.195-3.072-2.901-3.072-1.707 0-3.072 1.195-3.072 2.901 0 1.024 0 10.24 4.949 15.019 1.877 1.877 4.437 2.731 7.168 2.731h1.024c12.459-1.024 14.848-16.213 14.848-16.896.171-1.706-1.024-3.242-2.56-3.413zM185.515 353.621c.171-1.707-1.024-3.072-2.731-3.243-1.707-.171-3.072 1.024-3.243 2.731 0 .512-1.024 11.093 2.048 22.869.341 1.365 1.536 2.219 2.901 2.219.341 0 .549-.004.994-.127 1.536-.512 2.419-2.091 1.907-3.627-2.73-10.752-1.876-20.651-1.876-20.822zM243.029 73.728c.853 0 1.707-.341 2.219-1.024l10.581-12.117c1.024-1.195 1.024-3.072-.341-4.267-1.195-1.024-3.072-1.024-4.267.341L240.64 68.779c-1.024 1.195-1.024 3.072.341 4.267.683.341 1.366.682 2.048.682zM229.547 86.699c.512.512 1.365.853 2.048.853s1.536-.341 2.048-.853l1.195-1.195a2.987 2.987 0 0 0 0-4.267 2.987 2.987 0 0 0-4.267 0l-1.195 1.195c-1.024 1.195-1.024 3.072.171 4.267zM251.904 231.424c3.072 0 6.315-.341 9.557-.853 15.701-2.901 27.307-9.387 34.987-19.115 6.656-8.533 9.557-19.115 8.704-30.72-2.389-28.843-25.088-47.104-44.544-47.616-21.845-.512-38.571 8.533-47.104 25.088-8.875 17.237-6.997 40.448 4.779 56.149 8.192 11.094 19.968 17.067 33.621 17.067zm-33.109-70.656c7.339-14.165 21.504-21.845 40.277-21.845h1.365c21.163.341 37.205 22.016 38.741 42.155 1.877 22.357-12.629 38.571-38.741 43.52-15.36 2.901-28.672-2.048-37.376-13.824-10.41-13.995-12.288-34.646-4.266-50.006z" class="" fill="#000000" opacity="1" data-original="#000000"></path><circle cx="222.72" cy="249.515" r="3.755" class="" fill="#000000" opacity="1" data-original="#000000"></circle><circle cx="279.552" cy="252.587" r="3.755" class="" fill="#000000" opacity="1" data-original="#000000"></circle></g></svg>