<svg xmlns="http://www.w3.org/2000/svg" version="1.1" xmlns:xlink="http://www.w3.org/1999/xlink" width="512" height="512" x="0" y="0" viewBox="0 0 512 512" style="enable-background:new 0 0 512 512" xml:space="preserve" class=""><g><path d="m108.108 149.048-23.165-27.151c2.597-2.888 3.646-6.088 2.314-8.247-1.544-2.503-5.767-2.787-10.224-1.023l-18.04-21.145c2.605-2.39 3.782-5.271 2.634-7.131-1.306-2.116-5.139-2.152-8.927-.245L38.312 67.244l-2.239 2.851 13.08 16.476c-2.523 2.368-3.644 5.192-2.515 7.024 1.254 2.033 4.837 2.16 8.474.482l16.964 21.37c-4.249 3.312-6.297 7.696-4.62 10.415 1.834 2.975 7.443 2.837 12.74-.187L101.73 152.8l6.378-3.752z" style="" fill="#004475" data-original="#004475"></path><path d="m15.197 86.282 22.327-6.378s-9.193-12.383-3.564-15.948c5.629-3.565 16.51 9.006 16.51 9.006l12.571-30.02-11.632 16.886 2.626-33.209L43.153 56.45 33.96 25.118l.75 31.709-23.265-23.641 16.51 27.018-26.266 1.5 23.078 4.315L0 74.275h28.706L15.197 86.282z" style="" fill="#ffb93f" data-original="#ffb93f"></path><path d="m142.594 146.697-29.269-25.141c-22.515 13.884-30.02 39.401-24.017 50.571 6.004 11.17 27.018-3.29 27.018-3.29l7.13 22.515 12.758-4.503-6.754-27.393 13.134-12.759z" style="" fill="#ffbedb" data-original="#ffbedb"></path><path d="m114.563 170.684-2.249-.092 1.319-32.168c-4.869 8.472-9.517 12.695-13.89 12.473-5.128-.222-7.603-6.298-7.705-6.557l2.091-.834c.02.05 2.047 4.99 5.72 5.142 2.836.077 7.533-2.494 14.105-15.588l2.345-4.673-1.736 42.297z" style="" fill="#004475" data-original="#004475"></path><path d="M88.693 165.463h24.867v2.252H88.693z" style="" transform="rotate(-12.231 101.136 166.62)" fill="#004475" data-original="#004475"></path><path d="M87.345 155.358h26.588v2.252H87.345z" style="" transform="rotate(-10.857 100.659 156.497)" fill="#004475" data-original="#004475"></path><path d="m139.592 168.837-75.424 48.782s6.38 190.249 154.226 39.776l18.763-31.521c-.001 0-75.051 63.793-97.565-57.037z" style="" fill="#ba50aa" data-original="#ba50aa"></path><path d="M63.003 203.831h86.38v2.251h-86.38z" style="" transform="rotate(-33.488 106.199 204.951)" fill="#004475" data-original="#004475"></path><path d="M62.473 218.676h87.819v2.25H62.473z" style="" transform="rotate(-34.452 106.374 219.797)" fill="#004475" data-original="#004475"></path><path d="m123.081 443.144-12.008-2.627 13.134 31.521-67.92-46.905S46.155 508.436 153.1 490.05l-30.019-46.906zM361.361 272.962l-2.251 50.283 6.38-.375 8.631-29.645 52.159 31.522c-4.504-60.038-64.919-51.785-64.919-51.785z" style="" fill="#004475" data-original="#004475"></path><path d="m464.184 315.549-2.251-16.886h-17.637v21.389s-27.777 10.921-21.952 14.635c5.825 3.714 24.579-11.632 24.579-11.632s-4.503 48.782 3.377 48.782 3.752-46.53 3.752-46.53 13.509 51.784 20.263 48.407-14.635-48.407-14.635-48.407 37.149 41.653 41.652 32.272c4.503-9.382-35.273-35.274-35.273-35.274s42.402 15.384 45.78 9.006c3.378-6.38-47.655-15.762-47.655-15.762z" style="" fill="#ffbedb" data-original="#ffbedb"></path><path d="m357.235 303.175-6.754 40.527-16.511-95.313s92.309-39.401 101.691 56.287l72.047 6.754s-3.377-238.281-159.104-91.56l-84.056-25.141-80.302 148.972s-75.05 3.752-125.708-60.415c0 0-30.395 73.173 48.032 168.486 0 0 118.203 61.916 233.028-10.132l62.29-16.511c.001.001 21.391-100.189-44.653-121.954z" style="" fill="#ba50aa" data-original="#ba50aa"></path><path d="M251.386 468.761c-75.454 0-146.185-27.163-147.231-27.572l.82-2.098c1.54.602 154.959 59.499 250.183 2.87 27.473-16.339 42.035-35.348 43.283-56.502 2.242-38.009-39.594-70.559-40.016-70.884l1.37-1.785c.432.331 43.206 33.615 40.894 72.802-1.294 21.945-16.225 41.561-44.38 58.304-31.234 18.574-68.632 24.865-104.923 24.865z" style="" fill="#004475" data-original="#004475"></path><path d="M434.077 292.13h72.534v2.252h-72.534z" style="" transform="translate(-1.983 3.205)" fill="#004475" data-original="#004475"></path><path d="M468.087 245.857h2.251v73.239h-2.251z" style="" transform="rotate(-86.572 469.195 282.485)" fill="#004475" data-original="#004475"></path><path d="M483.302 378.592c-28.122.765-75.042 74.299-128.695-7.498s-20.646-211.256-20.646-211.256l-13.509-7.745-105.437 56.175c-21.097 25.688-66.959 93.638-37.532 171.089 37.532 98.682 143.351 143.712 207.901 91.185 64.528-52.549 110.322-119.711 94.923-38.658.001 0 31.139-54.035 2.995-53.292z" style="" fill="#699bf0" data-original="#699bf0"></path><path d="M313.667 481.496c-13.194.001-26.688-2.826-40.324-9.481-65.767-32.093-85.302-86.787-90.111-127.019-5.2-43.516 5.269-79.956 5.375-80.319l2.161.633c-.106.36-10.456 36.422-5.291 79.493 4.754 39.651 24.028 93.554 88.853 125.189 13.248 6.465 26.404 9.217 39.275 9.218 47.344.004 90.932-37.212 122.031-63.759 20.633-17.61 35.547-30.336 44.528-27.075 3.739 1.355 6.116 5.308 7.267 12.08l-2.221.378c-1.003-5.904-2.904-9.286-5.813-10.342-7.76-2.814-23.001 10.199-42.299 26.671-31.386 26.791-75.366 64.327-123.431 64.333z" style="" fill="#8ae0f3" data-original="#8ae0f3"></path><path d="M318.309 444.054c-39.216.001-70.051-11.115-91.718-33.076-35.151-35.627-33.547-88.099-33.526-88.625l2.249.087c-.02.517-1.573 52.053 32.895 86.973 22.19 22.482 54.288 33.35 95.412 32.322l.057 2.251c-1.805.045-3.598.068-5.369.068zM394.568 417.879c-15.481 0-28.866-5.012-39.903-14.967-39.032-35.2-36.114-121.801-36.08-122.671l2.249.088c-.033.86-2.91 86.422 35.341 120.915 13.105 11.818 29.694 16.385 49.307 13.578l.319 2.229c-3.856.552-7.604.828-11.233.828z" style="" fill="#8ae0f3" data-original="#8ae0f3"></path><path d="M380.581 429.481c-10.181 0-19.909-2.025-29.14-6.082-43.981-19.329-61.72-78.972-61.894-79.572l2.161-.627c.171.59 17.631 59.244 60.647 78.141 21.403 9.401 45.667 7.523 72.11-5.591l1.001 2.016c-15.738 7.807-30.746 11.715-44.885 11.715z" style="" fill="#8ae0f3" data-original="#8ae0f3"></path><path d="M312.335 255.634c-6.702 19.555-23.845 31.397-38.293 26.446-14.448-4.951-20.726-24.818-14.026-44.374 6.702-19.555 23.845-31.396 38.293-26.445 14.448 4.951 20.727 24.817 14.026 44.373z" style="" fill="#ffbedb" data-original="#ffbedb"></path><path d="M301.997 259.108c-3.077 7.217-8.946 6.694-14.182 4.235l-9.423-22.668h7.138l-7.28-10.373c4.854.032 10.294-2.872 11.247-15.609 0 .001 18.844 29.537 12.5 44.415z" style="" fill="#ffffff" data-original="#ffffff"></path><path d="M294.159 266.109c-7.975 0-17.132-8.962-17.548-9.373l1.583-1.601c.101.1 10.214 10.002 17.385 8.589 2.362-.464 4.12-2.118 5.375-5.058 4.924-11.542-6.297-32.886-10.716-40.544-.979 6.195-3.307 10.277-6.944 12.155-6.066 3.129-13.306-1.152-13.611-1.336l1.16-1.93c.065.038 6.491 3.821 11.427 1.26 3.508-1.818 5.562-6.415 6.106-13.664l.253-3.373 1.818 2.853c.783 1.226 19.081 30.219 12.579 45.462-1.548 3.627-3.908 5.775-7.015 6.384a9.474 9.474 0 0 1-1.852.176z" style="" fill="#004475" data-original="#004475"></path><path d="M285.397 228.264h1.126v12.617h-1.126z" style="" transform="rotate(-19.792 285.939 234.563)" fill="#004475" data-original="#004475"></path><path d="M289.53 229.079h1.126v23.401h-1.126z" style="" transform="matrix(.0089 -1 1 .0089 46.746 528.722)" fill="#004475" data-original="#004475"></path><path d="M291.238 222.219h1.125v19.598h-1.125z" style="" transform="rotate(-25.217 291.822 232.048)" fill="#004475" data-original="#004475"></path><path d="M285.838 252.047h23.466v1.126h-23.466z" style="" transform="rotate(-88.212 297.575 252.614)" fill="#004475" data-original="#004475"></path><path d="M291.52 240.862h1.126v23.496h-1.126z" style="" transform="rotate(-3.438 292.016 252.591)" fill="#004475" data-original="#004475"></path><path d="M286.311 240.496h1.126v23.7h-1.126z" style="" transform="rotate(-11.421 286.928 252.343)" fill="#004475" data-original="#004475"></path><path d="M325.8 186.882c14.04-10.99 42.216-30.439 49.915-16.244 10.38 19.136-8.443 85.068-55.724 45.667l-2.251-22.796s2.784 8.246 6.051 6.895c3.267-1.351 2.009-13.522 2.009-13.522z" style="" fill="#ffbedb" data-original="#ffbedb"></path><path d="m341.768 219.072-1.949-1.126c.144-.253 3.495-6.222-1.171-8.943-4.891-2.859-11.365 3.86-11.43 3.927l-1.755-1.396c.503-.763 12.561-18.723 30.475-17.653 5.802.328 9.801 2.174 11.885 5.488 3.208 5.099.564 11.654.451 11.93l-2.082-.856c.023-.057 2.312-5.778-.28-9.886-1.676-2.654-5.075-4.145-10.101-4.429-10.032-.542-18.347 5.603-23.333 10.593 2.289-.853 4.872-1.085 7.304.338 5.284 3.081 3.61 9.205 1.986 12.013z" style="" fill="#004475" data-original="#004475"></path><path d="m319.553 157.745-7.34 45.614s-17.922-12.968-39.446-1.396c1.712 5.066 2.296 10.02 2.296 10.02s-35.302 1.53-60.047-3.715c-14.072-2.95-24.721-8.084-23.641-16.909 2.995-24.406 67.544-41.292 67.544-41.292l60.634 7.678z" style="" fill="#ffbedb" data-original="#ffbedb"></path><path d="M262.521 213.343c-20.169 0-58.411-1.615-69.286-13.388-2.374-2.569-3.375-5.51-2.977-8.741 3.061-24.864 65.71-41.53 68.376-42.228l.57 2.179c-.638.167-63.836 16.968-66.712 40.324-.317 2.579.466 4.848 2.396 6.938 12.898 13.963 69.753 12.775 78.883 12.482-.823-5.372-3.564-16.343-9.015-18.334-2.677-.979-5.894.277-9.571 3.726l-1.539-1.642c4.349-4.08 8.344-5.492 11.885-4.197 8.408 3.075 10.554 20.652 10.641 21.399l.141 1.203-1.21.053c-.708.03-5.547.226-12.582.226z" style="" fill="#004475" data-original="#004475"></path><path d="M241.035 182.663a5.476 5.476 0 0 1-2.28-.5c-1.72-.779-2.269-2.045-2.426-2.97-.789-4.651 6.614-11.864 7.461-12.671l1.553 1.629c-2.864 2.732-7.24 8.043-6.795 10.666.067.395.257.897 1.135 1.295 4.295 1.939 9.948-6.56 11.768-10l1.99 1.053c-.685 1.297-6.279 11.497-12.406 11.498zM256.089 187.455a5.476 5.476 0 0 1-2.28-.5c-1.721-.779-2.269-2.045-2.426-2.97-.789-4.651 6.614-11.864 7.461-12.671l1.553 1.629c-2.864 2.732-7.24 8.043-6.795 10.666.067.395.257.897 1.135 1.295 4.295 1.943 9.948-6.56 11.768-10l1.99 1.053c-.686 1.297-6.279 11.497-12.406 11.498z" style="" fill="#004475" data-original="#004475"></path><path d="M256.246 141.568h9.007v54.911h-9.007z" style="" transform="rotate(-71.471 260.745 169.017)" fill="#699bf0" data-original="#699bf0"></path><path d="m374.308 133.564 2.814 18.536s-119.367 63.642-166.891-48.651l16.323-11.82 28.706 52.628S289.876 49.414 346.726 19.3l65.293 96.252L344.193 66.3s8.401 9.85 5.045 11.257-8.704-4.783-8.704-4.783 6.754 12.101-.281 10.693l-3.94 74.863 37.995-24.766z" style="" fill="#ba50aa" data-original="#ba50aa"></path><path d="m262.297 119.492-7.036 24.766s37.431 28.709 81.053 14.073l2.909-26.456-76.926-12.383z" style="" fill="#ff80b5" data-original="#ff80b5"></path><path d="M311.415 159.714c-28.966 0-53.958-17.582-54.276-17.808l1.31-1.832c.395.283 39.901 28.046 76.448 12.854l.864 2.08c-8.127 3.378-16.388 4.706-24.346 4.706z" style="" fill="#004475" data-original="#004475"></path><path d="M299.306 92.37h2.252v75.492h-2.252z" style="" transform="rotate(-79.799 300.435 130.113)" fill="#004475" data-original="#004475"></path></g></svg>